<svg width="34" height="34" viewBox="0 0 34 34" fill="none" xmlns="http://www.w3.org/2000/svg">
<g clip-path="url(#clip0_1011_18952)">
<path d="M15.6387 0.106251C13.6266 0.551174 11.9266 1.85938 11.0234 3.6457C10.8441 3.99766 10.6914 4.21016 10.4988 4.34961C10.1402 4.61524 9.62227 5.25274 9.37656 5.75078C8.96484 6.56758 8.82539 7.52383 8.99141 8.42031L9.08438 8.96485L8.83203 9.40313C8.60625 9.78828 8.37383 10.4059 8.27422 10.8973C8.24766 11.0234 8.18125 11.0898 8.05508 11.123C7.72969 11.1961 6.64727 11.7406 6.1625 12.0594C4.93398 12.8828 3.86484 14.284 3.3668 15.7383C3.0082 16.7809 2.98164 17.1461 3.00156 20.1012C3.02813 22.7508 3.02813 22.8172 3.18086 23.2355C3.26719 23.468 3.47969 23.8664 3.65234 24.1254L3.97109 24.5969L3.45977 24.7695C2.84219 24.982 2.60977 25.1016 2.07852 25.4734C1.18867 26.1043 0.405078 27.2531 0.132812 28.3289C0.0132813 28.7938 0 29.066 0 31.2441V33.648L0.172656 33.8273L0.351953 34H10.6715H20.991L21.1504 33.8406C21.4492 33.5418 21.4492 33.1301 21.1504 32.8313L20.991 32.6719H17.8301H14.6625L14.6891 30.8258C14.7156 29.1656 14.7355 28.9465 14.8617 28.5547C15.2801 27.2863 16.2629 26.35 17.5047 26.0313C17.9496 25.9184 18.2418 25.8984 19.6363 25.8984C21.0309 25.8984 21.25 25.9117 21.25 25.998C21.25 26.1906 21.5355 26.702 21.8277 27.0273C22.4055 27.6715 23.4148 27.9703 24.298 27.7578C25.0219 27.5852 25.7656 26.9145 26.018 26.2172L26.1309 25.8984H27.7246C29.5309 25.8984 29.8563 25.9516 30.6332 26.3367C31.2441 26.6488 31.9082 27.3063 32.2004 27.9039C32.5855 28.6742 32.6121 28.8934 32.652 30.859L32.6852 32.6719H29.5176H26.35L26.1574 32.8645C25.8852 33.1367 25.8852 33.5352 26.1574 33.8074L26.35 34H30.0023H33.648L33.8273 33.8273L34 33.648V31.2441C34 29.0859 33.9867 28.7871 33.8738 28.3422C33.6414 27.4324 33.0703 26.4828 32.3797 25.8453C32.0609 25.5465 31.3504 25.0684 31.1379 25.002C31.0184 24.9621 31.0117 24.8359 31.0117 21.1371C31.0117 17.5379 31.0051 17.2789 30.8723 16.648C30.4273 14.4633 28.993 12.5773 27.0074 11.5879C26.6156 11.3887 26.1773 11.1895 26.0312 11.1496C25.8254 11.0898 25.7523 11.0301 25.7258 10.8973C25.6262 10.4059 25.3938 9.78828 25.168 9.40313L24.9156 8.96485L25.0086 8.42031C25.2809 6.92617 24.6566 5.23945 23.5211 4.36953C23.3152 4.21016 23.1492 3.99102 22.9367 3.5793C22.1066 1.97227 20.6125 0.757034 18.8262 0.225784C18.3082 0.0730476 18.0824 0.0464859 17.166 0.0265656C16.3824 0.00664139 15.984 0.0332031 15.6387 0.106251ZM18.1488 1.50078C19.7559 1.85938 21.1504 3.02149 21.8676 4.59531C22.0402 4.96719 22.1531 5.12656 22.3258 5.23281C22.6844 5.4586 23.2023 6.04297 23.3883 6.44141C23.7402 7.17852 23.7668 7.94219 23.4746 8.77227C23.3484 9.12422 23.3949 9.35 23.6539 9.67539C23.8199 9.88789 24.2383 10.625 24.2383 10.7113C24.2383 10.7246 23.873 10.7578 23.4281 10.7844C22.5715 10.8242 21.7215 10.9836 21.1305 11.2094C20.9113 11.2957 20.7852 11.3156 20.8117 11.2691C21.2766 10.2199 21.3297 9.86797 21.3031 8.18125L21.2832 6.82656L21.0973 6.66719C20.9113 6.50781 20.8848 6.50781 19.6562 6.50781C18.9656 6.50781 18.2484 6.47461 18.0691 6.43477C17.4117 6.29531 16.9203 5.7707 16.7941 5.07344C16.7543 4.86094 16.6812 4.58867 16.6348 4.47578C16.4688 4.07734 15.8578 4.01094 15.5324 4.35625C15.393 4.50899 15.373 4.58203 15.3863 5.00039C15.3863 5.26602 15.4395 5.60469 15.4926 5.75742C15.5855 6.00977 15.5855 6.04297 15.4859 6.1293C15.1672 6.40821 14.9215 6.46797 13.9652 6.50781C12.6438 6.5543 12.7234 6.45469 12.6969 8.18789C12.6703 9.86797 12.7234 10.2199 13.1883 11.2691C13.2148 11.3156 13.0887 11.2957 12.8695 11.2094C12.2785 10.9836 11.4285 10.8242 10.5785 10.7844C10.127 10.7578 9.76172 10.7246 9.76172 10.7113C9.76172 10.625 10.1801 9.88789 10.3461 9.67539C10.6051 9.35 10.6516 9.12422 10.5254 8.77227C10.2332 7.94219 10.2598 7.17852 10.6117 6.44141C10.7977 6.04297 11.3156 5.4586 11.6676 5.23945C11.8402 5.1332 11.9664 4.94727 12.1855 4.48906C12.3449 4.15703 12.6371 3.67891 12.823 3.42656C13.4805 2.56328 14.616 1.81953 15.7383 1.53399C16.3758 1.36797 17.4781 1.35469 18.1488 1.50078ZM17.0996 7.57031C17.5777 7.80274 18.1688 7.90235 19.1781 7.90235H19.9219V8.71914C19.9219 9.23711 19.882 9.67539 19.8223 9.92774C19.5367 11.0301 18.6004 11.8801 17.4449 12.0926C16.0438 12.3516 14.5496 11.3621 14.1777 9.92774C14.118 9.68203 14.0781 9.23711 14.0781 8.72578V7.92227L14.6027 7.87578C15.2801 7.82266 15.7184 7.68984 16.1168 7.41094C16.4023 7.21172 16.4488 7.19844 16.5684 7.28477C16.6414 7.33125 16.8805 7.46406 17.0996 7.57031ZM11.7672 12.3449C13.9586 12.9094 15.6652 14.6758 16.1766 16.9137C16.3094 17.518 16.3891 21.2965 16.2762 22.1133C16.1434 23.1293 15.632 23.8465 14.7621 24.2516C14.3703 24.4375 14.2309 24.4641 13.6 24.4906L12.8828 24.5238V24.059V23.5941L13.2148 23.3152C13.6066 22.9898 14.0848 22.3391 14.3039 21.841C14.6027 21.157 14.6758 20.6324 14.6758 19.1781C14.6758 17.9563 14.6625 17.8102 14.543 17.6176C14.4699 17.498 14.3438 17.3852 14.2641 17.3719C14.1777 17.352 13.4871 17.3254 12.7168 17.3188C11.143 17.2922 11.0102 17.259 10.5453 16.7477C10.2133 16.3824 10.1734 16.2828 10.1004 15.7582C10.0406 15.373 10.0008 15.2801 9.82148 15.1141C9.63555 14.948 9.56914 14.9281 9.30352 14.9613C8.72578 15.0277 8.55313 15.5457 8.79883 16.4688C8.85195 16.668 8.89844 16.8539 8.89844 16.8805C8.89844 16.907 8.75898 17.0133 8.58633 17.1129C8.2875 17.2855 8.20781 17.2988 7.33789 17.332C6.32852 17.3652 6.17578 17.4117 6.04297 17.7238C5.9168 18.0426 5.98984 20.7719 6.14258 21.25C6.4082 22.0867 6.9793 22.9633 7.53047 23.3816L7.8293 23.6074L7.83594 24.0523V24.5039H7.24492C5.96992 24.5039 5.08672 23.9793 4.59531 22.9301L4.41602 22.5449V19.8223C4.41602 16.7145 4.41602 16.7344 4.98047 15.559C6.02969 13.3941 8.19453 12.0859 10.5586 12.1855C10.9438 12.1988 11.4883 12.2719 11.7672 12.3449ZM25.1016 12.3516C26.7484 12.75 28.2227 13.9387 28.9863 15.4926C29.5973 16.7344 29.5773 16.5285 29.6039 20.7652L29.6238 24.5039H27.8973H26.1641V24.0523L26.1707 23.6074L26.4695 23.3816C27.127 22.8836 27.7445 21.8277 27.9238 20.8914C28.0633 20.1742 28.0633 17.9363 27.9238 17.6707C27.7844 17.3984 27.5652 17.3387 26.5957 17.3188C25.7855 17.2988 25.7125 17.2855 25.4203 17.1129C25.241 17.0133 25.1016 16.8938 25.1016 16.8473C25.1016 16.8008 25.148 16.6215 25.2012 16.4422C25.2543 16.2629 25.3008 15.9441 25.3008 15.7316C25.3008 15.227 25.1281 15.0078 24.6965 14.9613C24.4309 14.9281 24.3645 14.948 24.1785 15.1141C23.9992 15.2801 23.9594 15.373 23.8996 15.7582C23.8266 16.2828 23.7867 16.3824 23.4547 16.7477C22.9898 17.259 22.857 17.2922 21.2832 17.3188C20.5195 17.3254 19.8223 17.352 19.7359 17.3719C19.6562 17.3852 19.5301 17.498 19.457 17.6176C19.3375 17.8102 19.3242 17.9563 19.3242 19.1781C19.3242 20.6324 19.3973 21.157 19.6961 21.841C19.9152 22.3391 20.3934 22.9898 20.7852 23.3152L21.1172 23.5941V24.0523V24.5039H19.384H17.6508L17.684 20.9313C17.7172 17.093 17.7238 17.0199 18.0957 16.0305C18.8395 14.0516 20.6922 12.5574 22.8105 12.2188C23.3816 12.1324 24.4441 12.1922 25.1016 12.3516ZM17 13.5137C17.3453 13.5137 17.7105 13.4871 17.8168 13.4605C17.9961 13.4141 17.9961 13.4141 17.7105 13.7992C17.5578 14.0117 17.3387 14.357 17.2324 14.5629C17.1195 14.7688 17.0199 14.9414 17 14.9414C16.9801 14.9414 16.8805 14.7688 16.7676 14.5629C16.6613 14.357 16.4422 14.0117 16.2895 13.7992C16.0039 13.4141 16.0039 13.4141 16.1832 13.4605C16.2895 13.4871 16.6547 13.5137 17 13.5137ZM10.7379 18.5406C11.05 18.6535 11.3289 18.6867 12.2055 18.7133L13.2812 18.7398V19.55C13.2812 20.4066 13.1883 20.9113 12.9426 21.4027C12.1723 22.9035 10.2465 23.448 8.79883 22.5715C8.47344 22.3723 7.93555 21.8012 7.74961 21.4559C7.49063 20.9777 7.37109 20.3867 7.37109 19.5168V18.7465L7.92227 18.7133C8.53984 18.6734 9.09102 18.4941 9.50273 18.2152L9.78828 18.016L10.0672 18.2086C10.2266 18.3148 10.5254 18.4609 10.7379 18.5406ZM25.1547 18.5406C25.3605 18.6137 25.7789 18.6934 26.0844 18.7133L26.6289 18.7465V19.5168C26.6289 20.7918 26.3965 21.4625 25.7391 22.1133C25.3273 22.5184 25.0883 22.6711 24.557 22.8504C23.2289 23.2953 21.7016 22.6645 21.0574 21.4027C20.8117 20.9113 20.7188 20.4066 20.7188 19.55V18.7398L21.8012 18.7066C22.9832 18.6734 23.4148 18.5738 23.9395 18.202L24.2051 18.016L24.4906 18.2152C24.65 18.3215 24.9488 18.4676 25.1547 18.5406ZM11.475 24.9156C11.4418 25.6926 11.3488 25.925 10.9902 26.2039C10.5055 26.5691 9.775 26.4496 9.41641 25.9516C9.28359 25.759 9.26367 25.6395 9.24375 25.0285L9.21719 24.3246L10.0738 24.3512C10.7777 24.3777 11.0633 24.3578 11.4816 24.2449C11.4949 24.2383 11.4949 24.5438 11.475 24.9156ZM23.9262 24.3578L24.7828 24.3246L24.7563 25.0285C24.7363 25.6395 24.7164 25.759 24.5836 25.9516C24.225 26.4496 23.4945 26.5691 23.0098 26.2039C22.6512 25.925 22.5582 25.6926 22.525 24.9223L22.4918 24.2516L22.784 24.318C22.9434 24.3512 23.4613 24.3711 23.9262 24.3578ZM7.98867 26.2305C8.14805 26.6688 8.4668 27.0738 8.89844 27.3793C9.85469 28.0434 11.1828 27.957 12.0395 27.1668C12.3316 26.8945 12.75 26.2105 12.75 26.0047C12.75 25.9117 12.8828 25.8984 13.8191 25.8984H14.8883L14.5695 26.257C13.932 26.9543 13.4938 27.9238 13.3543 28.9133C13.3145 29.1988 13.2812 30.1551 13.2812 31.0516V32.6719H7.29805H1.31484L1.34805 30.8656C1.38789 28.8934 1.41445 28.6742 1.79961 27.9039C2.0918 27.3063 2.75586 26.6488 3.37344 26.3367C4.13711 25.9516 4.41602 25.9117 6.24219 25.9051L7.86914 25.8984L7.98867 26.2305Z" fill="white"/>
<path d="M23.1691 32.8644C23.0164 33.0171 22.9766 33.1167 22.9766 33.3359C22.9766 34.1195 24.152 34.2722 24.3445 33.5085C24.3645 33.4155 24.3645 33.2562 24.3445 33.1632C24.2184 32.6585 23.5477 32.4859 23.1691 32.8644Z" fill="white"/>
</g>
<defs>
<clipPath id="clip0_1011_18952">
<rect width="34" height="34" fill="white"/>
</clipPath>
</defs>
</svg>
