<svg width="34" height="34" viewBox="0 0 34 34" fill="none" xmlns="http://www.w3.org/2000/svg">
<g clip-path="url(#clip0_1011_18977)">
<path d="M14.5296 0.126137C13.7593 0.292152 13.3542 0.431604 12.7167 0.737074C10.4058 1.83942 8.76553 4.02418 8.36709 6.55426C8.27412 7.11207 8.27412 8.49332 8.36709 9.05114C8.56631 10.3261 9.08428 11.5281 9.88779 12.5839C10.2929 13.1152 11.9331 14.7953 12.1655 14.9148C12.6636 15.1738 13.2147 14.8484 13.2147 14.2906C13.2147 14.025 12.969 13.7195 12.0194 12.7832C11.3155 12.0925 10.6913 11.3754 10.6913 11.2558C10.6913 11.2359 11.7472 11.2226 13.0354 11.2226C15.6187 11.2226 15.8179 11.1961 16.389 10.8308C16.8671 10.5254 17.0132 10.3062 17.6905 8.83864C18.2019 7.75621 18.328 7.53043 18.4741 7.47731C18.8726 7.33785 18.8792 7.35114 20.1144 11.0168C20.7585 12.9492 21.3229 14.523 21.4226 14.6691C21.7479 15.1672 22.246 15.4129 22.9101 15.4195C23.6206 15.4261 24.2183 15.0941 24.5105 14.523C24.5835 14.3902 24.8956 13.5535 25.2077 12.6636C25.8784 10.7843 25.905 10.7246 26.1839 10.5586C26.3831 10.4324 26.5358 10.4257 29.2386 10.4257H32.0741L31.9347 10.7047C31.5362 11.4882 31.0581 12.0129 27.1136 15.9441C23.4015 19.6496 23.0429 19.9882 22.6444 20.1742C21.8808 20.5261 21.1038 20.6125 20.3534 20.4199C19.5698 20.2207 19.2843 20.0214 18.2284 18.9922C17.6839 18.4543 17.1659 17.9761 17.0862 17.9363C17.0065 17.8964 16.8339 17.8632 16.7011 17.8632C16.203 17.8632 15.9108 18.4277 16.1632 18.9125C16.2827 19.1515 17.9429 20.7652 18.3479 21.0441C20.2339 22.339 22.6909 22.173 24.4374 20.6324C24.7495 20.3601 26.6288 18.5007 28.621 16.4953C32.3929 12.7035 32.6519 12.4047 33.203 11.3089C33.814 10.0804 34.0331 9.02457 33.98 7.50387C33.9269 5.90348 33.5616 4.74137 32.7183 3.46637C31.5429 1.7066 29.8296 0.557777 27.7511 0.132776C26.7749 -0.073082 25.1679 -0.0332394 24.2382 0.212463C23.3218 0.458168 22.6378 0.770277 21.8476 1.29489L21.1503 1.75973L20.4862 1.31481C19.7159 0.796839 18.9722 0.458168 18.069 0.219105C17.1858 -0.0199585 15.4062 -0.0598011 14.5296 0.126137ZM17.7769 1.59371C18.4741 1.77965 19.5366 2.3109 20.0214 2.72262C21.1503 3.66559 21.1901 3.67223 22.0401 2.90856C22.4851 2.50348 23.2487 2.05192 23.9062 1.79957C24.6366 1.51403 25.3472 1.38786 26.1972 1.38786C27.9104 1.38786 29.3913 1.98551 30.6132 3.16754C31.5163 4.03082 32.114 5.03356 32.4128 6.16246C32.5655 6.72692 32.6519 8.05504 32.5788 8.6527L32.5323 9.02457L29.2651 9.04449L25.9979 9.06442L25.6659 9.22379C25.2542 9.42965 24.8757 9.77496 24.6765 10.1203C24.5901 10.273 24.2448 11.1695 23.9062 12.1191C23.5741 13.0687 23.262 13.8855 23.2089 13.9386C23.0827 14.0648 22.7839 14.0515 22.6444 13.9054C22.5714 13.8324 22.0468 12.3648 21.4292 10.5187C20.8249 8.73239 20.2737 7.13864 20.2007 6.99254C19.8886 6.3816 19.1315 5.98981 18.4144 6.06285C17.9894 6.10934 17.4515 6.38824 17.1991 6.70035C17.0929 6.81989 16.7675 7.46403 16.4687 8.12809C16.1698 8.79215 15.8644 9.40309 15.7847 9.48942C15.4792 9.82145 15.3995 9.82809 12.5905 9.82809H9.97412L9.86123 9.34996C9.42295 7.56363 9.80146 5.57145 10.8573 4.08395C11.2292 3.56598 12.0792 2.74254 12.5772 2.42379C14.1312 1.4277 16.0503 1.12223 17.7769 1.59371Z" fill="white"/>
<path d="M14.284 15.8315C14.0781 15.9444 13.952 16.1835 13.9453 16.4558C13.9453 16.6284 14.0051 16.7413 14.1777 16.914C14.3902 17.1265 14.4367 17.1464 14.6957 17.1132C15.0609 17.0601 15.3398 16.7679 15.3398 16.4292C15.3398 16.2433 15.2867 16.137 15.1141 15.9643C14.8684 15.7186 14.5762 15.6722 14.284 15.8315Z" fill="white"/>
<path d="M11.6876 21.363C11.0501 21.4294 10.3063 21.6353 8.66611 22.1931L6.87314 22.804L3.59932 22.8438L0.318848 22.8771L0.159473 23.063C-0.059668 23.322 -0.059668 23.7603 0.159473 24.0192L0.318848 24.2052L3.61924 24.2251L6.92627 24.245L9.02471 23.5478C11.4751 22.731 11.9798 22.638 13.0954 22.7642C13.8524 22.8571 14.7888 23.1493 15.3731 23.4747C16.1368 23.9063 23.2688 28.7872 23.4017 28.9731C23.5942 29.2321 23.5942 29.8032 23.4017 30.0556C23.1958 30.3345 22.9567 30.4872 22.6645 30.5271C22.4255 30.5603 21.9806 30.3876 18.3946 28.8603C15.4462 27.6052 14.3173 27.1603 14.1313 27.1603C13.547 27.1603 13.2614 27.8575 13.6665 28.2825C13.7993 28.4286 14.7423 28.8536 17.4317 29.9892C19.404 30.8192 21.0376 31.5165 21.0708 31.5431C21.1306 31.5962 18.1091 32.4462 17.5313 32.5392C16.9204 32.6321 15.4661 32.6188 14.8751 32.5126C14.6028 32.4595 12.9626 32.0278 11.236 31.5497L8.10166 30.6798H4.24346H0.385254L0.192676 30.8724C0.0399414 31.0251 9.76562e-05 31.1247 9.76562e-05 31.3438C9.76562e-05 31.6892 0.0864258 31.8485 0.332129 31.9747C0.498145 32.061 1.04932 32.0743 4.19697 32.0743H7.86924L10.9903 32.9376C12.7103 33.4157 14.3837 33.8474 14.7091 33.9005C15.486 34.0267 17.0599 34.0267 17.8567 33.9005C18.1954 33.8407 20.8251 33.1235 23.7005 32.3001C31.5099 30.0622 32.5192 29.7634 32.7915 29.6239C33.1634 29.4313 33.6017 28.9665 33.7942 28.5548C33.947 28.236 33.9669 28.1032 33.9669 27.4923C33.9669 26.8614 33.947 26.7618 33.781 26.4431C33.3028 25.5267 32.2935 25.0153 31.2974 25.1681C31.1048 25.2013 29.3185 25.6927 27.3263 26.2638C25.3341 26.8349 23.6606 27.2864 23.6009 27.2665C23.5478 27.2466 21.9208 26.1575 20.0017 24.856C16.3493 22.379 15.5657 21.9142 14.5431 21.622C13.6532 21.3696 12.5708 21.27 11.6876 21.363ZM31.8751 26.5626C32.0079 26.5958 32.2138 26.7353 32.3399 26.8614C32.5591 27.0872 32.5724 27.1337 32.5724 27.5255C32.5724 27.9306 32.5591 27.9704 32.3399 28.1896C32.1208 28.4087 31.9415 28.4685 28.8536 29.3517C27.0673 29.8696 25.4138 30.3478 25.1813 30.4142L24.763 30.5337L24.8095 30.3942C24.9954 29.8099 25.0153 29.3251 24.8626 28.8271C24.8095 28.6345 24.7696 28.4685 24.7829 28.4618C24.8028 28.4419 31.5563 26.5028 31.6095 26.5028C31.6294 26.4962 31.7489 26.5294 31.8751 26.5626Z" fill="white"/>
</g>
<defs>
<clipPath id="clip0_1011_18977">
<rect width="34" height="34" fill="white"/>
</clipPath>
</defs>
</svg>
