<svg width="34" height="34" viewBox="0 0 34 34" fill="none" xmlns="http://www.w3.org/2000/svg">
<g clip-path="url(#clip0_1011_18874)">
<path d="M18.3281 0.132352C16.1367 0.59629 14.2773 2.02787 13.2878 4.01617C12.7499 5.09648 12.5374 6.01773 12.5308 7.29025C12.5242 9.41773 13.2812 11.1741 14.8484 12.652C18.3148 15.9327 24.0124 15.0049 26.3234 10.7963C27.273 9.07309 27.4589 6.84619 26.8148 4.93742C25.998 2.48518 23.8066 0.589662 21.23 0.0992136C20.4929 -0.0399675 19.0519 -0.0267124 18.3281 0.132352ZM21.0507 1.49102C22.8039 1.86217 24.371 3.06179 25.1812 4.67231C25.6062 5.5074 25.8785 6.85282 25.7988 7.68791C25.5796 9.92806 24.3445 11.7175 22.3722 12.6587C21.4824 13.0828 20.9046 13.2088 19.8554 13.2088C18.8062 13.2088 18.2285 13.0828 17.3386 12.6587C16.3691 12.1947 15.5257 11.4856 14.9414 10.6372C14.4167 9.87504 14.0183 8.72845 13.9121 7.68791C13.8324 6.85282 14.1046 5.5074 14.5296 4.67231C15.3265 3.0883 16.8937 1.87543 18.6136 1.49765C19.1781 1.37173 20.4664 1.37173 21.0507 1.49102Z" fill="white"/>
<path d="M19.2447 2.81676C19.0654 2.98908 18.9923 3.27407 18.9923 3.77777C18.9923 4.06276 18.979 4.08264 18.6869 4.23508C17.6509 4.78518 17.3853 6.36257 18.1689 7.28381C18.5009 7.66822 18.906 7.8803 19.497 7.98635C20.0947 8.09239 20.3205 8.25808 20.3205 8.59609C20.3205 8.89434 20.2275 9.0534 19.9818 9.18596C19.6896 9.33177 19.4372 9.25223 19.0189 8.87446C18.7001 8.58284 18.6271 8.5497 18.3548 8.5497C18.1091 8.5497 18.0162 8.58284 17.8568 8.7419C17.4052 9.19258 17.7837 9.92826 18.7134 10.3988C18.9857 10.538 18.9923 10.5446 18.9923 10.8893C18.9923 11.4195 19.0986 11.7177 19.3443 11.8635C19.4638 11.9364 19.6298 11.9961 19.7228 11.9961C19.8158 11.9961 19.9818 11.9364 20.1013 11.8635C20.347 11.7177 20.4533 11.4195 20.4533 10.8893C20.4533 10.5579 20.4599 10.5446 20.7455 10.3789C21.6619 9.8421 21.9939 8.68888 21.5158 7.71461C21.2037 7.08498 20.7122 6.74034 19.9685 6.6343C19.2978 6.54151 19.1251 6.3957 19.1251 5.94502C19.1251 5.63352 19.3908 5.36841 19.7029 5.36841C19.9552 5.36841 20.1279 5.44132 20.4001 5.67329C20.6591 5.88537 20.9314 5.93177 21.2037 5.79921C21.4626 5.67991 21.5822 5.46783 21.5822 5.12319C21.5822 4.92436 21.529 4.83157 21.29 4.60623C21.1306 4.45379 20.8783 4.26822 20.7322 4.20194C20.4665 4.08264 20.4533 4.06276 20.4533 3.77777C20.4466 2.95594 20.2474 2.65106 19.7228 2.65106C19.4771 2.65106 19.3708 2.6842 19.2447 2.81676Z" fill="white"/>
<path d="M30.8789 14.1236C30.268 14.2429 29.823 14.5345 29.0859 15.2901C28.7008 15.6811 27.7379 16.6752 26.941 17.4904L25.5 18.9684L25.2277 18.7232C25.075 18.5906 24.7563 18.3852 24.5105 18.2659L24.0723 18.0604L19.9883 18.0273L15.9043 17.9875L15.3996 17.8152C14.45 17.4838 13.8789 17.3977 12.6172 17.3977C11.7871 17.4043 11.2891 17.4374 10.8707 17.517C9.05781 17.8815 7.57031 18.6768 6.375 19.9294C5.92344 20.4 5.31914 21.2152 5.20625 21.4936C5.17305 21.5864 5.07344 21.6062 4.72148 21.6062C4.2168 21.6062 3.86484 21.7454 3.42656 22.1033C3.26719 22.2292 2.43047 23.0643 1.56719 23.9591C0.159375 25.4105 0 25.5961 0 25.7949C0.00664063 25.9142 0.0398438 26.0799 0.0863281 26.1595C0.132812 26.239 1.89258 28.0351 4.0043 30.1493L7.84258 34H8.18125H8.51992L10.3328 32.1973C12.2586 30.2885 12.3648 30.1559 12.4512 29.46C12.4777 29.2745 12.4645 29.0027 12.4313 28.8569L12.3715 28.5786L12.8563 28.1411C13.7395 27.3458 13.175 27.4121 19.1582 27.3723L24.3379 27.3326L24.9223 27.1536C25.832 26.8752 26.6621 26.4113 27.2996 25.8347C27.718 25.4569 33.5551 18.4316 33.7809 18.0405C33.9934 17.6628 34 17.6561 34 16.7614C34 15.9329 33.9867 15.8402 33.834 15.5287C33.741 15.3431 33.5086 15.0382 33.3227 14.8526C32.6719 14.2031 31.802 13.9446 30.8789 14.1236ZM31.7754 15.5154C31.9281 15.5618 32.1539 15.701 32.3133 15.8667C32.8246 16.3704 32.8512 17.0199 32.3863 17.5965C31.9016 18.2129 26.7219 24.3832 26.4695 24.6483C26.0711 25.0725 25.334 25.5298 24.6965 25.7552L24.1387 25.9474L18.9258 25.9805C13.7195 26.0136 13.7129 26.0136 13.3145 26.1661C12.8297 26.345 12.3781 26.6433 11.8801 27.094L11.5148 27.432L8.94492 24.8671L6.375 22.3021L6.54102 22.0172C6.99922 21.2086 7.85586 20.347 8.73242 19.8101C9.76836 19.1739 10.8973 18.8491 12.3184 18.7828C13.3543 18.7298 14.098 18.8425 15.1074 19.1871L15.7781 19.4191H19.7227C23.4215 19.4191 23.6938 19.4324 23.9395 19.545C24.9156 19.9957 24.9555 21.3411 24.0059 21.8581C23.8332 21.9575 23.4281 21.9774 20.7453 22.0039C17.85 22.037 17.6707 22.0437 17.5379 22.163C17.332 22.3485 17.2523 22.7064 17.3586 22.9649C17.5445 23.409 17.4383 23.3957 20.7852 23.3957C24.1121 23.3957 24.225 23.3825 24.8492 22.9914C25.593 22.5142 26.0246 21.7918 26.0777 20.917L26.1109 20.3801L26.8547 19.6179C30.1352 16.2378 30.7859 15.5949 31.0117 15.5287C31.3238 15.4292 31.4633 15.4292 31.7754 15.5154ZM8.06836 25.9805C11.0234 28.9232 11.0566 28.963 11.0566 29.2281C11.0566 29.4865 11.0168 29.5329 9.66211 30.885C8.89844 31.6538 8.24102 32.2768 8.20117 32.2768C8.16133 32.2768 6.68711 30.832 4.91406 29.0624L1.69336 25.848L3.12109 24.423C4.50234 23.0444 4.55547 22.998 4.81445 22.998C5.07344 22.998 5.12656 23.0444 8.06836 25.9805Z" fill="white"/>
<path d="M14.9149 21.9706C14.636 22.1164 14.5496 22.2622 14.543 22.5869C14.5364 23.4021 15.7317 23.5281 15.9043 22.7327C15.9707 22.4411 15.7848 22.0832 15.5125 21.9706C15.2203 21.8446 15.1539 21.8446 14.9149 21.9706Z" fill="white"/>
</g>
<defs>
<clipPath id="clip0_1011_18874">
<rect width="34" height="34" fill="white"/>
</clipPath>
</defs>
</svg>
