<svg width="34" height="34" viewBox="0 0 34 34" fill="none" xmlns="http://www.w3.org/2000/svg">
<path d="M8.36719 4.91733C6.1293 5.08999 4.11055 6.06616 2.53672 7.73296C0.896484 9.45952 0 11.7373 0 14.1412C0 15.124 0.132812 15.788 0.524609 16.8373C0.677344 17.229 0.796875 17.5611 0.796875 17.5744C0.796875 17.5876 0.703906 17.5943 0.591016 17.5943C0.272266 17.5943 0 17.9064 0 18.2716C0 18.7896 0.305469 18.9888 1.08906 18.9888H1.57383L1.83281 19.4005C3.83164 22.6478 8.24766 27.2564 13.4008 31.4599C14.968 32.7415 14.9281 32.715 15.373 32.6818C15.5125 32.6685 17.0664 31.4466 18.4277 30.2845C19.5766 29.3017 21.6484 27.4091 21.7215 27.283C21.7547 27.2165 21.7812 27.0505 21.7812 26.9044C21.7812 26.4396 21.2965 26.1208 20.8648 26.3068C20.752 26.3533 20.234 26.7849 19.7094 27.2564C18.0426 28.7771 15.4727 30.9619 15.2469 31.0482C15.1273 31.0947 13.6332 29.8662 11.5879 28.0533C8.15469 24.9986 5.3125 21.9705 3.69219 19.633L3.24727 18.9888H6.20898C9.33672 18.9888 9.5293 18.9689 9.68203 18.6767C9.71523 18.6103 9.9875 17.7072 10.2863 16.6646C10.5852 15.622 10.8441 14.7255 10.8641 14.6724C10.884 14.6193 11.6277 16.897 12.5109 19.7326C13.4008 22.5747 14.1645 24.9388 14.2109 24.9986C14.4102 25.2376 15.0742 25.2376 15.2734 24.9986C15.3199 24.9455 15.7648 23.5908 16.2629 21.9904L17.1727 19.0884L18.7664 19.0552C20.4266 19.022 20.4664 19.0154 20.6988 18.7232C20.7453 18.6701 20.7852 18.4974 20.7852 18.338C20.7852 18.1056 20.7453 18.0126 20.5926 17.8533L20.4 17.6607H18.4012C16.4289 17.6607 16.409 17.6607 16.2363 17.8068C16.0504 17.9728 15.9973 18.1189 15.2402 20.5626C14.9879 21.3794 14.7621 22.0435 14.7422 22.0435C14.7223 22.0435 13.9918 19.7326 13.1152 16.9103C11.3555 11.2591 11.4219 11.4185 10.8973 11.4185C10.698 11.4185 10.5785 11.465 10.4258 11.5978C10.2398 11.7638 10.1602 12.0162 9.52266 14.2408C9.1375 15.5888 8.76562 16.897 8.69258 17.1427L8.55977 17.5943H5.47852H2.39727L2.17148 17.1095C1.58711 15.8412 1.39453 15.0974 1.39453 14.0748C1.39453 10.8408 3.51289 7.81264 6.53438 6.73686C7.39102 6.43139 8.17461 6.29194 9.09766 6.29194C11.1098 6.29194 12.7832 6.98256 14.4234 8.47671C15.1141 9.11421 15.3 9.11421 15.9906 8.47671C17.2457 7.32788 18.4941 6.6771 19.9617 6.39819C20.6324 6.27866 21.8676 6.25874 22.5316 6.36499C24.7563 6.73022 26.7883 8.15796 27.9836 10.1966C28.2559 10.6615 28.6477 11.6111 28.7805 12.1158L28.8668 12.4611L27.9637 12.5009C26.277 12.5673 25.0219 13.1384 23.8598 14.3603C23.2621 14.9912 22.8504 15.6884 22.5648 16.5583C22.3523 17.2091 22.3457 17.2623 22.3457 18.3248C22.3457 19.5466 22.4188 19.9119 22.8105 20.7619C23.5742 22.422 24.9422 23.5642 26.7418 24.0423C27.4723 24.2415 28.8336 24.2415 29.5707 24.0423C31.6625 23.4912 33.2695 21.924 33.834 19.8853C33.9867 19.3408 34.0398 17.9064 33.9336 17.3021C33.6281 15.5423 32.3996 13.9021 30.7727 13.0919L30.3676 12.8861L30.2879 12.4677C29.6238 9.07436 27.3328 6.40483 24.152 5.34233C23.1824 5.01694 22.4453 4.90405 21.3164 4.90405C20.732 4.90405 20.1211 4.94389 19.7559 5.0103C18.2418 5.27592 16.6746 6.01967 15.4594 7.04897L15.207 7.25483L14.9613 7.04897C13.8457 6.11264 12.4977 5.42866 11.123 5.10991C10.6449 4.99702 10.3527 4.96382 9.29688 4.88413C9.13086 4.87085 8.7125 4.88413 8.36719 4.91733ZM29.1125 13.9751C29.3715 14.0283 29.8297 14.2009 30.1418 14.3537C30.8789 14.7189 31.7223 15.529 32.0875 16.233C32.4926 17.0099 32.6254 17.6208 32.5922 18.524C32.5457 19.7591 32.1738 20.6091 31.3105 21.479C30.766 22.0236 30.1883 22.3755 29.4512 22.6212C28.9996 22.7673 28.8004 22.7939 28.1562 22.7939C27.5121 22.7939 27.3129 22.7673 26.8613 22.6212C26.1242 22.3755 25.5465 22.0236 25.002 21.479C24.1387 20.6091 23.7668 19.7591 23.7203 18.524C23.6938 17.8798 23.7137 17.6673 23.8332 17.229C24.0656 16.399 24.391 15.8478 25.0352 15.2037C25.925 14.3072 26.9012 13.8888 28.123 13.8822C28.4152 13.8822 28.8602 13.922 29.1125 13.9751Z" fill="white"/>
<path d="M27.8908 15.2767C27.5322 15.4161 27.4924 15.5489 27.4924 16.6446V17.6606H26.5295C25.8123 17.6606 25.5135 17.6872 25.374 17.7603C24.9955 17.9528 24.9424 18.5505 25.2744 18.8626C25.4338 19.0153 25.4935 19.022 26.4697 19.0419L27.4924 19.0685V20.0646V21.0606L27.685 21.2532C27.8377 21.406 27.9373 21.4458 28.1564 21.4458C28.3756 21.4458 28.4752 21.406 28.6279 21.2532L28.8205 21.0606V20.0646V19.0685L29.8432 19.0419C30.8193 19.022 30.8791 19.0153 31.0385 18.8626C31.3705 18.5505 31.3174 17.9528 30.9389 17.7603C30.7994 17.6872 30.5006 17.6606 29.7834 17.6606H28.8205V16.6646C28.8205 15.5556 28.774 15.4028 28.4088 15.2767C28.1631 15.1903 28.11 15.1903 27.8908 15.2767Z" fill="white"/>
<path d="M22.5847 24.5405C22.3789 24.6866 22.2328 25.0518 22.2859 25.2842C22.3855 25.6959 22.8437 25.9284 23.2421 25.7624C23.8996 25.4901 23.707 24.4342 22.9964 24.4342C22.857 24.4342 22.671 24.4807 22.5847 24.5405Z" fill="white"/>
</svg>
