<svg width="34" height="34" viewBox="0 0 34 34" fill="none" xmlns="http://www.w3.org/2000/svg">
<g clip-path="url(#clip0_1011_18926)">
<path d="M5.30566 0.092968C4.68809 0.312107 4.14355 0.843357 3.91777 1.43438C3.81152 1.7332 3.78496 1.95234 3.78496 2.68945V3.58594H3.10098C2.70254 3.58594 2.25762 3.62578 2.0252 3.68555C1.09551 3.93125 0.47793 4.6418 0.331836 5.62461C0.245508 6.24219 0.245508 31.4168 0.331836 32.0344C0.458008 32.8711 1.01582 33.5816 1.76621 33.8605C2.13145 34 2.18457 34 14.6623 34H27.1932L27.5916 33.8074C29.4377 32.9242 31.4764 30.4738 32.6318 27.7711C33.2959 26.2105 33.5947 24.9223 33.6479 23.4082C33.6877 22.173 33.6346 21.8941 33.2893 21.509C33.0236 21.2168 32.9307 21.157 29.7697 19.457L27.492 18.2285V12.232C27.492 8.45351 27.4654 6.18906 27.4256 6.10938C27.3791 6.01641 23.74 2.88867 20.765 0.378513L20.3201 0H12.9291C7.06543 0.00664139 5.49824 0.0265617 5.30566 0.092968ZM19.324 3.14101C19.324 5.0668 19.3639 5.33906 19.7357 5.92344C20.008 6.35508 20.3932 6.68711 20.9111 6.93281L21.3494 7.13867L23.7268 7.15859L26.0975 7.17851L26.0842 12.7234L26.0643 18.275L23.4611 19.6828C22.0268 20.4531 20.7252 21.177 20.5658 21.2898C20.3799 21.4227 20.2139 21.6152 20.1143 21.8211C19.9682 22.1199 19.9549 22.2195 19.9615 23.1094C19.9748 25.0152 20.4795 26.848 21.5686 28.9664C21.5818 28.9996 20.1275 29.0195 18.3412 29.0195H15.0873L14.8814 29.1922C14.7088 29.3383 14.6756 29.4113 14.6756 29.6637C14.6756 29.823 14.7088 30.0156 14.7486 30.0953C14.9146 30.4074 15.0342 30.4141 18.8459 30.4141H22.4252L22.8967 31.025C23.1557 31.3637 23.5807 31.8617 23.8463 32.1273L24.3244 32.6055H13.3541C1.23496 32.6055 2.13145 32.6387 1.85918 32.1871C1.72637 31.9813 1.72637 31.7488 1.72637 18.8262C1.72637 5.91016 1.72637 5.67109 1.85918 5.46523C2.08496 5.09336 2.2709 5.02031 3.06777 4.98711L3.78496 4.96719L3.79824 16.8738L3.81816 28.7871L3.99746 29.1191C4.32285 29.7434 4.83418 30.1484 5.4916 30.3145C5.83027 30.4008 6.24199 30.4141 7.7959 30.4008L9.68184 30.3809L9.85449 30.2215C10.1533 29.9426 10.1467 29.3848 9.84121 29.1391C9.76816 29.0727 9.23691 29.0461 7.77598 29.0195C5.59785 28.9797 5.57793 28.9797 5.3123 28.5348C5.17949 28.3289 5.17949 28.0898 5.17949 15.1871C5.17949 0.677341 5.14629 1.79961 5.59785 1.52734C5.80371 1.40117 5.98301 1.39453 12.5705 1.39453H19.324V3.14101ZM22.8502 4.01758L24.8756 5.74414L23.408 5.76406C22.4518 5.77734 21.8541 5.75742 21.6814 5.71094C21.3096 5.59805 21.024 5.36562 20.858 5.02695C20.7318 4.76797 20.7186 4.62187 20.7186 3.49297C20.7186 2.80898 20.7451 2.25781 20.7717 2.27109C20.8049 2.27773 21.7346 3.06797 22.8502 4.01758ZM29.3713 20.8582C30.726 21.5953 31.9412 22.2527 32.0674 22.3324L32.2932 22.4652L32.2533 23.3684C32.2334 23.8863 32.1537 24.5371 32.0807 24.8891C31.41 27.9305 29.3713 31.098 27.2596 32.373C27.0471 32.4992 26.8346 32.6055 26.7947 32.6055C26.6486 32.6055 25.699 31.9281 25.2076 31.4699C23.5807 29.9492 22.133 27.3859 21.6084 25.1016C21.3826 24.1055 21.2697 22.7906 21.3893 22.5516C21.4623 22.3988 22.0201 22.0734 24.1053 20.9445C25.5463 20.1676 26.7682 19.5234 26.8146 19.5234C26.8545 19.5234 28.01 20.1211 29.3713 20.8582Z" fill="white"/>
<path d="M8.06807 5.46525C7.93525 5.5715 7.88213 5.69768 7.85557 5.91682C7.82236 6.18908 7.84229 6.24885 8.02158 6.44807L8.2208 6.67385L12.5306 6.69377C15.6782 6.70705 16.8802 6.68713 17.0196 6.634C17.2786 6.52111 17.3981 6.32189 17.3981 5.98986C17.3981 5.75744 17.3583 5.66447 17.2056 5.5051L17.013 5.31252H12.6235H8.24072L8.06807 5.46525Z" fill="white"/>
<path d="M8.06172 8.85842C7.90234 9.01779 7.83594 9.14397 7.83594 9.29006C7.83594 9.54904 7.99531 9.86779 8.16133 9.96076C8.24766 10.0072 10.718 10.0272 15.6055 10.0272C23.5477 10.0272 23.1891 10.0471 23.3617 9.66193C23.5078 9.34982 23.4613 9.10412 23.2156 8.85842L22.9898 8.63264H15.6387H8.2875L8.06172 8.85842Z" fill="white"/>
<path d="M8.26058 12.046C7.643 12.3183 7.7094 13.1683 8.35354 13.3476C8.68558 13.4405 13.3008 13.4339 13.6328 13.3409C13.9117 13.2679 14.1442 12.9691 14.1442 12.6835C14.1442 12.398 13.9117 12.0991 13.6328 12.0261C13.2344 11.9132 8.51956 11.9331 8.26058 12.046Z" fill="white"/>
<path d="M17.8766 12.0261C17.6309 12.0992 17.3984 12.4179 17.3984 12.6836C17.3984 12.9757 17.6309 13.2679 17.9297 13.3476C18.109 13.3941 18.9988 13.414 20.5859 13.4007C22.8836 13.3808 22.9766 13.3742 23.1559 13.2414C23.5211 12.9691 23.5211 12.398 23.1559 12.1257C22.9699 11.9929 22.8902 11.9863 20.5328 11.973C19.1184 11.9664 18.0027 11.9929 17.8766 12.0261Z" fill="white"/>
<path d="M8.14805 15.4129C7.98867 15.5059 7.83594 15.8246 7.83594 16.077C7.83594 16.223 7.90234 16.3492 8.06172 16.5086L8.2875 16.7344L15.6719 16.7211L23.0563 16.7012L23.2488 16.482C23.468 16.2363 23.4945 15.9707 23.3418 15.6719C23.2887 15.5656 23.1824 15.4461 23.116 15.4062C22.9367 15.3133 8.31406 15.3199 8.14805 15.4129Z" fill="white"/>
<path d="M8.26094 18.7266C8.04844 18.8129 7.83594 19.1184 7.83594 19.3375C7.83594 19.5766 7.99531 19.8953 8.16133 19.9883C8.23437 20.0215 8.7125 20.0547 9.23047 20.0547H10.1734L10.366 19.8621C10.6848 19.5367 10.5918 18.9191 10.1934 18.7398C9.99414 18.6469 8.48008 18.6336 8.26094 18.7266Z" fill="white"/>
<path d="M12.836 18.793C12.4509 19.0254 12.411 19.5965 12.763 19.8887L12.9622 20.0547H15.9837H19.0052L19.1978 19.8621C19.5165 19.5367 19.4235 18.9191 19.0251 18.7398C18.8989 18.6801 18.0622 18.6602 15.9505 18.6602C13.1946 18.6602 13.0353 18.6668 12.836 18.793Z" fill="white"/>
<path d="M8.32061 22.0537C7.65655 22.2463 7.68311 23.1826 8.35382 23.3752C8.51983 23.4283 9.93428 23.4416 12.803 23.4283L17.0132 23.4084L17.2058 23.1893C17.571 22.7842 17.405 22.1932 16.8804 22.0471C16.5683 21.9607 8.61944 21.9674 8.32061 22.0537Z" fill="white"/>
<path d="M11.8801 29.2122C11.7273 29.3715 11.6875 29.4645 11.6875 29.7036C11.6875 30.4274 12.6504 30.6598 12.9824 30.0157C13.1086 29.77 13.1086 29.5973 12.9824 29.3516C12.8563 29.1059 12.6969 29.0196 12.3516 29.0196C12.1324 29.0196 12.0328 29.0594 11.8801 29.2122Z" fill="white"/>
<path d="M28.6078 23.6606C28.5082 23.7005 27.8973 24.2849 27.2531 24.9556L26.0778 26.1708L25.7723 25.8786C25.1879 25.3274 25.0418 25.2345 24.743 25.2345C24.4176 25.2345 24.2184 25.354 24.1055 25.6263C23.9328 26.0446 24.0457 26.2239 24.9289 27.0474C25.7988 27.8575 25.9914 27.9638 26.3567 27.811C26.6555 27.6849 29.5242 24.7032 29.5641 24.4708C29.677 23.8864 29.1258 23.4216 28.6078 23.6606Z" fill="white"/>
</g>
<defs>
<clipPath id="clip0_1011_18926">
<rect width="34" height="34" fill="white"/>
</clipPath>
</defs>
</svg>
