<svg width="60" height="60" viewBox="0 0 60 60" fill="none" xmlns="http://www.w3.org/2000/svg">
<path fill-rule="evenodd" clip-rule="evenodd" d="M29.6139 59.9884C30.0233 50.8291 20.2736 49.6485 15.8541 47.373C11.545 45.1544 8.83415 40.5987 7.73501 35.8563C7.51549 34.9092 7.3982 33.9421 7.14587 33.0696L6.49227 31.4244C6.49216 31.4013 6.50372 31.3415 6.50623 31.3206C6.50894 31.2982 6.53568 31.2313 6.53967 31.213C6.54628 31.1826 6.62129 31.045 6.64893 30.989L5.9223 30.9608C5.65841 35.2388 6.41173 40.0787 8.69421 43.4645C11.3954 47.4716 12.3931 48.5726 17.0989 50.6679C19.4008 51.6929 21.9981 52.9294 22.2493 55.7324C17.963 54.7394 14.81 52.404 11.938 50.1842C11.5891 49.9145 11.3869 49.8454 11.0782 49.5326L8.74247 46.9947C3.5703 40.6144 1.03426 33.3084 2.19273 24.6845C2.65057 21.2766 3.90419 17.6744 5.35873 15.0916C6.21901 13.5641 6.91718 12.5325 7.89093 11.2488C8.35228 10.6405 8.85508 10.0353 9.31271 9.47724C11.3686 6.97015 15.9458 4.11303 18.9326 2.7693C22.0095 1.38505 26.0674 0.660079 29.7854 0.65609C56.0259 0.628006 69.0119 33.8227 46.9013 51.3262C45.0065 52.8262 41.1007 55.0125 38.1741 55.6344C39.2212 50.272 45.0785 51.1463 49.4392 46.1691C53.2562 41.8125 54.2273 37.0566 54.1367 31.4169C54.1363 31.3894 54.1021 30.8635 54.1008 30.8579C53.9585 30.2356 54.1757 30.5783 53.7843 30.1845C53.5302 31.0171 53.1945 31.4748 52.975 32.4434C52.3509 35.1958 52.4281 36.9404 50.9821 40.0263C47.2561 47.9775 40.9788 48.0121 36.2264 50.603C31.6547 53.0953 31.4915 57.0539 30.8583 58.0523L30.8741 60C47.4735 59.1284 60.1516 46.378 59.9986 29.5467C59.8501 13.2036 46.3868 0.119567 29.9733 0.000795318C13.661 -0.117232 0.00991403 12.9155 6.16591e-06 29.7354C-0.0060664 40.0349 4.4742 46.7678 9.59284 51.7791C14.802 56.8791 22.0059 59.9396 29.6139 59.9884Z" fill="#384161"/>
<path fill-rule="evenodd" clip-rule="evenodd" d="M4.44853 36.9715C3.88719 31.751 2.94035 29.5348 4.53935 23.4438C10.3116 1.45532 37.4764 -2.75351 50.198 13.2968C52.3693 16.0361 54.2249 19.0786 55.3542 23.1635C57.0457 29.2818 56.1536 31.5161 55.7082 36.7307C57.4738 33.9835 57.2541 26.3997 56.4412 22.8149C51.5042 1.04299 23.0118 -6.31454 8.47166 12.022C4.78561 16.6704 2.45188 23.7864 2.98542 30.223C3.10495 31.6654 3.5279 34.7119 4.00209 36.1326L4.44853 36.9715Z" fill="#384161"/>
<path fill-rule="evenodd" clip-rule="evenodd" d="M30.8583 58.0523C31.4915 57.0539 31.6547 53.0953 36.2264 50.603C40.9788 48.0121 47.2561 47.9775 50.9821 40.0263C52.4281 36.9404 52.3509 35.1958 52.975 32.4434C53.1945 31.4748 53.5302 31.0171 53.7843 30.1845C51.8322 30.518 51.7064 32.4897 51.3889 34.4124C50.9883 36.8373 50.1717 39.7275 48.4051 41.3899L46.67 43.0246C45.4247 43.9232 43.8655 44.8073 41.9681 45.2313C42.4798 43.4208 47.3208 41.1445 46.0121 38.1274C44.0606 37.8248 43.1603 40.0126 40.9218 41.5997C37.7661 43.8371 33.5034 44.239 31.5484 50.0851C30.9571 51.8531 30.4974 56.2777 30.8583 58.0523Z" fill="#384161"/>
<path fill-rule="evenodd" clip-rule="evenodd" d="M29.6139 59.9884C30.1387 58.5235 29.564 53.0704 29.1605 51.3752C28.5457 48.7921 27.0767 46.6293 25.6321 45.5118C22.579 43.1499 21.8086 43.5116 19.6237 42.1218C18.1844 41.2063 17.5214 40.135 15.9347 38.8667C14.2837 37.547 12.1418 38.971 15.5139 42.3005C15.9229 42.7043 18.0302 44.9205 18.2699 45.4759C14.3117 44.8977 9.64281 40.5771 8.80842 35.5102C8.48188 33.5276 8.41796 31.6072 6.64893 30.989C6.62129 31.045 6.54628 31.1826 6.53967 31.213C6.53568 31.2313 6.50894 31.2982 6.50623 31.3206C6.50372 31.3415 6.49216 31.4013 6.49227 31.4244L7.14587 33.0696C7.3982 33.9421 7.51549 34.9092 7.73501 35.8563C8.83415 40.5987 11.545 45.1544 15.8541 47.373C20.2736 49.6485 30.0233 50.8291 29.6139 59.9884Z" fill="#384161"/>
<path fill-rule="evenodd" clip-rule="evenodd" d="M27.5894 41.7499C27.6292 39.711 28.0863 37.5994 28.8758 35.947C29.5308 34.5764 31.0155 32.5253 31.877 31.7792C31.9302 36.5278 29.0751 38.261 27.5894 41.7499ZM39.6754 20.1379L39.6012 20.1509C38.804 21.2024 38.48 23.1296 36.0515 25.8605C35.2123 26.8043 34.4126 27.2755 33.6186 28.1229C32.7237 29.0782 32.1881 29.669 31.2896 30.4879C28.4607 33.0662 25.617 38.3002 25.9336 44.1838L28.817 47.7111C28.1516 44.1753 27.954 43.4207 29.7362 40.3742C30.8205 38.5207 32.4785 36.7227 33.0256 34.267C33.6898 31.2856 34.7598 30.1095 36.8681 28.7314C37.7194 28.1749 42.2082 25.9379 43.1997 25.9218C40.5548 25.7854 38.3864 26.9218 36.3545 27.6754C37.2431 26.1338 39.8662 23.5503 39.6754 20.1379Z" fill="#384161"/>
<path fill-rule="evenodd" clip-rule="evenodd" d="M23.4764 27.9517C22.1409 27.6763 19.771 26.0555 16.347 26.3089C16.9465 26.8335 19.8709 27.469 23.0217 29.3682C26.5897 31.519 26.2481 33.564 27.1546 34.7859C27.6196 34.2516 29.0867 31.8167 29.2416 31.3336C28.8065 30.9852 28.8726 30.8876 28.473 30.4898C26.0638 28.0912 24.6986 27.3974 22.2992 24.6457C20.5139 22.5985 19.6824 20.2986 18.6008 18.2021C18.1598 17.3472 17.6273 16.6725 17.2639 16.0238C19.156 17.3287 19.5788 19.1305 20.3126 19.3691C21.1006 14.9152 17.9783 12.8601 14.0729 12.3373C14.3033 19.4825 16.7734 19.1085 18.8657 20.1836C19.4544 20.486 19.5116 21.368 19.8268 22.2039C20.5464 24.1124 22.4619 27.512 23.4764 27.9517Z" fill="#384161"/>
<path fill-rule="evenodd" clip-rule="evenodd" d="M39.6012 20.1509L39.6754 20.1379C42.0368 18.7557 44.5519 19.8449 44.8228 11.8622C41.8237 12.1131 38.5949 14.1032 38.6152 17.5404C38.6186 18.1104 38.6447 18.6401 38.9934 19.0372C40.6187 16.7668 39.4253 17.895 41.7764 15.3639C41.5859 16.0198 41.0118 16.8096 40.6613 17.5105C40.2493 18.3344 39.8543 19.2247 39.6012 20.1509Z" fill="#384161"/>
<path fill-rule="evenodd" clip-rule="evenodd" d="M28.7631 14.2734C28.8264 13.5422 28.9462 12.8667 29.0282 12.0985L29.3856 9.98525C29.7055 11.729 29.807 12.2403 29.7282 14.1869C31.982 13.1992 32.4679 9.93057 30.7709 7.17716L29.7228 5.78328C29.6856 5.74397 29.5757 5.631 29.5376 5.59675C29.2745 5.35963 29.5061 5.51526 29.2217 5.36144C28.4555 6.05104 27.1799 8.29462 26.9203 9.60074C26.5058 11.686 27.4241 13.4568 28.7631 14.2734Z" fill="#384161"/>
<path fill-rule="evenodd" clip-rule="evenodd" d="M30.6546 40.0557C31.0508 41.2898 31.6053 42.0952 31.8493 43.6161C32.1332 45.385 31.7596 46.0094 31.4906 47.5654C32.0514 46.8922 32.5663 46.112 33.1245 45.4545C33.9746 44.4532 34.699 44.653 34.5916 42.871C34.4537 40.5834 33.7067 38.367 32.9893 36.4928C32.4737 36.9505 32.2859 37.5704 31.8894 38.2227C31.4607 38.9281 31.1203 39.3978 30.6546 40.0557Z" fill="#384161"/>
<path fill-rule="evenodd" clip-rule="evenodd" d="M44.2198 25.3767C45.4491 25.1216 46.0195 24.8324 47.4788 24.8989L44.412 26.0936L45.1043 26.6339C47.5195 27.7796 50.6048 25.7775 51.2643 24.2426C50.0931 23.7965 48.9991 22.9987 47.2543 23.1071C45.7794 23.1988 44.5351 24.2237 44.2198 25.3767Z" fill="#384161"/>
<path fill-rule="evenodd" clip-rule="evenodd" d="M8.32565 24.9559C8.68952 25.8474 10.2169 26.8411 11.2259 27.278C12.806 27.9621 14.0945 27.5906 15.1997 26.7332L11.9952 25.5214C13.4127 25.4473 14.1901 25.7128 15.4642 25.9237C15.2818 24.946 13.8237 23.8422 12.4934 23.7255C10.7723 23.5745 9.52008 24.504 8.32565 24.9559Z" fill="#384161"/>
<path fill-rule="evenodd" clip-rule="evenodd" d="M26.3645 27.6727C24.2175 20.3593 29.0375 21.2927 30.5696 17.8819C29.6792 18.3263 29.0861 19.0178 28.115 19.2849C28.6646 17.7437 29.4387 17.1648 29.4847 14.9824C29.0452 15.4299 28.5397 16.9528 27.6969 18.2685C26.5308 20.089 24.3061 22.1612 24.2668 24.67C24.2388 26.4516 25.3513 27.0266 26.3645 27.6727Z" fill="#384161"/>
<path fill-rule="evenodd" clip-rule="evenodd" d="M40.149 28.2128C41.6357 28.6638 42.0624 28.9196 43.2446 29.477L39.8138 28.854C40.1251 30.9816 43.5842 32.0722 46.1653 30.6736C45.7476 28.85 42.2506 26.3627 40.149 28.2128Z" fill="#384161"/>
<path fill-rule="evenodd" clip-rule="evenodd" d="M13.6601 31.2366C14.7788 31.8239 16.4748 31.9072 17.6468 31.5134C18.6001 31.1931 19.7695 30.2398 19.8128 29.2324L16.6818 29.8194C17.0085 29.7128 18.9053 28.8336 19.3901 28.5764C17.0152 26.8384 14.0813 29.5476 13.6601 31.2366Z" fill="#384161"/>
<path fill-rule="evenodd" clip-rule="evenodd" d="M29.2243 28.2444C29.2563 26.6842 28.4926 27.0093 28.4604 25.6027C28.4028 23.0956 31.6711 23.0229 31.7909 25.4344C31.8678 26.9792 30.9245 26.927 30.9691 28.0057C33.4774 28.2233 33.974 22.5192 30.1615 22.5447C26.8179 22.5671 26.1578 27.4585 29.2243 28.2444Z" fill="#384161"/>
<path fill-rule="evenodd" clip-rule="evenodd" d="M21.8929 22.3092C22.2498 21.8035 22.0789 20.7362 22.6601 19.9211L22.6014 22.6154C24.9343 21.644 24.9516 18.926 23.535 16.6555C22.0254 17.2293 20.0137 20.2102 21.8929 22.3092Z" fill="#384161"/>
<path fill-rule="evenodd" clip-rule="evenodd" d="M30.9817 16.5263C31.6356 16.0285 31.7268 15.6593 32.6555 15.2169C32.3101 16.0501 31.6588 16.2881 31.4588 17.1214C34.3354 17.1132 35.3982 15.4672 35.5845 12.6523C33.0205 12.6466 30.8103 13.9529 30.9817 16.5263Z" fill="#384161"/>
<path fill-rule="evenodd" clip-rule="evenodd" d="M36.5888 22.4594L36.4011 19.4411C36.9163 20.2882 36.8311 20.5821 37.037 21.3636L37.3022 22.0294C39.0683 19.5579 36.8853 17.0187 35.6109 16.529C33.9888 18.5342 34.5002 21.6154 36.5888 22.4594Z" fill="#384161"/>
<path fill-rule="evenodd" clip-rule="evenodd" d="M48.3942 40.2411C50.5668 37.9373 51.3882 32.8348 50.8323 31.3838C49.1116 31.5912 49.0465 33.3135 48.8984 35.1341C48.7514 36.9404 48.5688 38.5532 48.3942 40.2411Z" fill="#384161"/>
<path fill-rule="evenodd" clip-rule="evenodd" d="M11.8082 40.5534C10.9217 35.6812 11.6269 32.2424 9.09809 32.0048C8.92619 33.6527 9.7493 39.6063 11.8082 40.5534Z" fill="#384161"/>
<path fill-rule="evenodd" clip-rule="evenodd" d="M27.056 17.2537C26.8193 16.4393 26.3535 16.047 25.9721 15.3006C26.4511 15.5473 26.353 15.4787 26.7369 15.8853C26.9117 16.0704 26.9432 16.1479 27.0972 16.292C27.4827 16.6525 27.1297 16.4071 27.6134 16.6883C27.6182 14.0925 26.0248 13.1159 23.584 12.865C23.5708 15.0806 24.8028 17.3751 27.056 17.2537Z" fill="#384161"/>
<path fill-rule="evenodd" clip-rule="evenodd" d="M13.9983 22.2406C13.6173 21.3203 13.3555 21.6029 12.8393 20.8882L14.3451 21.7347C14.1749 19.4582 12.5174 19.0253 10.261 19.0935C10.1509 21.0651 11.9421 22.4918 13.9983 22.2406Z" fill="#384161"/>
<path fill-rule="evenodd" clip-rule="evenodd" d="M19.698 34.3023C21.9867 33.9778 23.3785 33.4986 23.5055 31.1114C22.9624 31.2161 21.9979 31.9138 21.6205 32.2784C21.8464 32.0352 21.9265 31.8393 22.2011 31.5634C22.373 31.3908 22.4758 31.3345 22.6088 31.2079L23.136 30.595C20.7379 30.6862 19.8609 31.9303 19.698 34.3023Z" fill="#384161"/>
<path fill-rule="evenodd" clip-rule="evenodd" d="M37.897 31.8385L36.3049 30.8866C36.5921 33.1917 37.7559 33.7693 40.1093 34.0077C40.1875 31.8214 38.9085 30.3267 36.709 30.4333C37.2357 31.1829 37.4526 30.8692 37.897 31.8385Z" fill="#384161"/>
<path fill-rule="evenodd" clip-rule="evenodd" d="M36.7696 12.8928C37.4845 12.5507 37.1607 12.2604 38.2279 11.4075L37.2217 13.2084C39.5556 13.0484 40.0714 11.5207 40.1167 9.26724C37.9421 9.44676 36.6619 10.6066 36.7696 12.8928Z" fill="#384161"/>
<path fill-rule="evenodd" clip-rule="evenodd" d="M45.126 20.8935L46.8493 19.935C46.4612 20.4446 45.7937 20.8283 45.5421 21.4458C47.7199 21.6561 48.9907 20.3662 49.1313 18.3389C47.04 18.2605 45.2363 18.71 45.126 20.8935Z" fill="#384161"/>
<path fill-rule="evenodd" clip-rule="evenodd" d="M21.3843 13.5442C21.1836 12.6026 20.9829 12.461 20.59 11.7492C21.1624 12.1728 21.3723 12.7052 21.8854 13.2017C22.4853 10.9328 20.7172 9.86105 18.7455 9.52979C18.8754 11.7955 19.1924 13.1632 21.3843 13.5442Z" fill="#384161"/>
<path fill-rule="evenodd" clip-rule="evenodd" d="M18.4751 25.3906C18.3064 24.8509 17.8897 24.3442 17.6127 23.8144C17.9329 24.2195 18.2854 24.806 18.9125 25.0845C18.9261 22.9728 17.8539 22.0264 15.8316 21.7822C15.9384 23.7722 16.5022 25.2974 18.4751 25.3906Z" fill="#384161"/>
<path fill-rule="evenodd" clip-rule="evenodd" d="M40.7391 24.4321C41.3754 24.2174 41.2915 23.9169 41.8238 23.5187L41.1974 24.8879C43.1447 24.754 43.7085 23.203 43.6618 21.2926C41.9351 21.3817 40.5081 22.5456 40.7391 24.4321Z" fill="#384161"/>
<path fill-rule="evenodd" clip-rule="evenodd" d="M33.5554 10.6545C34.1844 10.3002 33.9622 10.0318 34.4806 9.48074L34.188 10.8842C35.7837 10.6409 36.355 8.57078 35.423 7.16073C34.0375 7.68869 33.3349 8.76221 33.5554 10.6545Z" fill="#384161"/>
<path fill-rule="evenodd" clip-rule="evenodd" d="M24.4272 11.0547L24.1729 9.50877L24.8286 10.9014C25.7444 9.30985 24.7047 7.97022 23.3962 7.32854C23.3106 7.45167 23.2581 7.48322 23.1627 7.72752C22.7042 8.90157 22.7983 10.439 24.4272 11.0547Z" fill="#384161"/>
</svg>
