<svg width="155" height="24" viewBox="0 0 155 24" fill="none" xmlns="http://www.w3.org/2000/svg">
<g clip-path="url(#clip0_969_9138)">
<path d="M8.68015 7.77652H2.76408V17.9568H0V5.16992H11.4442V17.9568H8.68015V7.77652Z" fill="#FC5C42"/>
<path d="M14.1338 5.17008H16.8979V6.57172C17.4636 6.03074 18.0698 5.61271 18.7163 5.31762C19.3629 5.02254 20.0903 4.875 20.8985 4.875C21.8037 4.875 22.6362 5.04713 23.3959 5.39139C24.1718 5.71926 24.8345 6.18647 25.3841 6.79303C25.9336 7.38319 26.362 8.08815 26.6692 8.90775C26.9763 9.71107 27.1298 10.5881 27.1298 11.5389C27.1298 12.5225 26.9601 13.4242 26.6207 14.2439C26.2974 15.0471 25.8528 15.7438 25.2871 16.334C24.7214 16.9078 24.0425 17.3586 23.2504 17.6865C22.4746 18.0143 21.6421 18.1783 20.753 18.1783C19.961 18.1783 19.2497 18.0553 18.6193 17.8094C17.9889 17.5635 17.4151 17.2193 16.8979 16.7767V22.875H14.1338V5.17008ZM20.3409 15.5717C20.8905 15.5717 21.3996 15.4816 21.8684 15.3012C22.3533 15.1209 22.7736 14.8586 23.1292 14.5144C23.4848 14.1537 23.7596 13.7275 23.9536 13.2356C24.1637 12.7274 24.2688 12.1537 24.2688 11.5144C24.2688 10.9242 24.1799 10.3832 24.002 9.89138C23.8242 9.38318 23.5656 8.95695 23.2262 8.6127C22.9029 8.25202 22.5149 7.97333 22.0623 7.77668C21.6097 7.57995 21.1086 7.48156 20.5591 7.48156C19.7185 7.48156 18.975 7.68645 18.3284 8.09633C17.698 8.50613 17.2212 8.99797 16.8979 9.57172V13.457C17.2212 14.1455 17.6818 14.6701 18.2799 15.0308C18.878 15.3914 19.565 15.5717 20.3409 15.5717Z" fill="#FC5C42"/>
<path d="M28.5664 11.5389C28.5664 10.5717 28.7281 9.68648 29.0513 8.88323C29.3746 8.06355 29.8353 7.3586 30.4334 6.76844C31.0315 6.17827 31.7427 5.71926 32.5671 5.39139C33.3915 5.04713 34.3047 4.875 35.3069 4.875C36.2929 4.875 37.1981 5.04713 38.0225 5.39139C38.8631 5.71926 39.5823 6.17827 40.1804 6.76844C40.7785 7.3586 41.2392 8.06355 41.5625 8.88323C41.9019 9.68648 42.0716 10.5717 42.0716 11.5389C42.0716 12.5062 41.9019 13.3996 41.5625 14.2192C41.2392 15.0226 40.7785 15.7192 40.1804 16.3094C39.5823 16.8996 38.8631 17.3586 38.0225 17.6865C37.1981 18.0143 36.2929 18.1783 35.3069 18.1783C34.3209 18.1783 33.4157 18.0143 32.5913 17.6865C31.7669 17.3586 31.0557 16.8996 30.4576 16.3094C29.8596 15.7192 29.3908 15.0226 29.0513 14.2192C28.7281 13.3996 28.5664 12.5062 28.5664 11.5389ZM31.4275 11.5389C31.4275 12.1127 31.5164 12.6455 31.6942 13.1373C31.8882 13.6291 32.1549 14.0553 32.4943 14.416C32.8338 14.7767 33.2379 15.0635 33.7067 15.2767C34.1916 15.4733 34.725 15.5717 35.3069 15.5717C35.8888 15.5717 36.4141 15.4816 36.8829 15.3012C37.3678 15.1045 37.7801 14.834 38.1195 14.4898C38.459 14.1291 38.7256 13.7029 38.9196 13.2111C39.1136 12.7192 39.2106 12.1618 39.2106 11.5389C39.2106 10.9159 39.1055 10.3586 38.8954 9.86677C38.7014 9.35857 38.4266 8.93235 38.071 8.5881C37.7154 8.22742 37.3032 7.95698 36.8344 7.77668C36.3656 7.57995 35.8565 7.48156 35.3069 7.48156C34.7573 7.48156 34.2401 7.57995 33.7551 7.77668C33.2864 7.95698 32.8742 8.22742 32.5186 8.5881C32.1792 8.93235 31.9124 9.35857 31.7184 9.86677C31.5245 10.3586 31.4275 10.9159 31.4275 11.5389Z" fill="#FC5C42"/>
<path d="M42.8096 15.3502H44.2692C44.8369 14.6125 45.218 13.7683 45.4127 12.8175C45.6073 11.8666 45.7046 10.7929 45.7046 9.59617V5.16992H55.8737V15.3502H57.6496V20.8831H55.0709V17.9568H45.3883V20.8831H42.8096V15.3502ZM53.1003 15.3502V7.77652H48.332V11.047C48.332 11.8339 48.2266 12.6208 48.0157 13.4076C47.8049 14.1781 47.513 14.8257 47.14 15.3502H53.1003Z" fill="#5088FC"/>
<path d="M58.2124 11.5389C58.2124 10.5717 58.3746 9.68648 58.699 8.88323C59.0233 8.06355 59.4855 7.3586 60.0856 6.76844C60.6857 6.17827 61.3994 5.71926 62.2265 5.39139C63.0536 5.04713 63.97 4.875 64.9756 4.875C65.9648 4.875 66.8731 5.04713 67.7002 5.39139C68.5437 5.71926 69.2654 6.17827 69.8655 6.76844C70.4655 7.3586 70.9278 8.06355 71.2521 8.88323C71.5927 9.68648 71.763 10.5717 71.763 11.5389C71.763 12.5062 71.5927 13.3996 71.2521 14.2192C70.9278 15.0226 70.4655 15.7192 69.8655 16.3094C69.2654 16.8996 68.5437 17.3586 67.7002 17.6865C66.8731 18.0143 65.9648 18.1783 64.9756 18.1783C63.9862 18.1783 63.0779 18.0143 62.2508 17.6865C61.4236 17.3586 60.71 16.8996 60.11 16.3094C59.5098 15.7192 59.0395 15.0226 58.699 14.2192C58.3746 13.3996 58.2124 12.5062 58.2124 11.5389ZM61.0831 11.5389C61.0831 12.1127 61.1722 12.6455 61.3506 13.1373C61.5453 13.6291 61.8129 14.0553 62.1535 14.416C62.4941 14.7767 62.8995 15.0635 63.3699 15.2767C63.8565 15.4733 64.3917 15.5717 64.9756 15.5717C65.5594 15.5717 66.0865 15.4816 66.5569 15.3012C67.0434 15.1045 67.457 14.834 67.7976 14.4898C68.1382 14.1291 68.4058 13.7029 68.6004 13.2111C68.795 12.7192 68.8923 12.1618 68.8923 11.5389C68.8923 10.9159 68.7869 10.3586 68.5761 9.86677C68.3814 9.35857 68.1058 8.93235 67.7489 8.5881C67.3921 8.22742 66.9785 7.95698 66.5082 7.77668C66.0378 7.57995 65.527 7.48156 64.9756 7.48156C64.4241 7.48156 63.9051 7.57995 63.4186 7.77668C62.9482 7.95698 62.5346 8.22742 62.1778 8.5881C61.8373 8.93235 61.5696 9.35857 61.375 9.86677C61.1804 10.3586 61.0831 10.9159 61.0831 11.5389Z" fill="#5088FC"/>
<path d="M73.4795 5.16992H76.2528V10.3585L81.7265 5.16992H85.3513L79.1963 10.9486L85.5705 17.9568H82.0188L77.1776 12.6945L76.2528 13.6043V17.9568H73.4795V5.16992Z" fill="#5088FC"/>
<path d="M86.4458 5.16992H98.3668V7.77652H93.7928V17.9568H91.0198V7.77652H86.4458V5.16992Z" fill="#5088FC"/>
<path d="M98.9727 11.5389C98.9727 10.5717 99.135 9.68648 99.4598 8.88323C99.7838 8.06355 100.246 7.3586 100.846 6.76844C101.446 6.17827 102.16 5.71926 102.987 5.39139C103.814 5.04713 104.731 4.875 105.736 4.875C106.726 4.875 107.633 5.04713 108.461 5.39139C109.305 5.71926 110.026 6.17827 110.626 6.76844C111.226 7.3586 111.689 8.06355 112.013 8.88323C112.354 9.68648 112.523 10.5717 112.523 11.5389C112.523 12.5062 112.354 13.3996 112.013 14.2192C111.689 15.0226 111.226 15.7192 110.626 16.3094C110.026 16.8996 109.305 17.3586 108.461 17.6865C107.633 18.0143 106.726 18.1783 105.736 18.1783C104.747 18.1783 103.838 18.0143 103.012 17.6865C102.184 17.3586 101.47 16.8996 100.87 16.3094C100.27 15.7192 99.8001 15.0226 99.4598 14.2192C99.135 13.3996 98.9727 12.5062 98.9727 11.5389ZM101.844 11.5389C101.844 12.1127 101.933 12.6455 102.111 13.1373C102.306 13.6291 102.573 14.0553 102.914 14.416C103.254 14.7767 103.66 15.0635 104.13 15.2767C104.617 15.4733 105.152 15.5717 105.736 15.5717C106.32 15.5717 106.847 15.4816 107.318 15.3012C107.804 15.1045 108.217 14.834 108.558 14.4898C108.899 14.1291 109.166 13.7029 109.361 13.2111C109.555 12.7192 109.653 12.1618 109.653 11.5389C109.653 10.9159 109.547 10.3586 109.336 9.86677C109.142 9.35857 108.866 8.93235 108.51 8.5881C108.152 8.22742 107.739 7.95698 107.269 7.77668C106.799 7.57995 106.287 7.48156 105.736 7.48156C105.184 7.48156 104.666 7.57995 104.179 7.77668C103.709 7.95698 103.295 8.22742 102.938 8.5881C102.597 8.93235 102.33 9.35857 102.135 9.86677C101.941 10.3586 101.844 10.9159 101.844 11.5389Z" fill="#5088FC"/>
<path d="M114.218 5.17008H116.991V6.57172C117.558 6.03074 118.167 5.61271 118.815 5.31762C119.464 5.02254 120.194 4.875 121.005 4.875C121.913 4.875 122.749 5.04713 123.511 5.39139C124.289 5.71926 124.954 6.18647 125.505 6.79303C126.057 7.38319 126.487 8.08815 126.795 8.90775C127.103 9.71107 127.257 10.5881 127.257 11.5389C127.257 12.5225 127.087 13.4242 126.746 14.2439C126.422 15.0471 125.976 15.7438 125.408 16.334C124.84 16.9078 124.159 17.3586 123.365 17.6865C122.586 18.0143 121.751 18.1783 120.859 18.1783C120.064 18.1783 119.35 18.0553 118.718 17.8094C118.085 17.5635 117.51 17.2193 116.991 16.7767V22.875H114.218V5.17008ZM120.446 15.5717C120.997 15.5717 121.508 15.4816 121.978 15.3012C122.465 15.1209 122.887 14.8586 123.243 14.5144C123.6 14.1537 123.876 13.7275 124.071 13.2356C124.281 12.7274 124.387 12.1537 124.387 11.5144C124.387 10.9242 124.297 10.3832 124.119 9.89138C123.941 9.38318 123.681 8.95695 123.341 8.6127C123.016 8.25202 122.627 7.97333 122.173 7.77668C121.718 7.57995 121.216 7.48156 120.664 7.48156C119.821 7.48156 119.075 7.68645 118.426 8.09633C117.794 8.50613 117.316 8.99797 116.991 9.57172V13.457C117.316 14.1455 117.778 14.6701 118.378 15.0308C118.978 15.3914 119.667 15.5717 120.446 15.5717Z" fill="#5088FC"/>
<path d="M128.633 11.5389C128.633 10.5717 128.795 9.68648 129.119 8.88323C129.444 8.06355 129.906 7.3586 130.506 6.76844C131.106 6.17827 131.82 5.71926 132.647 5.39139C133.474 5.04713 134.391 4.875 135.396 4.875C136.385 4.875 137.294 5.04713 138.121 5.39139C138.964 5.71926 139.686 6.17827 140.286 6.76844C140.886 7.3586 141.348 8.06355 141.673 8.88323C142.013 9.68648 142.184 10.5717 142.184 11.5389C142.184 12.5062 142.013 13.3996 141.673 14.2192C141.348 15.0226 140.886 15.7192 140.286 16.3094C139.686 16.8996 138.964 17.3586 138.121 17.6865C137.294 18.0143 136.385 18.1783 135.396 18.1783C134.407 18.1783 133.498 18.0143 132.671 17.6865C131.844 17.3586 131.131 16.8996 130.53 16.3094C129.93 15.7192 129.46 15.0226 129.119 14.2192C128.795 13.3996 128.633 12.5062 128.633 11.5389ZM131.503 11.5389C131.503 12.1127 131.593 12.6455 131.771 13.1373C131.966 13.6291 132.233 14.0553 132.574 14.416C132.915 14.7767 133.32 15.0635 133.791 15.2767C134.277 15.4733 134.812 15.5717 135.396 15.5717C135.98 15.5717 136.507 15.4816 136.977 15.3012C137.464 15.1045 137.877 14.834 138.218 14.4898C138.559 14.1291 138.826 13.7029 139.021 13.2111C139.216 12.7192 139.313 12.1618 139.313 11.5389C139.313 10.9159 139.208 10.3586 138.996 9.86677C138.802 9.35857 138.526 8.93235 138.169 8.5881C137.813 8.22742 137.399 7.95698 136.928 7.77668C136.458 7.57995 135.947 7.48156 135.396 7.48156C134.845 7.48156 134.326 7.57995 133.839 7.77668C133.368 7.95698 132.955 8.22742 132.599 8.5881C132.258 8.93235 131.99 9.35857 131.796 9.86677C131.601 10.3586 131.503 10.9159 131.503 11.5389Z" fill="#5088FC"/>
<path d="M143.906 5.16992H149.307C151.075 5.16992 152.405 5.42402 153.297 5.93222C154.189 6.44041 154.635 7.31746 154.635 8.56334C154.635 9.15352 154.505 9.65354 154.245 10.0633C153.986 10.4732 153.645 10.8421 153.224 11.1699C153.824 11.3995 154.27 11.7847 154.562 12.3256C154.854 12.8503 155 13.4568 155 14.1454C155 15.424 154.554 16.3831 153.662 17.0224C152.77 17.6453 151.513 17.9568 149.891 17.9568H143.906V5.16992ZM146.68 12.6699V15.424H149.624C150.45 15.424 151.075 15.3175 151.497 15.1043C151.918 14.8912 152.129 14.547 152.129 14.0716C152.129 13.5634 151.926 13.2027 151.521 12.9896C151.131 12.7765 150.523 12.6699 149.697 12.6699H146.68ZM146.68 7.70272V10.2355H149.939C150.507 10.2355 150.954 10.129 151.278 9.91582C151.602 9.70274 151.764 9.37484 151.764 8.93219C151.764 8.40764 151.546 8.07157 151.107 7.92404C150.686 7.77652 150.061 7.70272 149.234 7.70272H146.68Z" fill="#5088FC"/>
</g>
<defs>
<clipPath id="clip0_969_9138">
<rect width="155" height="24" fill="white"/>
</clipPath>
</defs>
</svg>
