<svg width="30" height="30" viewBox="0 0 30 30" fill="none" xmlns="http://www.w3.org/2000/svg">
<path d="M13.7988 0.075987C12.0234 0.468697 10.5234 1.62338 9.72656 3.20007C9.56836 3.51072 9.43359 3.69828 9.26367 3.82137C8.94727 4.05583 8.49024 4.61851 8.27344 5.05811C7.91016 5.77905 7.78711 6.62308 7.93359 7.41436L8.01562 7.89499L7.79297 8.28184C7.59375 8.6218 7.38867 9.1669 7.30078 9.60064C7.27734 9.712 7.21875 9.77062 7.10742 9.79992C6.82031 9.8644 5.86523 10.345 5.4375 10.6264C4.35352 11.3532 3.41016 12.5899 2.9707 13.8735C2.6543 14.7938 2.63086 15.1161 2.64844 17.7244C2.67187 20.0631 2.67188 20.1217 2.80664 20.491C2.88281 20.6961 3.07031 21.0478 3.22266 21.2764L3.50391 21.6925L3.05273 21.8449C2.50781 22.0325 2.30273 22.138 1.83398 22.4662C1.04883 23.0231 0.357422 24.0371 0.117188 24.9866C0.0117188 25.3969 0 25.6372 0 27.5597V29.6815L0.152344 29.8398L0.310547 29.9922H18.5215L18.6621 29.8515C18.9258 29.5877 18.9258 29.2243 18.6621 28.9606L18.5215 28.8199H12.9375L12.9609 27.1905C12.9844 25.7251 13.002 25.5317 13.1133 25.1859C13.4824 24.0664 14.3496 23.2399 15.4453 22.9586C15.8379 22.8589 16.0957 22.8414 17.3262 22.8414C18.5566 22.8414 18.75 22.8531 18.75 22.9293C18.75 23.0993 19.002 23.5506 19.2598 23.8378C19.7695 24.4063 20.6602 24.6701 21.4395 24.4825C22.0781 24.3301 22.7344 23.7381 22.957 23.1227L23.0566 22.8414H24.4629C26.0566 22.8414 26.3438 22.8883 27.0293 23.2282C27.5684 23.5037 28.1543 24.084 28.4121 24.6115C28.752 25.2914 28.7754 25.4848 28.8105 27.2198L28.8398 28.8199H23.25L23.0801 28.9899C22.8398 29.2302 22.8398 29.5819 23.0801 29.8222L23.25 29.9922H29.6895L29.8477 29.8398L30 29.6815V27.5597C30 25.6548 29.9883 25.391 29.8887 24.9983C29.6836 24.1953 29.1797 23.3572 28.5703 22.7945C28.2891 22.5307 27.6621 22.1087 27.4746 22.0501C27.3691 22.0149 27.3633 21.9036 27.3633 18.6388C27.3633 15.462 27.3574 15.2334 27.2402 14.6765C26.8477 12.7482 25.582 11.0836 23.8301 10.2102C23.4844 10.0344 23.0977 9.85854 22.9688 9.82337C22.7871 9.77062 22.7227 9.71786 22.6992 9.60064C22.6113 9.1669 22.4063 8.6218 22.207 8.28184L21.9844 7.89499L22.0664 7.41436C22.3066 6.09557 21.7559 4.60679 20.7539 3.83896C20.5723 3.69828 20.4258 3.50486 20.2383 3.14146C19.5059 1.72302 18.1875 0.650399 16.6113 0.181493C16.1543 0.0466804 15.9551 0.0232357 15.1465 0.0056531C14.4551 -0.0119329 14.1035 0.0115117 13.7988 0.075987ZM16.0137 1.30686C17.4316 1.62338 18.6621 2.64911 19.2949 4.03824C19.4473 4.36647 19.5469 4.50715 19.6992 4.60093C20.0156 4.80021 20.4727 5.31601 20.6367 5.66769C20.9473 6.3183 20.9707 6.99235 20.7129 7.72501C20.6016 8.03566 20.6426 8.23495 20.8711 8.52215C21.0176 8.70972 21.3867 9.36032 21.3867 9.43652C21.3867 9.44824 21.0645 9.47755 20.6719 9.50099C19.916 9.53616 19.166 9.67683 18.6445 9.87612C18.4512 9.95232 18.3398 9.9699 18.3633 9.92887C18.7734 9.00278 18.8203 8.69213 18.7969 7.20336L18.7793 6.00765L18.6152 5.86697C18.4512 5.7263 18.4277 5.7263 17.3438 5.7263C16.7344 5.7263 16.1016 5.697 15.9434 5.66183C15.3633 5.53874 14.9297 5.0757 14.8184 4.46026C14.7832 4.27269 14.7187 4.03238 14.6777 3.93274C14.5312 3.58106 13.9922 3.52245 13.7051 3.82723C13.582 3.96204 13.5645 4.02652 13.5762 4.39578C13.5762 4.63023 13.623 4.92916 13.6699 5.06397C13.752 5.2867 13.752 5.31601 13.6641 5.39221C13.3828 5.63838 13.166 5.69113 12.3223 5.7263C11.1562 5.76733 11.2266 5.67941 11.2031 7.20922C11.1797 8.69213 11.2266 9.00278 11.6367 9.92887C11.6602 9.9699 11.5488 9.95232 11.3555 9.87612C10.834 9.67683 10.084 9.53616 9.33398 9.50099C8.93555 9.47755 8.61328 9.44824 8.61328 9.43652C8.61328 9.36032 8.98242 8.70972 9.12891 8.52215C9.35742 8.23495 9.39844 8.03566 9.28711 7.72501C9.0293 6.99235 9.05273 6.3183 9.36328 5.66769C9.52734 5.31601 9.98438 4.80021 10.2949 4.60679C10.4473 4.51301 10.5586 4.34889 10.752 3.94446C10.8926 3.65139 11.1504 3.22938 11.3145 3.00665C11.8945 2.24468 12.8965 1.58821 13.8867 1.33617C14.4492 1.18964 15.4219 1.17792 16.0137 1.30686ZM15.0879 6.66411C15.5098 6.86926 16.0313 6.95718 16.9219 6.95718H17.5781V7.67812C17.5781 8.13531 17.543 8.52215 17.4902 8.74488C17.2383 9.71786 16.4121 10.4681 15.3926 10.6557C14.1563 10.8843 12.8379 10.0109 12.5098 8.74488C12.457 8.52801 12.4219 8.13531 12.4219 7.68398V6.97476L12.8848 6.93373C13.4824 6.88684 13.8691 6.76962 14.2207 6.52344C14.4727 6.3476 14.5137 6.33588 14.6191 6.41208C14.6836 6.45311 14.8945 6.57033 15.0879 6.66411ZM10.3828 10.8784C12.3164 11.3766 13.8223 12.9357 14.2734 14.911C14.3906 15.4444 14.4609 18.7795 14.3613 19.5004C14.2441 20.3972 13.793 21.0302 13.0254 21.3878C12.6797 21.5519 12.5566 21.5753 12 21.5988L11.3672 21.6281V20.8075L11.6602 20.5613C12.0059 20.2741 12.4277 19.6997 12.6211 19.2601C12.8848 18.6564 12.9492 18.1933 12.9492 16.9097C12.9492 15.8312 12.9375 15.7023 12.832 15.5323C12.7676 15.4268 12.6562 15.3271 12.5859 15.3154C12.5098 15.2978 11.9004 15.2744 11.2207 15.2685C9.83203 15.2451 9.71484 15.2158 9.30469 14.7645C9.01172 14.4421 8.97656 14.3542 8.91211 13.8911C8.85938 13.5512 8.82422 13.4691 8.66602 13.3226C8.50195 13.176 8.44336 13.1585 8.20898 13.1878C7.69922 13.2464 7.54688 13.7036 7.76367 14.5183C7.81055 14.6941 7.85156 14.8582 7.85156 14.8817C7.85156 14.9051 7.72852 14.9989 7.57617 15.0868C7.3125 15.2392 7.24219 15.251 6.47461 15.2803C5.58398 15.3096 5.44922 15.3506 5.33203 15.6261C5.2207 15.9074 5.28516 18.3164 5.41992 18.7384C5.6543 19.477 6.1582 20.2507 6.64453 20.6199L6.9082 20.8192L6.91406 21.2119V21.6105H6.39258C5.26758 21.6105 4.48828 21.1474 4.05469 20.2214L3.89648 19.8814V17.4783C3.89648 14.7352 3.89648 14.7527 4.39453 13.7153C5.32031 11.8045 7.23047 10.6498 9.31641 10.7377C9.65625 10.7495 10.1367 10.8139 10.3828 10.8784ZM22.1484 10.8843C23.6016 11.2359 24.9023 12.2851 25.5762 13.6567C26.1152 14.7527 26.0977 14.571 26.1211 18.3106L26.1387 21.6105H23.0859V21.2119L23.0918 20.8192L23.3555 20.6199C23.9355 20.1803 24.4805 19.2484 24.6387 18.4219C24.7617 17.7889 24.7617 15.8136 24.6387 15.5792C24.5156 15.3389 24.3223 15.2861 23.4668 15.2685C22.752 15.251 22.6875 15.2392 22.4297 15.0868C22.2715 14.9989 22.1484 14.8934 22.1484 14.8524C22.1484 14.8114 22.1895 14.6531 22.2363 14.4948C22.2832 14.3366 22.3242 14.0552 22.3242 13.8677C22.3242 13.4222 22.1719 13.2288 21.791 13.1878C21.5566 13.1585 21.498 13.176 21.334 13.3226C21.1758 13.4691 21.1406 13.5512 21.0879 13.8911C21.0234 14.3542 20.9883 14.4421 20.6953 14.7645C20.2852 15.2158 20.168 15.2451 18.7793 15.2685C18.1055 15.2744 17.4902 15.2978 17.4141 15.3154C17.3438 15.3271 17.2324 15.4268 17.168 15.5323C17.0625 15.7023 17.0508 15.8312 17.0508 16.9097C17.0508 18.1933 17.1152 18.6564 17.3789 19.2601C17.5723 19.6997 17.9941 20.2741 18.3398 20.5613L18.6328 20.8075V21.6105H15.5742L15.6035 18.4571C15.6328 15.0693 15.6387 15.0048 15.9668 14.1314C16.623 12.3848 18.2578 11.066 20.127 10.767C20.6309 10.6908 21.5684 10.7436 22.1484 10.8843ZM15 11.91C15.3047 11.91 15.627 11.8866 15.7207 11.8631C15.8789 11.8221 15.8789 11.8221 15.627 12.162C15.4922 12.3496 15.2988 12.6544 15.2051 12.8361C15.1055 13.0178 15.0176 13.1702 15 13.1702C14.9824 13.1702 14.8945 13.0178 14.7949 12.8361C14.7012 12.6544 14.5078 12.3496 14.373 12.162C14.1211 11.8221 14.1211 11.8221 14.2793 11.8631C14.373 11.8866 14.6953 11.91 15 11.91ZM9.47461 16.347C9.75 16.4467 9.99609 16.476 10.7695 16.4994L11.7188 16.5229V17.2379C11.7188 17.994 11.6367 18.4395 11.4199 18.8732C10.7402 20.1979 9.04102 20.6785 7.76367 19.9048C7.47656 19.729 7.00195 19.2249 6.83789 18.9201C6.60938 18.4981 6.50391 17.9765 6.50391 17.2086V16.5287L6.99023 16.4994C7.53516 16.4642 8.02148 16.306 8.38477 16.0598L8.63672 15.884L8.88281 16.054C9.02344 16.1477 9.28711 16.2767 9.47461 16.347ZM22.1953 16.347C22.377 16.4115 22.7461 16.4818 23.0156 16.4994L23.4961 16.5287V17.2086C23.4961 18.334 23.291 18.926 22.7109 19.5004C22.3477 19.858 22.1367 19.9928 21.668 20.151C20.4961 20.5437 19.1484 19.9869 18.5801 18.8732C18.3633 18.4395 18.2812 17.994 18.2812 17.2379V16.5229L19.2363 16.4936C20.2793 16.4642 20.6602 16.3763 21.123 16.0481L21.3574 15.884L21.6094 16.0598C21.75 16.1536 22.0137 16.2825 22.1953 16.347ZM10.125 21.9739C10.0957 22.6597 10.0137 22.8648 9.69727 23.111C9.26953 23.4334 8.625 23.3279 8.30859 22.8883C8.19141 22.7183 8.17383 22.6128 8.15625 22.0735L8.13281 21.4522L8.88867 21.4757C9.50977 21.4991 9.76172 21.4815 10.1309 21.3819C10.1426 21.376 10.1426 21.6457 10.125 21.9739ZM21.1113 21.4815L21.8672 21.4522L21.8438 22.0735C21.8262 22.6128 21.8086 22.7183 21.6914 22.8883C21.375 23.3279 20.7305 23.4334 20.3027 23.111C19.9863 22.8648 19.9043 22.6597 19.875 21.9798L19.8457 21.3878L20.1035 21.4464C20.2441 21.4757 20.7012 21.4933 21.1113 21.4815ZM7.04883 23.1344C7.18945 23.5213 7.4707 23.8788 7.85156 24.1484C8.69531 24.7346 9.86719 24.6584 10.623 23.9609C10.8809 23.7206 11.25 23.1168 11.25 22.9351C11.25 22.8531 11.3672 22.8414 12.1934 22.8414H13.1367L12.8555 23.1579C12.293 23.7733 11.9063 24.6291 11.7832 25.5024C11.748 25.7544 11.7188 26.5985 11.7188 27.3898V28.8199H1.16016L1.18945 27.2256C1.22461 25.4848 1.24805 25.2914 1.58789 24.6115C1.8457 24.084 2.43164 23.5037 2.97656 23.2282C3.65039 22.8883 3.89648 22.8531 5.50781 22.8472L6.94336 22.8414L7.04883 23.1344Z" fill="white"/>
<path d="M20.4434 28.9899C20.3086 29.1247 20.2734 29.2126 20.2734 29.406C20.2734 30.0977 21.3105 30.2325 21.4805 29.5584C21.498 29.4764 21.498 29.3357 21.4805 29.2537C21.3691 28.8082 20.7773 28.6558 20.4434 28.9899Z" fill="white"/>
</svg>
