<svg width="32" height="34" viewBox="0 0 32 34" fill="none" xmlns="http://www.w3.org/2000/svg">
<path d="M11.5215 0.0938701C7.05898 0.804418 3.55938 4.29739 2.82227 8.77981C2.76914 9.1052 2.70938 9.94856 2.68281 10.6591L2.63633 11.9474H2.19141C1.95234 11.9474 1.60039 12.0005 1.42109 12.0603C0.962891 12.213 0.405078 12.7841 0.192578 13.3087C0.0332031 13.7005 0.0332031 13.7271 0.0332031 16.0513V18.4021L0.219141 18.5615C0.498047 18.8005 0.942969 18.7872 1.20195 18.5282L1.39453 18.3357V16.2837C1.39453 14.0724 1.42109 13.8333 1.72656 13.5279L1.9125 13.3419H24.3512L24.5371 13.488C24.9023 13.7736 24.9023 13.7603 24.9023 17.7115V21.3505L22.9301 22.4064C20.5727 23.6747 20.4598 23.7478 20.2539 24.113C20.1012 24.3786 20.0879 24.4583 20.0945 25.295C20.0945 26.6896 20.4066 27.9513 21.1039 29.4388L21.4426 30.1427H1.9125L1.72656 29.9568C1.62695 29.8505 1.50742 29.6513 1.46758 29.5052C1.42109 29.3392 1.39453 28.29 1.39453 26.5435C1.39453 24.7439 1.36797 23.7876 1.32148 23.6814C1.22852 23.4755 0.929688 23.3029 0.664062 23.3029C0.511328 23.3029 0.385156 23.3693 0.225781 23.5286L0 23.7544V26.6365C0 29.731 0.0199219 29.9236 0.351953 30.4947C0.584375 30.8865 0.969531 31.2384 1.36133 31.4177L1.69336 31.5704L22.432 31.6368L22.8836 32.1615C23.4414 32.799 24.2848 33.4962 24.8625 33.795C25.2477 33.9876 25.3406 34.0075 25.7191 33.981C26.0711 33.9611 26.2238 33.9079 26.6023 33.6822C27.8309 32.9517 28.9797 31.6435 29.9359 29.8771C30.9918 27.9247 31.5297 25.0427 31.0117 24.113C30.8059 23.7544 30.6996 23.6814 28.3355 22.4064L26.3633 21.3505V17.8907C26.3633 15.9517 26.3301 14.2318 26.2969 13.9728C26.1707 13.1095 25.7059 12.4322 25.0152 12.1068C24.743 11.9872 24.557 11.9474 24.1652 11.9474H23.6605L23.6207 10.4997C23.5809 8.8927 23.4813 8.26184 23.0828 7.07981C21.8809 3.48723 18.7066 0.764574 14.9746 0.127073C14.0648 -0.0256597 12.3848 -0.04558 11.5215 0.0938701ZM15.0078 1.55481C16.7145 1.93332 18.1621 2.71028 19.4305 3.92551C20.7852 5.23372 21.6551 6.8009 22.0602 8.66028C22.1531 9.09192 22.1996 9.63645 22.2262 10.5993L22.266 11.9474H20.4531V10.9247C20.4531 9.72942 20.3734 9.072 20.141 8.32825C19.3109 5.69856 17.1859 3.78606 14.523 3.28137C13.9121 3.16848 12.491 3.14856 11.9133 3.25481C10.4125 3.52044 9.15078 4.1845 8.02852 5.30012C6.46797 6.86731 5.84375 8.55403 5.84375 11.2302V11.9474H4.11719V10.7587C4.11719 10.0017 4.15039 9.36419 4.2168 8.98567C4.87422 5.17395 7.81602 2.20559 11.6543 1.4884C12.3582 1.36223 14.2973 1.39543 15.0078 1.55481ZM14.3039 4.6759C16.4621 5.08762 18.2816 6.80754 18.866 8.99231C18.9789 9.41067 19.0121 9.78918 19.0387 10.7322L19.0719 11.9474H7.29141L7.31797 10.6325C7.34453 9.43059 7.36445 9.27786 7.53047 8.75989C8.22109 6.64153 9.83477 5.16067 11.9863 4.6759C12.5242 4.55637 13.6863 4.55637 14.3039 4.6759ZM27.7246 23.6947L29.7832 24.8103L29.8031 25.0958C29.8363 25.5341 29.6305 26.7825 29.4047 27.4798C29.1457 28.3032 28.6078 29.4122 28.0965 30.1892C27.5852 30.9529 26.702 31.8892 26.0977 32.3075L25.6328 32.6197L25.1879 32.3208C24.1984 31.67 23.1891 30.415 22.4852 28.9806C21.8078 27.606 21.509 26.5302 21.4891 25.4079L21.4824 24.8103L23.541 23.6947C24.6766 23.0771 25.6129 22.579 25.6328 22.579C25.6527 22.579 26.5957 23.0771 27.7246 23.6947Z" fill="white"/>
<path d="M26.2105 26.6829L25.1348 27.7521L24.7961 27.4134C24.318 26.9353 23.8797 26.8622 23.5477 27.2009C23.4082 27.3404 23.375 27.4333 23.375 27.6923C23.375 28.0111 23.3816 28.0177 24.0059 28.6286C24.7496 29.3525 25.0086 29.5118 25.3074 29.4454C25.5664 29.3857 25.8387 29.14 27.1668 27.7388C28.2094 26.6431 28.2227 26.6298 28.2227 26.331C28.2227 25.9126 28.0234 25.6935 27.6051 25.647L27.2863 25.6072L26.2105 26.6829Z" fill="white"/>
<path d="M7.96875 15.7392C6.00977 15.9517 4.64844 17.8841 5.05351 19.863C5.15977 20.3677 5.53164 21.0982 5.87031 21.4568L6.1625 21.7622L5.7043 22.0743C4.79453 22.6919 4.0707 23.6482 3.73867 24.6642C3.59922 25.0892 3.56602 25.3283 3.55937 25.8927C3.55273 26.7095 3.65234 26.9751 4.13047 27.3802C4.6418 27.8251 4.68828 27.8251 8.57969 27.8052L12.0527 27.7853L12.4113 27.5861C12.7699 27.3868 12.9691 27.181 13.1883 26.756C13.2812 26.5767 13.3078 26.3841 13.3078 25.9259C13.3012 24.4251 12.4113 22.8845 11.0367 21.9947L10.6848 21.7689L10.9902 21.4236C12.0262 20.2747 12.1523 18.5083 11.2824 17.2267C10.552 16.1443 9.3168 15.5865 7.96875 15.7392ZM9.1375 17.24C9.35664 17.313 9.58242 17.4658 9.83476 17.7181C10.2664 18.1564 10.4391 18.5681 10.4324 19.199C10.4324 20.2615 9.48281 21.1779 8.39375 21.1779C7.69648 21.1779 6.92617 20.6665 6.59414 19.9958C6.33516 19.4712 6.33516 18.7806 6.5875 18.2892C6.86641 17.7579 7.33789 17.3396 7.83594 17.1868C8.13477 17.1005 8.79883 17.1271 9.1375 17.24ZM8.97812 22.6454C9.56914 22.765 10.2598 23.1368 10.7445 23.6017C11.4086 24.2259 11.807 24.9763 11.9133 25.7798C11.9465 26.0587 11.9332 26.1185 11.7871 26.2646L11.6277 26.424H8.40039C5.20625 26.424 5.17969 26.424 5.04023 26.2845C4.91406 26.1583 4.90078 26.0919 4.94062 25.7798C5.08008 24.5911 5.91016 23.4822 7.07891 22.9243C7.78281 22.5923 8.3207 22.5126 8.97812 22.6454Z" fill="white"/>
<path d="M14.5562 17.7314C14.3105 17.8044 14.0781 18.1232 14.0781 18.3888C14.0781 18.6743 14.3105 18.9732 14.5895 19.0462C14.8617 19.1259 20.4797 19.1525 20.8449 19.0794C21.1836 19.013 21.3828 18.754 21.3828 18.3888C21.3828 18.0236 21.1836 17.7646 20.8449 17.6982C20.5129 17.6318 14.7953 17.665 14.5562 17.7314Z" fill="white"/>
<path d="M0.425 20.3743C0.053125 20.5337 -0.0996094 20.9986 0.0996094 21.3771C0.225781 21.6228 0.385156 21.7091 0.730469 21.7091C1.32813 21.7091 1.62031 21.0318 1.21523 20.5802C1.01602 20.3611 0.670703 20.2747 0.425 20.3743Z" fill="white"/>
<path d="M14.5562 21.3173C14.3105 21.3904 14.0781 21.7091 14.0781 21.9747C14.0781 22.2603 14.3105 22.5591 14.5895 22.6322C14.7422 22.6786 15.6387 22.7052 16.834 22.7052C18.0293 22.7052 18.9258 22.6786 19.0785 22.6322C19.3574 22.5591 19.5898 22.2603 19.5898 21.9747C19.5898 21.6892 19.3574 21.3904 19.0785 21.3173C18.7598 21.2243 14.8617 21.231 14.5562 21.3173Z" fill="white"/>
</svg>
