<svg width="30" height="30" viewBox="0 0 30 30" fill="none" xmlns="http://www.w3.org/2000/svg">
<path d="M12.8275 0.111024C12.1476 0.257531 11.7901 0.380596 11.2275 0.650171C9.188 1.62298 7.74043 3.55102 7.38879 5.78379C7.30674 6.27605 7.30674 7.495 7.38879 7.98726C7.56461 9.11244 8.02174 10.1732 8.73087 11.1049C9.08837 11.5738 10.5359 13.0564 10.7411 13.1619C11.1806 13.3905 11.667 13.1033 11.667 12.611C11.667 12.3766 11.4502 12.107 10.6121 11.2807C9.99091 10.6713 9.44001 10.0384 9.44001 9.93288C9.44001 9.9153 10.3718 9.90358 11.5088 9.90358C13.7886 9.90358 13.9644 9.88014 14.4684 9.55782C14.8904 9.28825 15.0193 9.09486 15.6171 7.79973C16.0684 6.8445 16.1797 6.64525 16.3087 6.59837C16.6603 6.47531 16.6662 6.48703 17.7562 9.72191C18.3247 11.4273 18.8229 12.8161 18.9108 12.9451C19.198 13.3846 19.6375 13.6014 20.2236 13.6073C20.8507 13.6131 21.3781 13.3201 21.636 12.8161C21.7004 12.6989 21.9759 11.9605 22.2513 11.1753C22.8433 9.5168 22.8667 9.46406 23.1129 9.31755C23.2887 9.2062 23.4235 9.20034 25.8087 9.20034H28.3112L28.1882 9.44648C27.8365 10.138 27.4146 10.601 23.9333 14.0702C20.6573 17.3403 20.3408 17.6392 19.9891 17.8033C19.3152 18.1139 18.6295 18.19 17.9672 18.0201C17.2757 17.8443 17.0237 17.6685 16.0918 16.7601C15.6112 16.2854 15.1541 15.8635 15.0838 15.8283C15.0135 15.7932 14.8611 15.7639 14.7439 15.7639C14.3043 15.7639 14.0465 16.262 14.2692 16.6898C14.3747 16.9008 15.8398 18.3248 16.1973 18.571C17.8617 19.7137 20.0302 19.5672 21.5715 18.2076C21.847 17.9673 23.5055 16.3265 25.2637 14.5567C28.5925 11.2104 28.8211 10.9467 29.3075 9.97976C29.8467 8.89561 30.0401 7.96382 29.9932 6.62181C29.9463 5.20948 29.624 4.18393 28.8797 3.05875C27.8424 1.50577 26.3303 0.491943 24.496 0.116883C23.6345 -0.0647851 22.2162 -0.0296244 21.3957 0.187206C20.5869 0.404039 19.9833 0.679472 19.2859 1.14243L18.6705 1.55266L18.0844 1.16002C17.4046 0.702913 16.7482 0.404039 15.9512 0.193067C15.1717 -0.0179041 13.6011 -0.0530649 12.8275 0.111024ZM15.6933 1.40615C16.3087 1.57024 17.2464 2.03906 17.6742 2.4024C18.6705 3.23456 18.7057 3.24042 19.4558 2.56649C19.8485 2.20901 20.5225 1.81051 21.1027 1.58782C21.7473 1.33583 22.3744 1.22448 23.1246 1.22448C24.6366 1.22448 25.9435 1.75191 27.0219 2.79504C27.8189 3.55688 28.3464 4.44178 28.6101 5.43803C28.7449 5.93616 28.8211 7.10822 28.7566 7.63564L28.7156 7.96382L22.9488 7.99898L22.6557 8.13963C22.2924 8.3213 21.9583 8.62603 21.7825 8.93077C21.7063 9.06556 21.4016 9.8567 21.1027 10.6947C20.8096 11.5327 20.5342 12.2536 20.4873 12.3004C20.3759 12.4118 20.1122 12.4001 19.9891 12.2711C19.9247 12.2067 19.4617 10.9115 18.9166 9.28239C18.3833 7.70597 17.8969 6.2995 17.8324 6.17057C17.557 5.63142 16.8889 5.28566 16.2559 5.35013C15.8808 5.39115 15.4061 5.63728 15.1834 5.91272C15.0897 6.0182 14.8025 6.58665 14.5388 7.17268C14.275 7.75871 14.0054 8.29786 13.9351 8.37404C13.6655 8.66706 13.5952 8.67292 11.1161 8.67292H8.80706L8.70743 8.25097C8.32063 6.67455 8.65468 4.91647 9.58652 3.60376C9.91472 3.14666 10.6649 2.41998 11.1044 2.13869C12.4758 1.25964 14.1695 0.990068 15.6933 1.40615Z" fill="white"/>
<path d="M12.6106 13.9706C12.4289 14.0702 12.3176 14.2812 12.3117 14.5215C12.3117 14.6739 12.3645 14.7735 12.5168 14.9259C12.7044 15.1134 12.7454 15.131 12.974 15.1017C13.2963 15.0548 13.5424 14.7969 13.5424 14.498C13.5424 14.334 13.4956 14.2402 13.3432 14.0878C13.1263 13.871 12.8685 13.83 12.6106 13.9706Z" fill="white"/>
<path d="M10.3191 18.8523C9.75648 18.9109 9.10009 19.0925 7.65252 19.5848L6.07015 20.1239L3.18086 20.1591L0.285706 20.1884L0.145051 20.3525C-0.0483502 20.581 -0.0483502 20.9678 0.145051 21.1964L0.285706 21.3605L6.11703 21.3956L7.96899 20.7803C10.1316 20.0595 10.577 19.9774 11.5616 20.0888C12.2297 20.1708 13.056 20.4287 13.5718 20.7158C14.2457 21.0967 20.54 25.4041 20.6573 25.5682C20.8272 25.7967 20.8272 26.3007 20.6573 26.5234C20.4756 26.7695 20.2646 26.9043 20.0067 26.9395C19.7957 26.9688 19.4031 26.8164 16.2383 25.4685C13.6362 24.3609 12.6399 23.9683 12.4758 23.9683C11.9601 23.9683 11.7081 24.5836 12.0656 24.9587C12.1828 25.0876 13.015 25.4627 15.3885 26.4648C17.1292 27.1973 18.5709 27.8126 18.6002 27.8361C18.6529 27.883 15.9863 28.6331 15.4765 28.7151C14.9373 28.7972 13.6538 28.7855 13.1322 28.6917C12.8919 28.6448 11.4443 28.2639 9.92058 27.8419L7.15436 27.0743H0.344312L0.174354 27.2442C0.0395592 27.379 0.00439548 27.4669 0.00439548 27.6603C0.00439548 27.965 0.0805837 28.1057 0.297427 28.217C0.443943 28.2932 0.930375 28.3049 3.70831 28.3049H6.94924L9.70374 29.0667C11.2216 29.4887 12.6985 29.8696 12.9857 29.9165C13.6714 30.0278 15.0604 30.0278 15.7636 29.9165C16.0625 29.8637 18.3833 29.2308 20.921 28.5042C27.8131 26.5292 28.7039 26.2655 28.9442 26.1425C29.2724 25.9725 29.6592 25.5623 29.8291 25.199C29.9639 24.9177 29.9815 24.8005 29.9815 24.2613C29.9815 23.7046 29.9639 23.6167 29.8174 23.3354C29.3954 22.5267 28.5046 22.0754 27.6255 22.2102C27.4556 22.2395 25.8791 22.6732 24.1209 23.1772C22.3627 23.6811 20.8858 24.0796 20.8331 24.0621C20.7862 24.0445 19.3503 23.0834 17.6566 21.9348C14.4333 19.7489 13.7417 19.3387 12.8392 19.0808C12.0538 18.8581 11.0986 18.7702 10.3191 18.8523ZM28.1354 23.4409C28.2526 23.4702 28.4343 23.5932 28.5457 23.7046C28.7391 23.9038 28.7508 23.9449 28.7508 24.2906C28.7508 24.6481 28.7391 24.6832 28.5457 24.8766C28.3523 25.07 28.194 25.1228 25.4688 25.9022C23.8923 26.3593 22.433 26.7812 22.2279 26.8398L21.8587 26.9453L21.8997 26.8223C22.0638 26.3066 22.0814 25.8787 21.9466 25.4392C21.8997 25.2693 21.8645 25.1228 21.8763 25.1169C21.8938 25.0993 27.8541 23.3881 27.901 23.3881C27.9186 23.3823 28.0241 23.4116 28.1354 23.4409Z" fill="white"/>
</svg>
