<svg width="30" height="31" viewBox="0 0 30 31" fill="none" xmlns="http://www.w3.org/2000/svg">
<path d="M8.4789 0.113293C8.12732 0.258784 7.74644 0.628577 7.55893 1.01049C7.44174 1.25298 7.41244 1.40453 7.40072 1.97438L7.37729 2.6594H5.8948C4.1955 2.6594 3.93182 2.7079 3.29312 3.15043C2.70715 3.5566 2.38487 3.99308 2.09189 4.78116C1.96884 5.10851 1.96884 5.18126 1.95126 10.5826C1.93368 16.6872 1.9161 16.4023 2.32628 16.5781C2.58996 16.6933 2.81849 16.6448 3.01771 16.4387L3.17006 16.2811V8.90343H13.8346C25.6711 8.90343 24.716 8.9398 24.8507 8.50332C24.9386 8.24265 24.8449 7.92135 24.6456 7.78799C24.5167 7.70312 23.462 7.69099 13.8287 7.69099H3.15835L3.18764 6.521C3.19936 5.87234 3.24038 5.26007 3.2814 5.13276C3.42203 4.66597 3.91424 4.16888 4.40059 3.99308C4.5295 3.94458 5.12132 3.9082 6.00027 3.89002L7.389 3.85971V4.41136C7.389 5.33887 7.70542 5.93903 8.37342 6.27851C8.83047 6.50887 9.50433 6.521 9.92623 6.2967C10.6059 5.94509 10.9106 5.3995 10.9517 4.46592L10.981 3.87183H20.749V4.41743C20.749 5.33887 21.0654 5.93903 21.7334 6.27851C22.1905 6.50887 22.8643 6.521 23.2862 6.2967C23.9659 5.94509 24.2706 5.3995 24.3116 4.45986L24.3409 3.85971L25.8703 3.88396C27.3704 3.90214 27.4055 3.9082 27.722 4.05976C28.1907 4.28406 28.3958 4.49623 28.6126 4.9509L28.806 5.35706L28.8236 16.9661C28.8353 25.1743 28.8177 28.6661 28.7708 28.8964C28.6654 29.436 28.2962 29.7573 27.7805 29.7573C27.2708 29.7573 26.9016 29.442 26.7903 28.9086C26.7551 28.7388 26.7258 28.2175 26.7258 27.7507V26.8959L26.386 26.5443H19.0673L18.9149 26.7019C18.704 26.9202 18.6629 27.1627 18.7977 27.4415C18.8739 27.5991 18.9618 27.6901 19.1083 27.7386C19.2548 27.7931 20.1747 27.8113 22.4366 27.8113L25.5539 27.8174V28.5145C25.5539 29.054 25.5773 29.2783 25.6652 29.5148L25.7766 29.8179H14.069C5.54908 29.8179 2.27354 29.7997 2.04501 29.7512C1.44147 29.6178 1.17779 29.151 1.17779 28.2114V27.8174L14.5495 27.7871L14.7194 27.587C14.9597 27.3142 14.9597 26.9687 14.7194 26.7201L14.5495 26.5443H8.52577L8.8129 26.2291C10.1958 24.7075 10.5239 22.4402 9.6391 20.5852C9.06486 19.3728 8.05114 18.4695 6.77374 18.0209C6.16434 17.8087 4.96897 17.7481 4.29511 17.8997C2.5255 18.2876 1.10747 19.7001 0.626981 21.543C0.574245 21.7431 0.515648 22.1796 0.498069 22.513C0.416034 23.8406 0.832069 25.0651 1.71101 26.126L2.06259 26.5443H0.345719L0.175789 26.7262L0 26.908L0.0175789 28.1326C0.0351578 29.3208 0.0410175 29.3753 0.193368 29.7088C0.392596 30.1574 0.849648 30.6302 1.28326 30.8363L1.61726 31H28.3958L28.7298 30.8363C29.1634 30.6302 29.6205 30.1574 29.8197 29.7088L29.9779 29.3632L29.9955 17.2692C30.0072 6.35732 30.0014 5.14489 29.9135 4.84178C29.6439 3.87789 28.888 3.07769 27.9622 2.78064C27.6341 2.67152 27.4231 2.6594 25.9641 2.6594H24.3409L24.3116 2.00469C24.2823 1.2651 24.1769 0.94987 23.837 0.555829C23.5323 0.210288 23.1456 0.0284235 22.6416 0.00417207C22.085 -0.0261387 21.6924 0.10723 21.3349 0.452775C20.8955 0.877126 20.7841 1.17417 20.7607 1.97438L20.7373 2.6594H10.981L10.9517 2.00469C10.9224 1.2651 10.8169 0.94987 10.477 0.555829C10.1548 0.186037 9.79146 0.0284235 9.23479 0.0102349C8.87735 -0.0018873 8.6957 0.0223606 8.4789 0.113293ZM9.52777 1.41059C9.60395 1.4894 9.68012 1.64702 9.70356 1.75614C9.72114 1.87132 9.73286 2.6109 9.72114 3.40504L9.70356 4.8539L9.51019 5.0297C9.30511 5.22369 9.17619 5.24188 8.94181 5.13276C8.64297 4.99333 8.61953 4.85996 8.61953 3.17468V1.61671L8.78946 1.44091C9.01212 1.21054 9.32269 1.19842 9.52777 1.41059ZM22.8877 1.41059C22.9639 1.4894 23.0401 1.64702 23.0635 1.75614C23.0811 1.87132 23.0928 2.6109 23.0811 3.40504L23.0635 4.8539L22.8702 5.0297C22.6651 5.22369 22.5362 5.24188 22.3018 5.13276C22.0029 4.99333 21.9795 4.85996 21.9795 3.17468V1.61671L22.1494 1.44091C22.3721 1.21054 22.6827 1.19842 22.8877 1.41059ZM6.52178 19.2879C7.59409 19.7183 8.41444 20.6095 8.7543 21.7249C8.93595 22.319 8.93595 23.2526 8.7543 23.8467C8.41444 24.9621 7.60581 25.8472 6.52178 26.2897C6.16434 26.4352 6.05301 26.4473 5.33813 26.4534C4.42989 26.4534 4.16034 26.3867 3.4982 25.9866C2.75403 25.538 2.13291 24.7257 1.87508 23.877C1.2774 21.8946 2.43175 19.7426 4.40059 19.1788C4.62911 19.1182 4.9221 19.0939 5.42602 19.1121C6.01199 19.1242 6.19364 19.1545 6.52178 19.2879Z" fill="white"/>
<path d="M6.71514 21.1793C6.61553 21.2339 6.11746 21.7067 5.60181 22.2402L4.67013 23.2041L4.27168 22.81C3.90252 22.4524 3.84978 22.422 3.60368 22.422C3.24038 22.422 2.99427 22.6645 2.99427 23.0161C2.99427 23.3132 3.1642 23.5678 3.82634 24.2164C4.37715 24.762 4.5588 24.8469 4.87522 24.7075C5.17406 24.5741 7.56479 22.0583 7.57065 21.8704C7.58823 21.4763 7.4769 21.252 7.20149 21.1551C6.96711 21.0702 6.92609 21.0702 6.71514 21.1793Z" fill="white"/>
<path d="M26.6028 7.8668C26.468 8.00623 26.4328 8.09716 26.4328 8.29721C26.4328 9.03073 27.4817 9.13985 27.6341 8.42452C27.7571 7.83043 27.0246 7.43639 26.6028 7.8668Z" fill="white"/>
<path d="M6.95539 12.2619C6.07645 12.6438 5.5608 13.4379 5.5608 14.42C5.5608 15.4263 6.11746 16.2508 7.01985 16.6024C7.5062 16.7903 8.27381 16.76 8.74844 16.5296C9.18205 16.3235 9.63911 15.8507 9.83833 15.4021C9.97896 15.099 9.99654 14.9838 9.99654 14.42C9.99654 13.8562 9.97896 13.741 9.83833 13.4379C9.63911 12.9893 9.18205 12.5165 8.74844 12.3104C8.47304 12.177 8.31483 12.1467 7.85778 12.1285C7.37729 12.1164 7.25423 12.1346 6.95539 12.2619ZM8.25037 13.4864C8.89493 13.8077 8.98283 14.7898 8.40858 15.2444C8.06286 15.5233 7.48276 15.5112 7.15462 15.2263C6.67999 14.8201 6.65655 14.0805 7.10774 13.6501C7.38314 13.3773 7.88121 13.3106 8.25037 13.4864Z" fill="white"/>
<path d="M12.5103 12.2255C11.6314 12.5468 11.022 13.444 11.022 14.42C11.022 15.4263 11.69 16.3659 12.5924 16.6387C13.108 16.7964 13.7819 16.7357 14.2448 16.4993C15.9265 15.6445 15.9265 13.2015 14.2448 12.3407C13.9166 12.1709 13.7995 12.1467 13.3365 12.1285C12.9439 12.1164 12.733 12.1406 12.5103 12.2255ZM13.7116 13.4804C14.1217 13.6925 14.3561 14.226 14.2448 14.6625C14.1217 15.1414 13.7409 15.4506 13.2779 15.4506C12.481 15.4506 12.0005 14.6019 12.399 13.8926C12.4869 13.741 12.6392 13.5834 12.7682 13.5107C13.026 13.3712 13.483 13.3531 13.7116 13.4804Z" fill="white"/>
<path d="M18.0535 12.2012C17.661 12.3346 17.368 12.5347 17.0691 12.8681C16.6648 13.3349 16.5066 13.7532 16.5066 14.42C16.5066 15.0868 16.6648 15.5051 17.0691 15.9719C17.5379 16.4932 18.0301 16.7236 18.7274 16.7236C19.6532 16.7236 20.374 16.2508 20.7724 15.3899C20.9365 15.0323 20.9541 14.9413 20.9541 14.42C20.9541 13.8986 20.9365 13.8077 20.7724 13.45C20.4912 12.8378 19.9989 12.3892 19.4071 12.2012C19.0848 12.1042 18.3407 12.0982 18.0535 12.2012ZM19.2196 13.5167C19.5536 13.7107 19.7235 14.0138 19.7235 14.42C19.7235 15.0201 19.3017 15.4506 18.7215 15.4506C18.3817 15.4506 18.1356 15.3111 17.9012 14.9898C17.7606 14.8019 17.7313 14.7049 17.7313 14.42C17.7313 14.1351 17.7606 14.0381 17.9012 13.8501C17.9891 13.7228 18.1473 13.5713 18.2528 13.5046C18.4989 13.347 18.9384 13.3531 19.2196 13.5167Z" fill="white"/>
<path d="M23.3624 12.2619C22.4834 12.6438 21.9678 13.4379 21.9678 14.42C21.9678 15.4263 22.5245 16.2508 23.4268 16.6024C23.9132 16.7903 24.6808 16.76 25.1554 16.5296C25.589 16.3235 26.0461 15.8507 26.2453 15.4021C26.386 15.099 26.4035 14.9838 26.4035 14.42C26.4035 13.8562 26.386 13.741 26.2453 13.4379C26.0461 12.9893 25.589 12.5165 25.1554 12.3104C24.88 12.177 24.7218 12.1467 24.2648 12.1285C23.7843 12.1164 23.6612 12.1346 23.3624 12.2619ZM24.6574 13.4864C25.3019 13.8077 25.3898 14.7898 24.8156 15.2444C24.4699 15.5233 23.8897 15.5112 23.5616 15.2263C23.087 14.8201 23.0635 14.0805 23.5147 13.6501C23.7901 13.3773 24.2882 13.3106 24.6574 13.4864Z" fill="white"/>
<path d="M12.5103 18.5301C11.6314 18.8514 11.022 19.7486 11.022 20.7246C11.022 21.731 11.69 22.6706 12.5924 22.9434C13.108 23.101 13.7819 23.0404 14.2448 22.804C15.9265 21.9492 15.9265 19.5061 14.2448 18.6453C13.9166 18.4756 13.7995 18.4513 13.3365 18.4331C12.9439 18.421 12.733 18.4453 12.5103 18.5301ZM13.7116 19.785C14.1217 19.9972 14.3561 20.5306 14.2448 20.9671C14.1217 21.446 13.7409 21.7552 13.2779 21.7552C12.481 21.7552 12.0005 20.9065 12.399 20.1972C12.4869 20.0457 12.6392 19.8881 12.7682 19.8153C13.026 19.6759 13.483 19.6577 13.7116 19.785Z" fill="white"/>
<path d="M18.0535 18.5059C17.661 18.6393 17.368 18.8393 17.0691 19.1727C16.6648 19.6395 16.5066 20.0578 16.5066 20.7246C16.5066 21.3915 16.6648 21.8098 17.0691 22.2766C17.5379 22.7979 18.0301 23.0283 18.7274 23.0283C19.6532 23.0283 20.374 22.5554 20.7724 21.6946C20.9365 21.3369 20.9541 21.246 20.9541 20.7246C20.9541 20.2033 20.9365 20.1124 20.7724 19.7547C20.4912 19.1424 19.9989 18.6938 19.4071 18.5059C19.0848 18.4089 18.3407 18.4028 18.0535 18.5059ZM19.2196 19.8214C19.5536 20.0154 19.7235 20.3185 19.7235 20.7246C19.7235 21.3248 19.3017 21.7552 18.7215 21.7552C18.3817 21.7552 18.1356 21.6158 17.9012 21.2945C17.7606 21.1066 17.7313 21.0096 17.7313 20.7246C17.7313 20.4397 17.7606 20.3427 17.9012 20.1548C17.9891 20.0275 18.1473 19.8759 18.2528 19.8093C18.4989 19.6516 18.9384 19.6577 19.2196 19.8214Z" fill="white"/>
<path d="M23.3624 18.5665C22.4834 18.9484 21.9678 19.7426 21.9678 20.7246C21.9678 21.731 22.5245 22.5554 23.4268 22.907C23.9132 23.0949 24.6808 23.0646 25.1554 22.8343C25.589 22.6282 26.0461 22.1553 26.2453 21.7067C26.386 21.4036 26.4035 21.2884 26.4035 20.7246C26.4035 20.1609 26.386 20.0457 26.2453 19.7426C26.0461 19.294 25.589 18.8211 25.1554 18.615C24.88 18.4816 24.7218 18.4513 24.2648 18.4331C23.7843 18.421 23.6612 18.4392 23.3624 18.5665ZM24.6574 19.7911C25.3019 20.1124 25.3898 21.0944 24.8156 21.5491C24.4699 21.828 23.8897 21.8158 23.5616 21.5309C23.087 21.1247 23.0635 20.3852 23.5147 19.9547C23.7901 19.6819 24.2882 19.6153 24.6574 19.7911Z" fill="white"/>
<path d="M16.6941 26.6837C16.3542 27.0111 16.4714 27.5931 16.8992 27.7386C17.409 27.9144 17.8485 27.4233 17.6434 26.908C17.491 26.5322 16.9754 26.4109 16.6941 26.6837Z" fill="white"/>
</svg>
