<svg width="30" height="31" viewBox="0 0 30 31" fill="none" xmlns="http://www.w3.org/2000/svg">
<path d="M4.52674 0.0847649C3.9719 0.284568 3.48268 0.768943 3.27984 1.30781C3.18438 1.58027 3.16051 1.78008 3.16051 2.45215V3.26953H2.54601C2.18805 3.26953 1.78832 3.30586 1.57951 3.36035C0.744265 3.58437 0.189422 4.23223 0.058169 5.12832C-0.0193897 5.69141 -0.0193897 28.6447 0.058169 29.2078C0.171524 29.9707 0.672672 30.6186 1.34684 30.8729C1.67497 31 1.7227 31 12.9329 31H24.1908L24.5488 30.8244C26.2074 30.0191 28.0389 27.785 29.077 25.3207C29.6736 23.8979 29.9421 22.7232 29.9898 21.3428C30.0256 20.2166 29.9779 19.9623 29.6677 19.6111C29.429 19.3447 29.3455 19.2902 26.5057 17.7402L24.4593 16.6201V11.1527C24.4593 7.70762 24.4354 5.64297 24.3996 5.57031C24.3579 5.48555 21.0885 2.63379 18.4157 0.345115L18.016 0H11.3758C6.10774 0.00605538 4.69975 0.0242181 4.52674 0.0847649ZM17.1211 2.86387C17.1211 4.61972 17.1569 4.86797 17.491 5.40078C17.7356 5.79434 18.0816 6.09707 18.547 6.32109L18.9407 6.50879L23.2064 6.54512L23.1945 11.6008L23.1766 16.6625L20.8379 17.9461C19.5492 18.6484 18.3799 19.3084 18.2367 19.4113C18.0697 19.5324 17.9205 19.708 17.831 19.8957C17.6998 20.1682 17.6878 20.259 17.6938 21.0703C17.7057 22.808 18.1592 24.4791 19.1376 26.4105C19.1495 26.4408 17.843 26.459 16.2381 26.459H13.3147L13.1298 26.6164C12.9747 26.7496 12.9448 26.8162 12.9448 27.0463C12.9448 27.1916 12.9747 27.3672 13.0105 27.4398C13.1596 27.7244 13.267 27.7305 16.6915 27.7305H19.9072L20.3308 28.2875C20.5635 28.5963 20.9453 29.0504 21.1839 29.2926L21.6135 29.7285H11.7576C0.869551 29.7285 1.67497 29.7588 1.43036 29.3471C1.31104 29.1594 1.31104 28.9475 1.31104 17.165C1.31104 5.38867 1.31104 5.1707 1.43036 4.98301C1.63321 4.64395 1.80026 4.57734 2.51618 4.54707L3.16051 4.5289L3.19034 26.2471L3.35143 26.5498C3.64376 27.1189 4.10315 27.4883 4.69379 27.6396C4.99806 27.7184 5.36795 27.7305 6.76401 27.7184L8.45836 27.7002L8.61348 27.5549C8.88195 27.3006 8.87599 26.792 8.60155 26.568C8.53592 26.5074 8.05864 26.4832 6.74611 26.459C4.78925 26.4227 4.77135 26.4227 4.53271 26.017C4.41338 25.8293 4.41338 25.6113 4.41338 13.8471C4.41338 0.617577 4.38355 1.64082 4.78925 1.39258C4.97419 1.27754 5.13528 1.27148 11.0536 1.27148H17.1211V2.86387ZM20.289 3.66309L22.1087 5.2373L20.7902 5.25547C19.9311 5.26758 19.3941 5.24941 19.239 5.20703C18.9049 5.1041 18.6484 4.89219 18.4992 4.5834C18.3859 4.34726 18.3739 4.21406 18.3739 3.18476C18.3739 2.56113 18.3978 2.05859 18.4217 2.0707C18.4515 2.07676 19.2867 2.79727 20.289 3.66309ZM26.1477 19.0178C27.3648 19.6898 28.4566 20.2893 28.5699 20.3619L28.7728 20.483L28.737 21.3064C28.7191 21.7787 28.6475 22.3721 28.5818 22.693C27.9793 25.466 26.1477 28.3541 24.2505 29.5166C24.0596 29.6316 23.8687 29.7285 23.8329 29.7285C23.7016 29.7285 22.8485 29.1109 22.407 28.6932C20.9453 27.3066 19.6447 24.9695 19.1734 22.8867C18.9705 21.9785 18.8691 20.7797 18.9765 20.5617C19.0421 20.4225 19.5433 20.1258 21.4166 19.0965C22.7113 18.3881 23.809 17.8008 23.8508 17.8008C23.8866 17.8008 24.9247 18.3457 26.1477 19.0178Z" fill="white"/>
<path d="M7.00862 4.98301C6.88929 5.07988 6.84157 5.19492 6.8177 5.39473C6.78787 5.64297 6.80577 5.69746 6.96685 5.8791L7.14583 6.08496L11.0178 6.10313C13.8457 6.11524 14.9256 6.09707 15.0508 6.04864C15.2835 5.94571 15.3909 5.76406 15.3909 5.46133C15.3909 5.24942 15.3551 5.16465 15.2179 5.01934L15.0449 4.84375H7.16373L7.00862 4.98301Z" fill="white"/>
<path d="M7.00265 8.07695C6.85946 8.22227 6.7998 8.3373 6.7998 8.47051C6.7998 8.70664 6.94299 8.99727 7.09214 9.08203C7.1697 9.12441 9.38907 9.14258 13.7801 9.14258C20.9155 9.14258 20.5933 9.16074 20.7484 8.80957C20.8797 8.525 20.8379 8.30098 20.6172 8.07695L20.4143 7.87109H7.20549L7.00265 8.07695Z" fill="white"/>
<path d="M7.18163 10.9832C6.62679 11.2314 6.68645 12.0064 7.26516 12.1699C7.56346 12.2547 11.7099 12.2486 12.0082 12.1639C12.2587 12.0973 12.4675 11.8248 12.4675 11.5645C12.4675 11.3041 12.2587 11.0316 12.0082 10.965C11.6502 10.8621 7.41431 10.8803 7.18163 10.9832Z" fill="white"/>
<path d="M15.8205 10.965C15.5997 11.0316 15.3909 11.3223 15.3909 11.5645C15.3909 11.8309 15.5997 12.0973 15.8682 12.1699C16.0293 12.2123 16.8287 12.2305 18.2546 12.2184C20.3189 12.2002 20.4024 12.1941 20.5635 12.073C20.8916 11.8248 20.8916 11.3041 20.5635 11.0559C20.3964 10.9348 20.3248 10.9287 18.2069 10.9166C16.9361 10.9105 15.9338 10.9348 15.8205 10.965Z" fill="white"/>
<path d="M7.08021 14.0529C6.93702 14.1377 6.7998 14.4283 6.7998 14.6584C6.7998 14.7916 6.85946 14.9066 7.00265 15.052L7.20549 15.2578L20.474 15.2275L20.647 15.0277C20.8439 14.8037 20.8677 14.5615 20.7305 14.2891C20.6828 14.1922 20.5873 14.0832 20.5277 14.0469C20.3666 13.9621 7.22936 13.9682 7.08021 14.0529Z" fill="white"/>
<path d="M7.18163 17.0742C6.99072 17.1529 6.7998 17.4314 6.7998 17.6312C6.7998 17.8492 6.94299 18.1398 7.09214 18.2246C7.15777 18.2549 7.58732 18.2852 8.05267 18.2852H8.89985L9.07287 18.1096C9.35924 17.8129 9.27571 17.2498 8.91775 17.0863C8.73877 17.0016 7.37851 16.9895 7.18163 17.0742Z" fill="white"/>
<path d="M11.2922 17.1348C10.9462 17.3467 10.9104 17.8674 11.2266 18.1338L11.4056 18.2852H16.8347L17.0077 18.1096C17.2941 17.8129 17.2106 17.2498 16.8526 17.0863C16.7392 17.0318 15.9875 17.0137 14.0903 17.0137C11.6144 17.0137 11.4712 17.0197 11.2922 17.1348Z" fill="white"/>
<path d="M7.23532 20.1076C6.63872 20.2832 6.66258 21.1369 7.26516 21.3125C7.41431 21.3609 8.68507 21.373 11.2624 21.3609L15.0449 21.3428L15.2179 21.143C15.546 20.7736 15.3969 20.2348 14.9256 20.1016C14.6452 20.0229 7.5038 20.0289 7.23532 20.1076Z" fill="white"/>
<path d="M10.4331 26.6346C10.2959 26.7799 10.2601 26.8646 10.2601 27.0826C10.2601 27.7426 11.1252 27.9545 11.4235 27.3672C11.5368 27.1432 11.5368 26.9857 11.4235 26.7617C11.3101 26.5377 11.167 26.459 10.8567 26.459C10.6598 26.459 10.5703 26.4953 10.4331 26.6346Z" fill="white"/>
<path d="M25.4616 21.5729C25.3721 21.6092 24.8232 22.142 24.2445 22.7535L23.1885 23.8615L22.9141 23.5951C22.3891 23.0926 22.2578 23.0078 21.9894 23.0078C21.697 23.0078 21.518 23.1168 21.4166 23.365C21.2615 23.7465 21.3629 23.91 22.1564 24.6607C22.938 25.3994 23.111 25.4963 23.4391 25.357C23.7076 25.242 26.2849 22.5234 26.3207 22.3115C26.4221 21.7787 25.927 21.3549 25.4616 21.5729Z" fill="white"/>
</svg>
