<svg width="26" height="18" viewBox="0 0 26 18" fill="none" xmlns="http://www.w3.org/2000/svg">
<path d="M25.9786 8.81015C25.9582 8.72196 25.9376 8.6727 25.9192 8.627C25.8823 8.54163 25.8469 8.47724 25.8055 8.40417C25.6529 8.14163 25.4078 7.78608 25.072 7.33873C24.5707 6.67217 23.8802 5.82763 23.0981 4.99419C22.3152 4.16076 21.4468 3.34008 20.5626 2.72032C19.3122 1.8452 18.0962 1.16473 16.851 0.702316C15.6066 0.239547 14.3328 -0.000751521 13 1.76559e-06C11.6672 -0.000751521 10.3934 0.239547 9.14894 0.702367C7.90327 1.16473 6.68778 1.84525 5.43734 2.71997C4.12216 3.64435 2.82714 5.01644 1.8269 6.20814C1.32798 6.80404 0.907459 7.35304 0.604194 7.78126C0.451901 7.99579 0.329824 8.17929 0.235828 8.33422C0.188449 8.41291 0.148687 8.48317 0.1105 8.56186C0.091203 8.60199 0.0727186 8.64332 0.0522538 8.70132C0.0421991 8.7307 0.031332 8.76485 0.0213281 8.81015C0.0116797 8.85585 0.000406249 8.91224 0 9.00002C0.000406249 9.08746 0.0116289 9.14425 0.0213281 9.1899C0.0413866 9.27809 0.0623085 9.32695 0.080742 9.373C0.117711 9.45843 0.153054 9.52281 0.194441 9.59547C0.347089 9.85807 0.592108 10.214 0.927924 10.6613C1.42883 11.3279 2.11971 12.1728 2.90184 13.0063C3.68473 13.8397 4.55319 14.66 5.43734 15.2797C6.68778 16.1548 7.90333 16.8349 9.14894 17.2977C10.3934 17.7601 11.6672 18.0008 13 18C14.3328 18.0008 15.6066 17.7601 16.851 17.2977C18.0963 16.8349 19.3122 16.1548 20.5627 15.2801C21.8778 14.3556 23.1729 12.9836 24.1731 11.7919C24.672 11.196 25.0925 10.647 25.3958 10.2187C25.548 10.0039 25.6701 9.82071 25.7642 9.66538C25.8116 9.58673 25.8514 9.51643 25.8895 9.43814C25.9084 9.39801 25.9273 9.35668 25.9477 9.29828C25.9578 9.2689 25.9687 9.23515 25.9787 9.18985C25.9883 9.14415 25.9996 9.08741 26 8.99997C25.9995 8.91224 25.9883 8.85585 25.9786 8.81015ZM13 15.101C9.59241 15.101 6.83078 12.3695 6.83078 9.00008C6.83078 5.63143 9.59241 2.89915 13 2.89915C16.4075 2.89915 19.1692 5.63143 19.1692 9.00008C19.1692 12.3695 16.4075 15.101 13 15.101Z" fill="#384161"/>
<path d="M14.5445 8.71799C14.2207 8.7768 13.8893 8.66315 13.6728 8.41844C13.4559 8.17297 13.386 7.83368 13.4884 7.52383L13.8901 6.30903C13.6097 6.21844 13.3113 6.16842 12.9999 6.16842C11.4181 6.16842 10.1363 7.4356 10.1363 8.99997C10.1363 10.5643 11.4181 11.8323 12.9999 11.8323C14.5818 11.8323 15.8636 10.5643 15.8636 8.99997C15.8636 8.82441 15.8451 8.65276 15.8142 8.48598L14.5445 8.71799Z" fill="#384161"/>
</svg>
