<svg width="22" height="22" viewBox="0 0 22 22" fill="none" xmlns="http://www.w3.org/2000/svg">
<path d="M18.9306 13.6445C18.4002 13.1395 17.6957 12.8585 16.9635 12.8596C16.2313 12.8608 15.5277 13.1442 14.9989 13.6509L13.2489 15.1258C11.8203 14.5342 10.5227 13.6663 9.43042 12.5718C8.33816 11.4773 7.47282 10.1778 6.88409 8.74785L8.35317 7.00299C8.85935 6.47411 9.14235 5.77051 9.14338 5.03837C9.1444 4.30624 8.86337 3.60185 8.35868 3.07155C8.35868 3.07155 6.65913 0.864767 6.63067 0.836298C6.10688 0.308441 5.39637 0.00806581 4.65285 0.000160079C3.90933 -0.00774565 3.1926 0.277453 2.65771 0.794054L1.60181 1.7124C-5.48653 9.25018 12.8036 27.5528 20.3326 20.3548L21.17 19.3906C21.7016 18.857 22 18.1344 22 17.3812C22 16.628 21.7016 15.9055 21.17 15.3719C21.1406 15.3452 18.9306 13.6445 18.9306 13.6445Z" fill="white"/>
</svg>
