<svg width="8" height="11" viewBox="0 0 8 11" fill="none" xmlns="http://www.w3.org/2000/svg">
<path fill-rule="evenodd" clip-rule="evenodd" d="M0.91928 7.02873L4 11L7.08073 7.02873C7.6758 6.26167 8 5.30856 8 4.3262V4.125C8 1.84682 6.20913 0 4 0C1.79086 0 0 1.84682 0 4.125V4.3262C0 5.30856 0.3242 6.26167 0.91928 7.02873ZM4 5.5C4.73638 5.5 5.33333 4.88439 5.33333 4.125C5.33333 3.36561 4.73638 2.75 4 2.75C3.26362 2.75 2.66667 3.36561 2.66667 4.125C2.66667 4.88439 3.26362 5.5 4 5.5Z" fill="black"/>
</svg>
