<svg width="60" height="50" viewBox="0 0 60 50" fill="none" xmlns="http://www.w3.org/2000/svg">
<path d="M55.8095 39.434L37.3333 50C33.0159 45.5975 30.8571 39.7484 30.8571 32.4528C30.8571 18.3648 37.2063 7.54717 49.9048 0L60 9.24529C54.2857 14.0252 51.4286 20.1887 51.4286 27.7358C51.4286 32.6415 52.8889 36.5409 55.8095 39.434ZM24.9524 39.434L6.47619 50C2.15873 45.5975 0 39.7484 0 32.4528C0 18.3648 6.34921 7.54717 19.0476 0L29.1429 9.24529C23.4286 14.0252 20.5714 20.1887 20.5714 27.7358C20.5714 32.6415 22.0317 36.5409 24.9524 39.434Z" fill="#EE6352"/>
</svg>
