<svg width="40" height="40" viewBox="0 0 40 40" fill="none" xmlns="http://www.w3.org/2000/svg">
<g clip-path="url(#clip0_969_9409)">
<path d="M18.7344 0.14843C18.4922 0.226555 18.1172 0.390617 17.9141 0.507805C17.6719 0.64843 15.6094 2.64843 12.1094 6.14062L6.67969 11.5625H5.23438C4.21875 11.5625 3.66406 11.6016 3.35938 11.6797C1.82031 12.0859 0.523438 13.3828 0.117188 14.9219C-0.0546875 15.5625 -0.0546875 36 0.117188 36.6406C0.523438 38.1797 1.82031 39.4766 3.35938 39.8828C3.71875 39.9766 4.76562 40 9.53906 40H15.2891L15.5 39.7969C15.7891 39.5 15.7891 38.9375 15.5 38.6406L15.2891 38.4375H10.0078C6.92188 38.4375 4.5 38.3984 4.1875 38.3594C2.85156 38.1641 1.83594 37.1484 1.64062 35.8047C1.53906 35.0859 1.53906 16.4766 1.64062 15.7578C1.74219 15.0625 2.08594 14.4062 2.57031 13.9687C3.07031 13.5156 3.53125 13.2969 4.19531 13.2031C4.91406 13.1016 31.9609 13.1016 32.6797 13.2031C33.6797 13.3516 34.5781 14 34.9922 14.8828C35.2578 15.4453 35.3125 16.125 35.3125 18.9219V21.5625H32.0469C29.2812 21.5625 28.7109 21.5781 28.3516 21.6875C26.9531 22.1016 25.8516 23.2031 25.4375 24.6016C25.2734 25.1641 25.2734 26.3984 25.4375 26.9609C25.8516 28.3672 27.0234 29.5234 28.3984 29.8828C28.7812 29.9766 29.4453 30 32.0859 30H35.3125V32.6328C35.3125 34.0859 35.2734 35.5156 35.2344 35.8047C35.0391 37.1484 34.0234 38.1641 32.6875 38.3594C32.375 38.3984 29.9531 38.4375 26.8672 38.4375H21.5859L21.375 38.6406C21.0859 38.9375 21.0859 39.5 21.375 39.7969L21.5859 40H27.3359C33.6406 40 33.4453 40.0078 34.4531 39.5234C35.1406 39.1797 36.0547 38.2656 36.3984 37.5781C36.8594 36.625 36.875 36.5078 36.875 33.1016V30H37.5625C38.6406 30 39.3281 29.6094 39.7578 28.7344L40 28.2578V25.7812V23.3047L39.7578 22.8281C39.3281 21.9531 38.6406 21.5625 37.5625 21.5625H36.875V18.4531C36.875 16.6094 36.8359 15.2109 36.7891 15C36.4688 13.6016 35.2422 12.2578 33.8438 11.7812L33.3672 11.625L31.5469 8.45312C29.3047 4.55468 29.0156 4.20312 27.6953 3.74999C27.0938 3.53905 26.3203 3.47655 25.75 3.58593L25.2812 3.67187L23.7188 2.12499C22.2891 0.71093 22.0938 0.55468 21.5625 0.312492C21.0234 0.0703049 20.9062 0.0468674 20.0781 0.0234299C19.3594 -7.62939e-06 19.0938 0.0312424 18.7344 0.14843ZM21.0391 1.90624C21.3672 2.10155 23.7344 4.42187 23.6719 4.47655C23.6484 4.49218 20.8828 6.09374 17.5234 8.03905L11.4062 11.5625H10.2188H9.02344L13.7422 6.84374C17.0234 3.56249 18.5859 2.05468 18.8438 1.91405C19.5391 1.53124 20.4141 1.53124 21.0391 1.90624ZM27.3906 5.41405C27.6016 5.52343 27.8828 5.72655 28.0234 5.87499C28.1641 6.01562 28.9766 7.34374 29.8359 8.82812L31.3984 11.5234L27.2656 11.5469C24.9922 11.5547 21.2578 11.5547 18.9688 11.5469L14.7969 11.5234L19.3281 8.90624C24.9375 5.66405 25.6719 5.24999 25.9297 5.20312C26.3672 5.12499 27.0078 5.21874 27.3906 5.41405ZM37.8359 23.2109C38.3828 23.3594 38.3984 23.4375 38.3984 25.75C38.3984 27.2812 38.375 27.8359 38.2969 27.9766C38.0703 28.4062 38.1719 28.3984 33.8359 28.4219C31.6328 28.4297 29.5938 28.4141 29.3047 28.3672C28.3516 28.2422 27.5781 27.7031 27.1797 26.8984C27.0234 26.5859 26.9922 26.4062 26.9922 25.7812C26.9922 25.1641 27.0234 24.9766 27.1719 24.6641C27.5469 23.9062 28.3438 23.3281 29.1641 23.2031C29.8125 23.1094 37.4922 23.1094 37.8359 23.2109Z" fill="white"/>
<path d="M28.8203 25.2265C28.6406 25.4062 28.5938 25.5234 28.5938 25.7812C28.5938 26.7031 29.9766 26.8828 30.2031 25.9843C30.2266 25.8749 30.2266 25.6874 30.2031 25.5781C30.0547 24.9843 29.2656 24.7812 28.8203 25.2265Z" fill="white"/>
<path d="M17.8594 38.6406C17.6953 38.8047 17.6562 38.9219 17.6562 39.2188C17.6562 39.7344 17.9219 40 18.4375 40C18.9531 40 19.2188 39.7344 19.2188 39.2188C19.2188 38.9219 19.1797 38.8047 19.0156 38.6406C18.8516 38.4766 18.7344 38.4375 18.4375 38.4375C18.1406 38.4375 18.0234 38.4766 17.8594 38.6406Z" fill="white"/>
</g>
<defs>
<clipPath id="clip0_969_9409">
<rect width="40" height="40" fill="white"/>
</clipPath>
</defs>
</svg>
