<svg width="40" height="42" viewBox="0 0 40 42" fill="none" xmlns="http://www.w3.org/2000/svg">
<g clip-path="url(#clip0_969_9394)">
<path d="M11.2969 0.751259C10.8281 0.942585 10.3203 1.42887 10.0703 1.93111C9.91406 2.24998 9.875 2.44928 9.85937 3.19864L9.82812 4.09947H7.85156C5.58594 4.09947 5.23437 4.16325 4.38281 4.7452C3.60156 5.27932 3.17187 5.8533 2.78125 6.88965C2.61719 7.32014 2.61719 7.4158 2.59375 14.5188C2.57031 22.5465 2.54687 22.1719 3.09375 22.403C3.44531 22.5545 3.75 22.4907 4.01562 22.2197L4.21875 22.0124V17.1655V12.3106H18.4375C34.2187 12.3106 32.9453 12.3584 33.125 11.7844C33.2422 11.4416 33.1172 11.0191 32.8516 10.8437C32.6797 10.7321 31.2734 10.7162 18.4297 10.7162H4.20312L4.24219 9.1776C4.25781 8.3246 4.3125 7.51944 4.36719 7.35202C4.55469 6.73819 5.21094 6.08448 5.85937 5.8533C6.03125 5.78952 6.82031 5.74169 7.99219 5.71778L9.84375 5.67792V6.40336C9.84375 7.62307 10.2656 8.41229 11.1562 8.85872C11.7656 9.16166 12.6641 9.1776 13.2266 8.88264C14.1328 8.42027 14.5391 7.70279 14.5937 6.47511L14.6328 5.69386H21.1406H27.6562V6.41133C27.6562 7.62307 28.0781 8.41229 28.9687 8.85872C29.5781 9.16166 30.4766 9.1776 31.0391 8.88264C31.9453 8.42027 32.3516 7.70279 32.4062 6.46714L32.4453 5.67792L34.4844 5.7098C36.4844 5.73372 36.5312 5.74169 36.9531 5.94099C37.5781 6.23595 37.8516 6.51497 38.1406 7.11287L38.3984 7.64698L38.4219 22.9132C38.4375 33.7073 38.4141 38.2991 38.3516 38.602C38.2109 39.3115 37.7187 39.734 37.0312 39.734C36.3516 39.734 35.8594 39.3195 35.7109 38.618C35.6641 38.3948 35.625 37.7092 35.625 37.0953V35.9713L35.3984 35.7401L35.1719 35.5089H30.2891H25.4141L25.2109 35.7162C24.9297 36.0032 24.875 36.322 25.0547 36.6888C25.1562 36.896 25.2734 37.0156 25.4687 37.0794C25.6641 37.1511 26.8906 37.175 29.9062 37.175L34.0625 37.183V38.0998C34.0625 38.8093 34.0937 39.1043 34.2109 39.4152L34.3594 39.8138H18.75C7.39062 39.8138 3.02344 39.7898 2.71875 39.7261C1.91406 39.5507 1.5625 38.9368 1.5625 37.7012V37.183L10.4766 37.1671L19.3906 37.1432L19.6172 36.8801C19.9375 36.5213 19.9375 36.0669 19.6172 35.7401L19.3906 35.5089H15.375H11.3594L11.7422 35.0944C13.5859 33.0934 14.0234 30.1119 12.8437 27.6725C12.0781 26.0781 10.7266 24.8903 9.02344 24.3004C8.21094 24.0213 6.61719 23.9416 5.71875 24.1409C3.35937 24.6511 1.46875 26.5086 0.828125 28.9321C0.757812 29.1951 0.679687 29.7691 0.65625 30.2076C0.546875 31.9534 1.10156 33.5638 2.27344 34.9588L2.74219 35.5089H1.60156H0.453125L0.226562 35.7481L-0.0078125 35.9872L0.015625 37.5976C0.0390625 39.1601 0.046875 39.2318 0.25 39.6703C0.515625 40.2602 1.125 40.882 1.70312 41.153L2.14844 41.3683H20H37.8516L38.2969 41.153C38.875 40.882 39.4844 40.2602 39.75 39.6703L39.9609 39.2159L39.9844 23.3118C40 8.96236 39.9922 7.36797 39.875 6.96937C39.5156 5.70183 38.5078 4.64954 37.2734 4.25891C36.8359 4.11542 36.5547 4.09947 34.6094 4.09947H32.4453L32.4062 3.2385C32.3672 2.26593 32.2266 1.85139 31.7734 1.33321C31.3672 0.878811 30.8516 0.639652 30.1797 0.607765C29.4375 0.567905 28.9141 0.743286 28.4375 1.19769C27.8516 1.75572 27.7031 2.14635 27.6719 3.19864L27.6406 4.09947H21.1328H14.6328L14.5937 3.2385C14.5547 2.26593 14.4141 1.85139 13.9609 1.33321C13.5312 0.84692 13.0469 0.639652 12.3047 0.615734C11.8281 0.599792 11.5859 0.63168 11.2969 0.751259ZM12.6953 2.45725C12.7969 2.56089 12.8984 2.76816 12.9297 2.91166C12.9531 3.06312 12.9687 4.0357 12.9531 5.08002L12.9297 6.98531L12.6719 7.2165C12.3984 7.4716 12.2266 7.49552 11.9141 7.35202C11.5156 7.16867 11.4844 6.99329 11.4844 4.77709V2.7283L11.7109 2.49711C12.0078 2.19418 12.4219 2.17823 12.6953 2.45725ZM30.5078 2.45725C30.6094 2.56089 30.7109 2.76816 30.7422 2.91166C30.7656 3.06312 30.7812 4.0357 30.7656 5.08002L30.7422 6.98531L30.4844 7.2165C30.2109 7.4716 30.0391 7.49552 29.7266 7.35202C29.3281 7.16867 29.2969 6.99329 29.2969 4.77709V2.7283L29.5234 2.49711C29.8203 2.19418 30.2344 2.17823 30.5078 2.45725ZM8.6875 25.9665C10.1172 26.5325 11.2109 27.7044 11.6641 29.1712C11.9062 29.9525 11.9062 31.1801 11.6641 31.9614C11.2109 33.4282 10.1328 34.5921 8.6875 35.1741C8.21094 35.3654 8.0625 35.3814 7.10937 35.3893C5.89844 35.3893 5.53906 35.3016 4.65625 34.7755C3.66406 34.1856 2.83594 33.1173 2.49219 32.0013C1.69531 29.3944 3.23437 26.5644 5.85937 25.823C6.16406 25.7433 6.55469 25.7114 7.22656 25.7353C8.00781 25.7513 8.25 25.7911 8.6875 25.9665Z" fill="white"/>
<path d="M8.94531 28.4537C8.8125 28.5254 8.14844 29.1473 7.46094 29.8488L6.21875 31.1163L5.6875 30.5982C5.19531 30.1278 5.125 30.0879 4.79688 30.0879C4.3125 30.0879 3.98438 30.4068 3.98438 30.8692C3.98438 31.2598 4.21094 31.5946 5.09375 32.4476C5.82813 33.1651 6.07031 33.2767 6.49219 33.0934C6.89063 32.918 10.0781 29.6096 10.0859 29.3625C10.1094 28.8443 9.96094 28.5494 9.59375 28.4218C9.28125 28.3102 9.22656 28.3102 8.94531 28.4537Z" fill="white"/>
<path d="M35.4609 10.9473C35.2812 11.1307 35.2344 11.2503 35.2344 11.5134C35.2344 12.478 36.6328 12.6215 36.8359 11.6808C37 10.8995 36.0234 10.3813 35.4609 10.9473Z" fill="white"/>
<path d="M9.26562 16.7271C8.09375 17.2293 7.40625 18.2736 7.40625 19.5651C7.40625 20.8884 8.14844 21.9726 9.35156 22.435C10 22.6821 11.0234 22.6423 11.6562 22.3393C12.2344 22.0683 12.8437 21.4465 13.1094 20.8565C13.2969 20.4579 13.3203 20.3065 13.3203 19.5651C13.3203 18.8237 13.2969 18.6722 13.1094 18.2736C12.8437 17.6837 12.2344 17.0619 11.6562 16.7909C11.2891 16.6155 11.0781 16.5756 10.4687 16.5517C9.82812 16.5358 9.66406 16.5597 9.26562 16.7271ZM10.9922 18.3374C11.8516 18.7599 11.9687 20.0514 11.2031 20.6493C10.7422 21.016 9.96875 21 9.53125 20.6254C8.89844 20.0912 8.86719 19.1187 9.46875 18.5527C9.83594 18.1939 10.5 18.1062 10.9922 18.3374Z" fill="white"/>
<path d="M16.6719 16.6792C15.5 17.1017 14.6875 18.2815 14.6875 19.565C14.6875 20.8883 15.5781 22.124 16.7812 22.4827C17.4687 22.69 18.3672 22.6103 18.9844 22.2994C21.2266 21.1753 21.2266 17.9626 18.9844 16.8306C18.5469 16.6074 18.3906 16.5755 17.7734 16.5516C17.25 16.5357 16.9687 16.5676 16.6719 16.6792ZM18.2734 18.3294C18.8203 18.6084 19.1328 19.3099 18.9844 19.8839C18.8203 20.5137 18.3125 20.9202 17.6953 20.9202C16.6328 20.9202 15.9922 19.8042 16.5234 18.8714C16.6406 18.6721 16.8437 18.4649 17.0156 18.3692C17.3594 18.1859 17.9687 18.1619 18.2734 18.3294Z" fill="white"/>
<path d="M24.0625 16.6473C23.5391 16.8227 23.1484 17.0858 22.75 17.5242C22.2109 18.138 22 18.6881 22 19.565C22 20.4419 22.2109 20.992 22.75 21.6058C23.375 22.2914 24.0312 22.5944 24.9609 22.5944C26.1953 22.5944 27.1562 21.9725 27.6875 20.8405C27.9062 20.3702 27.9297 20.2506 27.9297 19.565C27.9297 18.8794 27.9062 18.7599 27.6875 18.2895C27.3125 17.4843 26.6562 16.8944 25.8672 16.6473C25.4375 16.5197 24.4453 16.5118 24.0625 16.6473ZM25.6172 18.3772C26.0625 18.6323 26.2891 19.0309 26.2891 19.565C26.2891 20.3542 25.7266 20.9203 24.9531 20.9203C24.5 20.9203 24.1719 20.7369 23.8594 20.3144C23.6719 20.0673 23.6328 19.9397 23.6328 19.565C23.6328 19.1903 23.6719 19.0628 23.8594 18.8157C23.9766 18.6483 24.1875 18.449 24.3281 18.3613C24.6562 18.154 25.2422 18.162 25.6172 18.3772Z" fill="white"/>
<path d="M31.1406 16.7271C29.9687 17.2293 29.2812 18.2736 29.2812 19.5651C29.2812 20.8884 30.0234 21.9726 31.2266 22.435C31.875 22.6821 32.8984 22.6423 33.5312 22.3393C34.1094 22.0683 34.7187 21.4465 34.9844 20.8565C35.1719 20.4579 35.1953 20.3065 35.1953 19.5651C35.1953 18.8237 35.1719 18.6722 34.9844 18.2736C34.7187 17.6837 34.1094 17.0619 33.5312 16.7909C33.1641 16.6155 32.9531 16.5756 32.3437 16.5517C31.7031 16.5358 31.5391 16.5597 31.1406 16.7271ZM32.8672 18.3374C33.7266 18.7599 33.8437 20.0514 33.0781 20.6493C32.6172 21.016 31.8437 21 31.4062 20.6254C30.7734 20.0912 30.7422 19.1187 31.3437 18.5527C31.7109 18.1939 32.375 18.1062 32.8672 18.3374Z" fill="white"/>
<path d="M16.6719 24.9701C15.5 25.3926 14.6875 26.5724 14.6875 27.8559C14.6875 29.1792 15.5781 30.4149 16.7812 30.7736C17.4687 30.9809 18.3672 30.9012 18.9844 30.5903C21.2266 29.4662 21.2266 26.2535 18.9844 25.1215C18.5469 24.8983 18.3906 24.8664 17.7734 24.8425C17.25 24.8266 16.9687 24.8584 16.6719 24.9701ZM18.2734 26.6202C18.8203 26.8993 19.1328 27.6008 18.9844 28.1748C18.8203 28.8046 18.3125 29.2111 17.6953 29.2111C16.6328 29.2111 15.9922 28.0951 16.5234 27.1623C16.6406 26.963 16.8437 26.7558 17.0156 26.6601C17.3594 26.4767 17.9687 26.4528 18.2734 26.6202Z" fill="white"/>
<path d="M24.0625 24.9381C23.5391 25.1134 23.1484 25.3765 22.75 25.815C22.2109 26.4288 22 26.9789 22 27.8558C22 28.7327 22.2109 29.2828 22.75 29.8966C23.375 30.5822 24.0312 30.8851 24.9609 30.8851C26.1953 30.8851 27.1562 30.2633 27.6875 29.1313C27.9062 28.661 27.9297 28.5414 27.9297 27.8558C27.9297 27.1702 27.9062 27.0506 27.6875 26.5803C27.3125 25.7751 26.6562 25.1852 25.8672 24.9381C25.4375 24.8105 24.4453 24.8025 24.0625 24.9381ZM25.6172 26.668C26.0625 26.9231 26.2891 27.3217 26.2891 27.8558C26.2891 28.645 25.7266 29.211 24.9531 29.211C24.5 29.211 24.1719 29.0277 23.8594 28.6052C23.6719 28.358 23.6328 28.2305 23.6328 27.8558C23.6328 27.4811 23.6719 27.3536 23.8594 27.1064C23.9766 26.939 24.1875 26.7397 24.3281 26.652C24.6562 26.4448 25.2422 26.4527 25.6172 26.668Z" fill="white"/>
<path d="M31.1406 25.0179C29.9687 25.5201 29.2812 26.5644 29.2812 27.8559C29.2812 29.1792 30.0234 30.2634 31.2266 30.7258C31.875 30.9729 32.8984 30.933 33.5312 30.6301C34.1094 30.3591 34.7187 29.7372 34.9844 29.1473C35.1719 28.7487 35.1953 28.5973 35.1953 27.8559C35.1953 27.1145 35.1719 26.963 34.9844 26.5644C34.7187 25.9745 34.1094 25.3527 33.5312 25.0816C33.1641 24.9062 32.9531 24.8664 32.3437 24.8425C31.7031 24.8265 31.5391 24.8504 31.1406 25.0179ZM32.8672 26.6282C33.7266 27.0507 33.8437 28.3422 33.0781 28.94C32.6172 29.3068 31.8437 29.2908 31.4062 28.9161C30.7734 28.382 30.7422 27.4094 31.3437 26.8434C31.7109 26.4847 32.375 26.397 32.8672 26.6282Z" fill="white"/>
<path d="M22.2501 35.6922C21.797 36.1227 21.9532 36.888 22.5235 37.0793C23.2032 37.3105 23.7892 36.6648 23.5157 35.9872C23.3126 35.4929 22.6251 35.3335 22.2501 35.6922Z" fill="white"/>
</g>
<defs>
<clipPath id="clip0_969_9394">
<rect width="40" height="40.8163" fill="white" transform="translate(0 0.591797)"/>
</clipPath>
</defs>
</svg>
