<svg width="40" height="40" viewBox="0 0 40 40" fill="none" xmlns="http://www.w3.org/2000/svg">
<g clip-path="url(#clip0_969_9456)">
<path d="M7.10937 0.164062C4.82812 0.757812 3.09375 2.5625 2.61719 4.84375C2.46875 5.55469 2.46875 6.85156 2.61719 7.49219C2.6875 7.76562 2.82812 8.21875 2.94531 8.50781C3.34375 9.52344 3.74219 10.0156 5.98437 12.2656L8.11719 14.4141L8 14.8047C7.73437 15.6484 8.00781 16.7422 8.64062 17.375C9.27344 18.0078 10.3672 18.2812 11.2109 18.0156L11.6016 17.8984L16.6016 22.8828C22.9922 29.25 23.0391 29.2812 26.1797 30.3203C27.9687 30.9062 28.6562 31.2266 29.7031 31.9766C30.375 32.4609 31.6797 33.5703 32.1719 34.0781L32.4297 34.3516L32.1484 34.8047C31.5937 35.7266 31.3672 36.6172 31.4844 37.4219C31.625 38.4141 32.2656 39.2891 33.1641 39.7344C33.5937 39.9453 33.7031 39.9609 34.4922 39.9609C35.2734 39.9609 35.3906 39.9375 35.7891 39.75C36.3828 39.4531 36.9297 38.8984 37.2187 38.2812C37.4375 37.8203 37.4609 37.7031 37.4609 36.9922C37.4609 36.3516 37.4297 36.1172 37.2656 35.7031C37.0391 35.1016 36.3125 33.9922 35.8672 33.5625L35.5469 33.25L36.2734 32.5078C37.0234 31.7344 37.1875 31.4297 37.1875 30.8516C37.1797 30.4141 36.9375 30 36.2031 29.2188C34.2422 27.1406 33.6094 26.0938 32.8516 23.7109C32.25 21.8281 31.8203 20.9766 30.8359 19.6875C30.6172 19.4062 28.1797 16.9141 25.4219 14.1406L20.3984 9.10156L20.5156 8.75C20.6797 8.28125 20.6328 7.35156 20.4062 6.85938C20.2031 6.39062 19.625 5.8125 19.1562 5.60938C18.6484 5.38281 17.7812 5.33594 17.2969 5.5L16.9219 5.625L14.7266 3.45312C12.4922 1.22656 12.1562 0.945312 11.3047 0.546875C10.1172 -0.015625 8.38281 -0.171875 7.10937 0.164062ZM10.0625 1.82812C11.0391 2.17969 11.3047 2.39844 13.5078 4.57812L15.6562 6.70312L15.4453 6.95312C14.9609 7.52344 15.3125 8.28125 16.0547 8.28125C16.4062 8.28125 16.4531 8.25781 17.0312 7.6875C17.5312 7.20312 17.6953 7.08594 17.9453 7.05469C18.5391 6.97656 18.9844 7.39062 18.9844 8.02344C18.9844 8.30469 18.8516 8.44531 14.9844 12.3203C12.7812 14.5234 10.8906 16.3594 10.7656 16.4141C10.1328 16.6719 9.39844 16.0156 9.57031 15.3359C9.59375 15.2188 10.0937 14.6484 10.75 13.9766C11.8359 12.8672 11.875 12.8125 11.875 12.5C11.875 12.0938 11.7734 11.9062 11.4844 11.7578C10.9922 11.5078 10.8281 11.5781 9.98437 12.3984L9.21094 13.1641L7.19531 11.1328C4.5625 8.49219 4.25 8 4.16406 6.40625C4.05469 4.35938 5.14844 2.69531 7.11719 1.89844C7.92969 1.57031 9.25781 1.53906 10.0625 1.82812ZM20.3125 11.3672L21.2812 12.3359L20.4531 13.1875C20 13.6484 19.6016 14.1094 19.5703 14.2109C19.3828 14.8203 19.9687 15.4375 20.5937 15.2812C20.7109 15.25 21.1875 14.8516 21.6562 14.3906L22.5078 13.5625L23.5 14.5547L24.4844 15.5391L23.6094 16.4297C22.7734 17.2812 22.7344 17.3359 22.7344 17.6484C22.7344 18.1328 23.0547 18.4375 23.5625 18.4375C23.9297 18.4375 23.9375 18.4297 24.7969 17.5781L25.6641 16.7188L26.6562 17.7188L27.6562 18.7109L26.7734 19.5938C25.9141 20.4531 25.8984 20.4766 25.8984 20.8281C25.8984 21.1328 25.9375 21.2188 26.1641 21.4219C26.3984 21.6328 26.4687 21.6562 26.7812 21.6172C27.1016 21.5859 27.1953 21.5156 27.9687 20.7422L28.8125 19.8984L29.0781 20.1953C29.6719 20.8672 30.2656 21.7266 30.5937 22.3828C30.7812 22.7734 30.9375 23.1328 30.9375 23.1875C30.9375 23.2578 29.6094 23.2812 25.1328 23.2812H19.3359L16.0937 20.0391L12.8516 16.7969L16.0547 13.5938C17.8125 11.8359 19.2734 10.3906 19.2969 10.3906C19.3203 10.3906 19.7734 10.8281 20.3125 11.3672ZM31.7422 25.625C32.3047 27.1094 33.1562 28.3594 34.9531 30.3516L35.5 30.9453L34.4687 31.9688L33.4453 33L32.8984 32.4766C32.0469 31.6797 30.9609 30.7969 30.2656 30.3438C29.2656 29.6875 28.4297 29.3125 26.8359 28.7969C26.0234 28.5234 25.0703 28.1641 24.7266 27.9844C23.8984 27.5547 22.9687 26.8359 21.875 25.7891L20.9766 24.9297L26.2344 24.9453L31.4922 24.9609L31.7422 25.625ZM35.0469 35.1719C35.5156 35.7734 35.8594 36.5234 35.8594 36.9297C35.8594 38.0469 34.7344 38.7188 33.7969 38.1719C32.7578 37.5625 32.9219 36.25 34.2031 34.8281C34.5156 34.4844 34.5234 34.4844 35.0469 35.1719Z" fill="white"/>
<path d="M13.2344 9.21094C12.9844 9.32031 12.7344 9.67969 12.7344 9.9375C12.7344 10.4141 13.0859 10.7812 13.5547 10.7812C14.2656 10.7812 14.6328 9.97656 14.1641 9.45312C13.9297 9.19531 13.5234 9.09375 13.2344 9.21094Z" fill="white"/>
</g>
<defs>
<clipPath id="clip0_969_9456">
<rect width="40" height="40" fill="white"/>
</clipPath>
</defs>
</svg>
