<svg width="41" height="30" viewBox="0 0 41 30" fill="none" xmlns="http://www.w3.org/2000/svg">
<path d="M24.207 0C26.132 0 27.9787 0.764888 29.3398 2.12598L38.5186 11.3047C39.8797 12.6658 40.6445 14.5117 40.6445 16.4365V18.8701C40.6445 22.0689 38.5743 24.7816 35.7012 25.748C35.2056 28.1743 33.0591 30 30.4863 30C28.05 29.9999 25.9979 28.362 25.3662 26.1279H16.252C15.6203 28.3622 13.5674 30 11.1309 30C8.65241 30 6.56899 28.306 5.97656 26.0127C2.57947 25.4073 1.15799e-05 22.4411 0 18.8701V7.25781C0 3.24953 3.24942 8.65514e-05 7.25781 0H24.207ZM11.1309 22.2578C9.7947 22.2578 8.71191 23.3416 8.71191 24.6777C8.71208 26.0137 9.7948 27.0967 11.1309 27.0967C12.4669 27.0967 13.5496 26.0137 13.5498 24.6777C13.5498 23.3416 12.467 22.2578 11.1309 22.2578ZM30.4863 22.2578C29.1503 22.258 28.0674 23.3417 28.0674 24.6777C28.0675 26.0136 29.1504 27.0965 30.4863 27.0967C31.8224 27.0967 32.9061 26.0137 32.9062 24.6777C32.9062 23.3416 31.8225 22.2578 30.4863 22.2578ZM13.0684 5.80859C12.2667 5.80859 11.6162 6.4581 11.6162 7.25977V9.67773H9.19336C8.39173 9.67773 7.74131 10.3273 7.74121 11.1289C7.74121 11.9306 8.39167 12.5811 9.19336 12.5811H11.6162V15.001C11.6162 15.8026 12.2667 16.4531 13.0684 16.4531C13.87 16.4531 14.5195 15.8026 14.5195 15.001V12.5811H16.9346C17.7363 12.5811 18.3867 11.9306 18.3867 11.1289C18.3866 10.3273 17.7362 9.67773 16.9346 9.67773H14.5195V7.25977C14.5195 6.45813 13.87 5.80864 13.0684 5.80859ZM23.2256 8.22852C23.2257 11.1678 25.6084 13.5508 28.5479 13.5508H30.4834V10.6475H28.5479C27.2118 10.6475 26.1291 9.56449 26.1289 8.22852V6.29297H23.2256V8.22852Z" fill="white"/>
</svg>
