<svg width="78" height="59" viewBox="0 0 78 59" fill="none" xmlns="http://www.w3.org/2000/svg">
<path d="M46.1954 7.75459H31.8046C31.0852 7.75459 30.6055 7.27135 30.6055 6.54649C30.6055 5.82163 31.0852 5.33838 31.8046 5.33838H46.1954C46.9148 5.33838 47.3946 5.82163 47.3946 6.54649C47.3946 7.27135 46.9148 7.75459 46.1954 7.75459Z" fill="#DB0F00"/>
<path d="M24.6094 13.7945C22.5708 13.7945 21.0117 12.224 21.0117 10.1702V4.12968C21.0117 2.0759 22.5708 0.505371 24.6094 0.505371C26.6481 0.505371 28.2071 2.0759 28.2071 4.12968V10.1702C28.2071 12.224 26.6481 13.7945 24.6094 13.7945ZM24.6094 2.92158C23.8898 2.92158 23.4102 3.40482 23.4102 4.12968V10.1702C23.4102 10.8951 23.8898 11.3783 24.6094 11.3783C25.329 11.3783 25.8086 10.8951 25.8086 10.1702V4.12968C25.8086 3.40482 25.329 2.92158 24.6094 2.92158Z" fill="#DB0F00"/>
<path d="M53.3907 13.7945C51.352 13.7945 49.793 12.224 49.793 10.1702V4.12968C49.793 2.0759 51.352 0.505371 53.3907 0.505371C55.4293 0.505371 56.9884 2.0759 56.9884 4.12968V10.1702C56.9884 12.224 55.4293 13.7945 53.3907 13.7945ZM53.3907 2.92158C52.6711 2.92158 52.1915 3.40482 52.1915 4.12968V10.1702C52.1915 10.8951 52.6711 11.3783 53.3907 11.3783C54.1102 11.3783 54.5898 10.8951 54.5898 10.1702V4.12968C54.5898 3.40482 54.1102 2.92158 53.3907 2.92158Z" fill="#DB0F00"/>
<path d="M71.379 5.33838H60.5859C59.8665 5.33838 59.3867 5.82163 59.3867 6.54649C59.3867 7.27135 59.8665 7.75459 60.5859 7.75459H71.379C73.4176 7.75459 74.9766 9.32512 74.9766 11.3789V17.4194H3.02344V11.3789C3.02344 9.32512 4.58242 7.75459 6.62109 7.75459H17.4141C18.1336 7.75459 18.6133 7.27135 18.6133 6.54649C18.6133 5.82163 18.1336 5.33838 17.4141 5.33838H6.62109C3.26329 5.33838 0.625 7.99621 0.625 11.3789V52.4543C0.625 55.837 3.26329 58.4949 6.62109 58.4949H71.379C74.7367 58.4949 77.375 55.837 77.375 52.4543V11.3789C77.375 7.99621 74.7367 5.33838 71.379 5.33838ZM71.379 56.0786H6.62109C4.58242 56.0786 3.02344 54.5082 3.02344 52.4543V19.8356H74.9766V52.4543C74.9766 54.5082 73.4176 56.0786 71.379 56.0786Z" fill="#DB0F00"/>
<path d="M30.6054 52.4544H11.418C10.6984 52.4544 10.2188 51.9712 10.2188 51.2464V24.668C10.2188 23.9431 10.6984 23.46 11.418 23.46H30.6054C31.325 23.46 31.8046 23.9431 31.8046 24.668V51.2464C31.8046 51.9712 31.325 52.4544 30.6054 52.4544ZM12.6172 50.0381H29.4062V25.8762H12.6172V50.0381Z" fill="#DB0F00"/>
<path d="M66.5821 28.2917H40.1992C39.4796 28.2917 39 27.8084 39 27.0835C39 26.3587 39.4796 25.8755 40.1992 25.8755H66.5821C67.3017 25.8755 67.7812 26.3587 67.7812 27.0835C67.7812 27.8084 67.3017 28.2917 66.5821 28.2917Z" fill="#DB0F00"/>
<path d="M66.5821 35.5403H40.1992C39.4796 35.5403 39 35.0569 39 34.3321C39 33.6072 39.4796 33.124 40.1992 33.124H66.5821C67.3017 33.124 67.7812 33.6072 67.7812 34.3321C67.7812 35.0569 67.3017 35.5403 66.5821 35.5403Z" fill="#DB0F00"/>
<path d="M66.5821 42.7888H40.1992C39.4796 42.7888 39 42.3055 39 41.5806C39 40.8557 39.4796 40.3726 40.1992 40.3726H66.5821C67.3017 40.3726 67.7812 40.8557 67.7812 41.5806C67.7812 42.3055 67.3017 42.7888 66.5821 42.7888Z" fill="#DB0F00"/>
<path d="M66.5821 50.0378H40.1992C39.4796 50.0378 39 49.5545 39 48.8296C39 48.1048 39.4796 47.6216 40.1992 47.6216H66.5821C67.3017 47.6216 67.7812 48.1048 67.7812 48.8296C67.7812 49.5545 67.3017 50.0378 66.5821 50.0378Z" fill="#DB0F00"/>
</svg>
