<svg width="74" height="65" viewBox="0 0 74 65" fill="none" xmlns="http://www.w3.org/2000/svg">
<path d="M19.9505 37.6586H26.7705C27.4525 37.6586 27.9071 37.2002 27.9071 36.5123V33.0735H31.3171C31.9992 33.0735 32.4537 32.6149 32.4537 31.9272V25.0493C32.4537 24.3616 31.9992 23.903 31.3171 23.903H27.9071V20.464C27.9071 19.7763 27.4525 19.3179 26.7705 19.3179H19.9505C19.2684 19.3179 18.8138 19.7763 18.8138 20.464V23.903H15.4039C14.7219 23.903 14.2672 24.3616 14.2672 25.0493V31.9272C14.2672 32.6149 14.7219 33.0735 15.4039 33.0735H18.8138V36.5123C18.8138 37.2002 19.2684 37.6586 19.9505 37.6586ZM25.6339 35.366H21.0871V31.9272C21.0871 31.2393 20.6325 30.7809 19.9505 30.7809H16.5405V26.1956H19.9505C20.6325 26.1956 21.0871 25.7371 21.0871 25.0493V21.6103H25.6339V25.0493C25.6339 25.7371 26.0885 26.1956 26.7705 26.1956H30.1803V30.7809H26.7705C26.0885 30.7809 25.6339 31.2393 25.6339 31.9272V35.366Z" fill="#DB0F00"/>
<path d="M30.18 57.1455H43.82C44.5019 57.1455 44.9566 56.687 44.9566 55.9993C44.9566 55.3115 44.5019 54.853 43.82 54.853H30.18C29.4981 54.853 29.0433 55.3115 29.0433 55.9993C29.0433 56.687 29.4981 57.1455 30.18 57.1455Z" fill="#DB0F00"/>
<path d="M55.1869 64.0232C59.6199 64.0232 63.1435 60.4696 63.1435 55.9992C63.1435 51.5285 59.6199 47.9751 55.1869 47.9751C50.7539 47.9751 47.2302 51.5285 47.2302 55.9992C47.2302 60.4696 50.7539 64.0232 55.1869 64.0232ZM55.1869 50.2676C58.3696 50.2676 60.8701 52.7894 60.8701 55.9992C60.8701 59.2087 58.3696 61.7306 55.1869 61.7306C52.0041 61.7306 49.5036 59.2087 49.5036 55.9992C49.5036 52.7894 52.0041 50.2676 55.1869 50.2676Z" fill="#DB0F00"/>
<path d="M55.1869 59.4378C57.1192 59.4378 58.5969 57.9476 58.5969 55.9988C58.5969 54.0502 57.1192 52.5601 55.1869 52.5601C53.2546 52.5601 51.7769 54.0502 51.7769 55.9988C51.7769 57.9476 53.2546 59.4378 55.1869 59.4378ZM55.1869 54.8525C55.8689 54.8525 56.3235 55.3112 56.3235 55.9988C56.3235 56.6867 55.8689 57.1452 55.1869 57.1452C54.5048 57.1452 54.0503 56.6867 54.0503 55.9988C54.0503 55.3112 54.5048 54.8525 55.1869 54.8525Z" fill="#DB0F00"/>
<path d="M18.8135 64.0232C23.2465 64.0232 26.7702 60.4696 26.7702 55.9992C26.7702 51.5285 23.2465 47.9751 18.8135 47.9751C14.3806 47.9751 10.8569 51.5285 10.8569 55.9992C10.8569 60.4696 14.3806 64.0232 18.8135 64.0232ZM18.8135 50.2676C21.9963 50.2676 24.4968 52.7894 24.4968 55.9992C24.4968 59.2087 21.9963 61.7306 18.8135 61.7306C15.6309 61.7306 13.1303 59.2087 13.1303 55.9992C13.1303 52.7894 15.6309 50.2676 18.8135 50.2676Z" fill="#DB0F00"/>
<path d="M18.8135 59.4378C20.7458 59.4378 22.2236 57.9476 22.2236 55.9988C22.2236 54.0502 20.7458 52.5601 18.8135 52.5601C16.8812 52.5601 15.4036 54.0502 15.4036 55.9988C15.4036 57.9476 16.8812 59.4378 18.8135 59.4378ZM18.8135 54.8525C19.4956 54.8525 19.9502 55.3112 19.9502 55.9988C19.9502 56.6867 19.4956 57.1452 18.8135 57.1452C18.1315 57.1452 17.6769 56.6867 17.6769 55.9988C17.6769 55.3112 18.1315 54.8525 18.8135 54.8525Z" fill="#DB0F00"/>
<path d="M6.31023 13.5855H44.9566V12.4392C44.9566 9.91734 47.0026 7.854 49.5033 7.854C52.0038 7.854 54.0499 9.91734 54.0499 12.4392V13.5855H60.8698C67.8034 13.5855 73.373 19.2024 73.373 26.1949V51.4135C73.373 54.6231 70.8724 57.1449 67.6898 57.1449H66.553C65.8711 57.1449 65.4164 56.6865 65.4164 55.9986C65.4164 55.3109 65.8711 54.8523 66.553 54.8523H67.6898C69.6221 54.8523 71.0998 53.3621 71.0998 51.4135V37.6579H50.6399C47.4573 37.6579 44.9566 35.136 44.9566 31.9263V19.317C44.9566 18.6293 45.4112 18.1707 46.0933 18.1707C46.7753 18.1707 47.2299 18.6293 47.2299 19.317V31.9263C47.2299 33.8751 48.7076 35.3652 50.6399 35.3652H71.0998V26.1949C71.0998 20.4633 66.553 15.8781 60.8698 15.8781H52.9133H46.0933H6.31023C4.37792 15.8781 2.90027 17.3684 2.90027 19.317V51.4135C2.90027 53.3621 4.37792 54.8523 6.31023 54.8523H7.4469C8.12889 54.8523 8.58356 55.3109 8.58356 55.9986C8.58356 56.6865 8.12889 57.1449 7.4469 57.1449H6.31023C3.12761 57.1449 0.626953 54.6231 0.626953 51.4135V19.317C0.626953 16.1074 3.12761 13.5855 6.31023 13.5855ZM51.7765 13.5855V12.4392C51.7765 11.1783 50.7535 10.1466 49.5033 10.1466C48.2528 10.1466 47.2299 11.1783 47.2299 12.4392V13.5855H51.7765Z" fill="#DB0F00"/>
<path d="M49.5032 5.56177C50.1853 5.56177 50.6399 5.10325 50.6399 4.41546V2.12286C50.6399 1.43508 50.1853 0.976562 49.5032 0.976562C48.8212 0.976562 48.3665 1.43508 48.3665 2.12286V4.41546C48.3665 5.10325 48.8212 5.56177 49.5032 5.56177Z" fill="#DB0F00"/>
<path d="M56.7771 8.54244C57.1181 8.54244 57.3454 8.42782 57.5728 8.19856L59.164 6.59373C59.6187 6.1352 59.6187 5.44743 59.164 4.9889C58.7094 4.53039 58.0274 4.53039 57.5728 4.9889L55.9814 6.59373C55.5267 7.05226 55.5267 7.74003 55.9814 8.19856C56.2087 8.42782 56.436 8.54244 56.7771 8.54244Z" fill="#DB0F00"/>
<path d="M42.2286 8.54244C42.5695 8.54244 42.7968 8.42782 43.0243 8.19856C43.4789 7.74003 43.4789 7.05226 43.0243 6.59373L41.4329 4.9889C40.9782 4.53039 40.2963 4.53039 39.8415 4.9889C39.387 5.44743 39.387 6.1352 39.8415 6.59373L41.4329 8.19856C41.6602 8.42782 42.0013 8.54244 42.2286 8.54244Z" fill="#DB0F00"/>
</svg>
