<svg width="40" height="40" viewBox="0 0 40 40" fill="none" xmlns="http://www.w3.org/2000/svg">
<g clip-path="url(#clip0_969_9460)">
<path d="M17.0937 0.148407C16.1875 0.343719 15.7109 0.507782 14.9609 0.867157C12.2422 2.16403 10.3125 4.73434 9.84375 7.71091C9.73438 8.36716 9.73438 9.99216 9.84375 10.6484C10.0781 12.1484 10.6875 13.5625 11.6328 14.8047C12.1094 15.4297 14.0391 17.4062 14.3125 17.5468C14.8984 17.8515 15.5469 17.4687 15.5469 16.8125C15.5469 16.5 15.2578 16.1406 14.1406 15.039C13.3125 14.2265 12.5781 13.3828 12.5781 13.2422C12.5781 13.2187 13.8203 13.2031 15.3359 13.2031C18.375 13.2031 18.6094 13.1718 19.2812 12.7422C19.8437 12.3828 20.0156 12.125 20.8125 10.3984C21.4141 9.12497 21.5625 8.85934 21.7344 8.79684C22.2031 8.63278 22.2109 8.64841 23.6641 12.9609C24.4219 15.2343 25.0859 17.0859 25.2031 17.2578C25.5859 17.8437 26.1719 18.1328 26.9531 18.1406C27.7891 18.1484 28.4922 17.7578 28.8359 17.0859C28.9219 16.9297 29.2891 15.9453 29.6562 14.8984C30.4453 12.6875 30.4766 12.6172 30.8047 12.4218C31.0391 12.2734 31.2187 12.2656 34.3984 12.2656H37.7344L37.5703 12.5937C37.1016 13.5156 36.5391 14.1328 31.8984 18.7578C27.5312 23.1172 27.1094 23.5156 26.6406 23.7343C25.7422 24.1484 24.8281 24.25 23.9453 24.0234C23.0234 23.789 22.6875 23.5547 21.4453 22.3437C20.8047 21.7109 20.1953 21.1484 20.1016 21.1015C20.0078 21.0547 19.8047 21.0156 19.6484 21.0156C19.0625 21.0156 18.7187 21.6797 19.0156 22.25C19.1562 22.5312 21.1094 24.4297 21.5859 24.7578C23.8047 26.2812 26.6953 26.0859 28.75 24.2734C29.1172 23.9531 31.3281 21.7656 33.6719 19.4062C38.1094 14.9453 38.4141 14.5937 39.0625 13.3047C39.7812 11.8593 40.0391 10.6172 39.9766 8.82809C39.9141 6.94528 39.4844 5.57809 38.4922 4.07809C37.1094 2.00778 35.0937 0.656219 32.6484 0.156219C31.5 -0.085968 29.6094 -0.039093 28.5156 0.249969C27.4375 0.539032 26.6328 0.906219 25.7031 1.52341L24.8828 2.07028L24.1016 1.54684C23.1953 0.937469 22.3203 0.539032 21.2578 0.257782C20.2187 -0.023468 18.125 -0.070343 17.0937 0.148407ZM20.9141 1.87497C21.7344 2.09372 22.9844 2.71872 23.5547 3.20309C24.8828 4.31247 24.9297 4.32028 25.9297 3.42184C26.4531 2.94528 27.3516 2.41403 28.125 2.11716C28.9844 1.78122 29.8203 1.63278 30.8203 1.63278C32.8359 1.63278 34.5781 2.33591 36.0156 3.72653C37.0781 4.74216 37.7812 5.92184 38.1328 7.24997C38.3125 7.91403 38.4141 9.47653 38.3281 10.1797L38.2734 10.6172L34.4297 10.6406L30.5859 10.664L30.1953 10.8515C29.7109 11.0937 29.2656 11.5 29.0312 11.9062C28.9297 12.0859 28.5234 13.1406 28.125 14.2578C27.7344 15.375 27.3672 16.3359 27.3047 16.3984C27.1562 16.5468 26.8047 16.5312 26.6406 16.3593C26.5547 16.2734 25.9375 14.5468 25.2109 12.375C24.5 10.2734 23.8516 8.39841 23.7656 8.22653C23.3984 7.50778 22.5078 7.04684 21.6641 7.13278C21.1641 7.18747 20.5312 7.51559 20.2344 7.88278C20.1094 8.02341 19.7266 8.78122 19.375 9.56247C19.0234 10.3437 18.6641 11.0625 18.5703 11.164C18.2109 11.5547 18.1172 11.5625 14.8125 11.5625H11.7344L11.6016 11C11.0859 8.89841 11.5312 6.55466 12.7734 4.80466C13.2109 4.19528 14.2109 3.22653 14.7969 2.85153C16.625 1.67966 18.8828 1.32028 20.9141 1.87497Z" fill="white"/>
<path d="M16.8047 18.625C16.5625 18.7578 16.4141 19.039 16.4062 19.3593C16.4062 19.5625 16.4766 19.6953 16.6797 19.8984C16.9297 20.1484 16.9844 20.1718 17.2891 20.1328C17.7188 20.0703 18.0469 19.7265 18.0469 19.3281C18.0469 19.1093 17.9844 18.9843 17.7812 18.7812C17.4922 18.4921 17.1484 18.4375 16.8047 18.625Z" fill="white"/>
<path d="M13.75 25.1328C13 25.2109 12.125 25.4531 10.1953 26.1094L8.08594 26.8281L4.23438 26.875L0.375 26.9141L0.1875 27.1328C-0.0703125 27.4375 -0.0703125 27.9531 0.1875 28.2578L0.375 28.4766L4.25781 28.5L8.14844 28.5234L10.6172 27.7031C13.5 26.7422 14.0938 26.6328 15.4063 26.7812C16.2969 26.8906 17.3984 27.2344 18.0859 27.6172C18.9844 28.125 27.375 33.8672 27.5313 34.0859C27.7578 34.3906 27.7578 35.0625 27.5313 35.3594C27.2891 35.6875 27.0078 35.8672 26.6641 35.9141C26.3828 35.9531 25.8594 35.75 21.6406 33.9531C18.1719 32.4766 16.8438 31.9531 16.625 31.9531C15.9375 31.9531 15.6016 32.7734 16.0781 33.2734C16.2344 33.4453 17.3438 33.9453 20.5078 35.2812C22.8281 36.2578 24.75 37.0781 24.7891 37.1094C24.8594 37.1719 21.3047 38.1719 20.625 38.2812C19.9063 38.3906 18.1953 38.375 17.5 38.25C17.1797 38.1875 15.25 37.6797 13.2188 37.1172L9.53125 36.0938H4.99219H0.453125L0.226563 36.3203C0.046875 36.5 9.31323e-10 36.6172 9.31323e-10 36.875C9.31323e-10 37.2812 0.101563 37.4688 0.390625 37.6172C0.585938 37.7188 1.23438 37.7344 4.9375 37.7344H9.25781L12.9297 38.75C14.9531 39.3125 16.9219 39.8203 17.3047 39.8828C18.2188 40.0312 20.0703 40.0312 21.0078 39.8828C21.4063 39.8125 24.5 38.9688 27.8828 38C37.0703 35.3672 38.2578 35.0156 38.5781 34.8516C39.0156 34.625 39.5313 34.0781 39.7578 33.5938C39.9375 33.2188 39.9609 33.0625 39.9609 32.3438C39.9609 31.6016 39.9375 31.4844 39.7422 31.1094C39.1797 30.0312 37.9922 29.4297 36.8203 29.6094C36.5938 29.6484 34.4922 30.2266 32.1484 30.8984C29.8047 31.5703 27.8359 32.1016 27.7656 32.0781C27.7031 32.0547 25.7891 30.7734 23.5313 29.2422C19.2344 26.3281 18.3125 25.7812 17.1094 25.4375C16.0625 25.1406 14.7891 25.0234 13.75 25.1328ZM37.5 31.25C37.6563 31.2891 37.8984 31.4531 38.0469 31.6016C38.3047 31.8672 38.3203 31.9219 38.3203 32.3828C38.3203 32.8594 38.3047 32.9062 38.0469 33.1641C37.7891 33.4219 37.5781 33.4922 33.9453 34.5312C31.8438 35.1406 29.8984 35.7031 29.625 35.7812L29.1328 35.9219L29.1875 35.7578C29.4063 35.0703 29.4297 34.5 29.25 33.9141C29.1875 33.6875 29.1406 33.4922 29.1563 33.4844C29.1797 33.4609 37.125 31.1797 37.1875 31.1797C37.2109 31.1719 37.3516 31.2109 37.5 31.25Z" fill="white"/>
</g>
<defs>
<clipPath id="clip0_969_9460">
<rect width="40" height="40" fill="white"/>
</clipPath>
</defs>
</svg>
