<svg width="33" height="30" viewBox="0 0 33 30" fill="none" xmlns="http://www.w3.org/2000/svg">
<path d="M14.7998 0.177934C15.9109 -0.0593113 17.0891 -0.0593113 18.2002 0.177934L28.5127 2.38008C31.1687 2.94733 32.9998 4.76186 33 6.82637V15.1115C32.9998 19.5917 30.1046 23.7956 25.2266 26.3996L20.0967 29.1389C17.9453 30.2874 15.0547 30.2874 12.9033 29.1389L7.77344 26.3996C2.89547 23.7956 0.000182636 19.5917 0 15.1115V6.82637C0.000157665 4.76188 1.83128 2.94734 4.4873 2.38008L14.7998 0.177934ZM10.3994 7.0002L7 9.07637V11.2404L10.1973 9.29512H10.2803V20.0002H12.7432V7.0002H10.3994ZM20.167 7.0002L14.3506 15.716V17.592H20.874V20.0002H23.2451V17.592H25V15.6555H23.2451V7.0002H20.167ZM20.9111 9.67012V15.6555H16.8867V15.551L20.8008 9.67012H20.9111Z" fill="white"/>
</svg>
