<svg width="34" height="30" viewBox="0 0 34 30" fill="none" xmlns="http://www.w3.org/2000/svg">
<path fill-rule="evenodd" clip-rule="evenodd" d="M11.7486 0.0835045C10.45 0.331778 9.42793 0.861179 8.48115 1.77601C8.0062 2.2349 7.50106 2.92449 7.20053 3.52421C7.09945 3.72594 6.56006 5.266 6.00188 6.94648L4.98701 10.002H16.9914H28.9959L27.9766 6.93894C27.416 5.25424 26.8763 3.71419 26.7774 3.51666C26.1745 2.31363 25.1 1.22871 23.9266 0.638481C22.6649 0.0038407 20.9864 -0.175052 19.6268 0.180196C18.7836 0.400557 17.6897 0.963814 17.1734 1.4436L16.9908 1.61321L16.8083 1.4436C16.2932 0.964882 15.2012 0.402093 14.3549 0.179061C13.6754 -3.24145e-05 12.4253 -0.0458408 11.7486 0.0835045ZM0 12.7426C0 14.3041 0.434594 15.4476 1.41681 16.4706C2.13248 17.2159 3.00632 17.7032 3.99617 17.9088C4.45326 18.0039 5.83357 18.0152 16.9908 18.0152C30.4826 18.0152 29.9144 18.0292 30.8217 17.672C31.6755 17.3358 32.6738 16.5111 33.1687 15.7331C33.7288 14.8527 33.9119 14.2121 33.962 12.9569L34 12.0053H17H0V12.7426ZM8.13768 21.1906C7.26193 21.3106 6.3496 21.5236 5.54193 21.7967L4.87823 22.0211L3.46786 22.0215L2.05748 22.0217V23.0234V24.025H3.05304H4.0486V24.25C4.0486 24.3737 4.094 24.7368 4.14948 25.0568C4.54843 27.3585 6.25356 29.2178 8.54294 29.8473C9.28808 30.0522 10.7605 30.0506 11.5153 29.8441C13.9728 29.1717 15.7402 27.0612 15.9685 24.5262L16.0136 24.025H17H17.9864V24.25C17.9864 24.3737 18.0318 24.7368 18.0873 25.0568C18.4862 27.3585 20.1914 29.2178 22.4807 29.8473C23.2259 30.0522 24.6983 30.0506 25.4531 29.8441C27.9106 29.1717 29.678 27.0612 29.9063 24.5262L29.9514 24.025H30.9378H31.9242V23.0234V22.0217H30.5051C29.17 22.0217 29.061 22.0122 28.6633 21.8618C28.4309 21.7738 27.8673 21.609 27.411 21.4955C24.8103 20.8483 21.8924 20.9655 19.4139 21.8167L18.8171 22.0217H16.9827C15.2094 22.0217 15.1342 22.0164 14.7256 21.8618C14.0792 21.6173 12.7318 21.3004 11.8603 21.188C10.905 21.0647 9.04709 21.066 8.13768 21.1906Z" fill="white"/>
</svg>
