<svg width="74" height="75" viewBox="0 0 74 75" fill="none" xmlns="http://www.w3.org/2000/svg">
<path d="M58.179 28.293C49.9364 28.293 43.2965 34.9682 43.2965 43.2547V59.3673C43.2965 66.3878 37.6869 72.0272 30.7035 72.0272C23.7201 72.0272 18.1107 66.3878 18.1107 59.3673V51.0808C19.4844 50.6204 20.4002 49.3544 20.4002 47.8583V44.4056H21.5451C23.4912 44.4056 24.9795 42.9094 24.9795 40.9529V39.802H27.2691C30.4746 39.802 32.9932 37.27 32.9932 34.0475V9.87858C32.9932 6.65606 30.4746 4.12409 27.2691 4.12409H24.9795V3.54864C24.9795 1.93738 23.4912 0.671387 21.5451 0.671387H12.3866C10.4404 0.671387 8.95214 1.93738 8.95214 3.54864V4.12409H6.66253C3.45706 4.12409 0.938477 6.65606 0.938477 9.87858V34.0475C0.938477 37.27 3.45706 39.802 6.66253 39.802H8.95214V40.9529C8.95214 42.9094 10.4404 44.4056 12.3866 44.4056H13.5314V47.8583C13.5314 49.3544 14.4472 50.6204 15.821 51.0808V59.3673C15.821 67.6537 22.4609 74.329 30.7035 74.329C38.9462 74.329 45.586 67.6537 45.586 59.3673V43.2547C45.586 36.2342 51.1957 30.5948 58.179 30.5948C65.1624 30.5948 70.7719 36.2342 70.7719 43.2547C70.7719 43.9452 71.2299 44.4056 71.9168 44.4056C72.6036 44.4056 73.0615 43.9452 73.0615 43.2547C73.0615 34.9682 66.4216 28.293 58.179 28.293ZM3.22809 34.0475V9.87858C3.22809 7.92205 4.71634 6.42589 6.66253 6.42589H10.097C10.7838 6.42589 11.2418 5.96553 11.2418 5.27499V3.54864C11.2418 3.31846 11.6997 2.97319 12.3866 2.97319H21.5451C22.232 2.97319 22.6899 3.31846 22.6899 3.54864V5.27499C22.6899 5.96553 23.1478 6.42589 23.8346 6.42589H27.2691C29.2153 6.42589 30.7035 7.92205 30.7035 9.87858V34.0475C30.7035 36.004 29.2153 37.5002 27.2691 37.5002H23.8346H10.097H6.66253C4.71634 37.5002 3.22809 36.004 3.22809 34.0475ZM11.2418 40.9529V39.802H22.6899V40.9529C22.6899 41.6434 22.232 42.1038 21.5451 42.1038H12.3866C11.6997 42.1038 11.2418 41.6434 11.2418 40.9529ZM15.821 44.4056H18.1107V47.8583C18.1107 48.5488 17.6528 49.0092 16.9658 49.0092C16.2789 49.0092 15.821 48.5488 15.821 47.8583V44.4056Z" fill="#DB0F00"/>
<path d="M13.5319 13.3316H6.663C5.97611 13.3316 5.51819 12.8712 5.51819 12.1807C5.51819 11.4901 5.97611 11.0298 6.663 11.0298H13.5319C14.2187 11.0298 14.6767 11.4901 14.6767 12.1807C14.6767 12.8712 14.2187 13.3316 13.5319 13.3316Z" fill="#DB0F00"/>
<path d="M10.0974 17.9351H6.663C5.97611 17.9351 5.51819 17.4747 5.51819 16.7842C5.51819 16.0937 5.97611 15.6333 6.663 15.6333H10.0974C10.7843 15.6333 11.2422 16.0937 11.2422 16.7842C11.2422 17.4747 10.7843 17.9351 10.0974 17.9351Z" fill="#DB0F00"/>
<path d="M13.5319 22.5381H6.663C5.97611 22.5381 5.51819 22.0778 5.51819 21.3872C5.51819 20.6967 5.97611 20.2363 6.663 20.2363H13.5319C14.2187 20.2363 14.6767 20.6967 14.6767 21.3872C14.6767 22.0778 14.2187 22.5381 13.5319 22.5381Z" fill="#DB0F00"/>
<path d="M10.0974 27.1421H6.663C5.97611 27.1421 5.51819 26.6818 5.51819 25.9912C5.51819 25.3007 5.97611 24.8403 6.663 24.8403H10.0974C10.7843 24.8403 11.2422 25.3007 11.2422 25.9912C11.2422 26.6818 10.7843 27.1421 10.0974 27.1421Z" fill="#DB0F00"/>
<path d="M13.5319 31.7456H6.663C5.97611 31.7456 5.51819 31.2853 5.51819 30.5947C5.51819 29.9042 5.97611 29.4438 6.663 29.4438H13.5319C14.2187 29.4438 14.6767 29.9042 14.6767 30.5947C14.6767 31.2853 14.2187 31.7456 13.5319 31.7456Z" fill="#DB0F00"/>
</svg>
