<svg width="62" height="73" viewBox="0 0 62 73" fill="none" xmlns="http://www.w3.org/2000/svg">
<g clip-path="url(#clip0_961_1822)">
<path d="M59.9783 29.6953C60.6601 29.6953 61.1146 29.2416 61.1146 28.5612V13.8175C61.1146 13.3639 60.8873 13.0236 60.5465 12.7968L55.4327 9.73466V5.87864C55.4327 2.70309 52.9326 0.208008 49.7506 0.208008H6.56739C3.38546 0.208008 0.885376 2.70309 0.885376 5.87864V67.1213C0.885376 70.297 3.38546 72.792 6.56739 72.792H49.7506C52.9326 72.792 55.4327 70.297 55.4327 67.1213V47.8413H59.9783C60.6601 47.8413 61.1146 47.3876 61.1146 46.7072V33.0977C61.1146 32.4172 60.6601 31.9635 59.9783 31.9635C59.2963 31.9635 58.8418 32.4172 58.8418 33.0977V45.573H55.4327V29.6953H59.9783ZM58.8418 14.498V27.427H55.4327V12.4566L58.8418 14.498ZM53.1599 67.1213C53.1599 69.0494 51.6826 70.5237 49.7506 70.5237H6.56739C4.6355 70.5237 3.15818 69.0494 3.15818 67.1213V5.87864C3.15818 3.95062 4.6355 2.47626 6.56739 2.47626H49.7506C51.6826 2.47626 53.1599 3.95062 53.1599 5.87864V10.4151V28.5612V67.1213Z" fill="#DB0F00"/>
<path d="M31.5682 27.4272H24.7497C24.0679 27.4272 23.6134 26.9737 23.6134 26.2931V22.8907H20.2041C19.5223 22.8907 19.0678 22.4372 19.0678 21.7566V14.9519C19.0678 14.2714 19.5223 13.8177 20.2041 13.8177H23.6134V10.4154C23.6134 9.7349 24.0679 9.28125 24.7497 9.28125H31.5682C32.25 9.28125 32.7046 9.7349 32.7046 10.4154V13.8177H36.1138C36.7956 13.8177 37.2502 14.2714 37.2502 14.9519V21.7566C37.2502 22.4372 36.7956 22.8907 36.1138 22.8907H32.7046V26.2931C32.7046 26.9737 32.25 27.4272 31.5682 27.4272ZM25.8862 25.1589H30.4318V21.7566C30.4318 21.0761 30.8863 20.6226 31.5682 20.6226H34.9774V16.0859H31.5682C30.8863 16.0859 30.4318 15.6323 30.4318 14.9519V11.5495H25.8862V14.9519C25.8862 15.6323 25.4316 16.0859 24.7497 16.0859H21.3406V20.6226H24.7497C25.4316 20.6226 25.8862 21.0761 25.8862 21.7566V25.1589Z" fill="#DB0F00"/>
<path d="M47.4778 44.4391H8.8402C8.15836 44.4391 7.7038 43.9855 7.7038 43.3049C7.7038 42.6245 8.15836 42.1709 8.8402 42.1709H47.4778C48.1596 42.1709 48.6143 42.6245 48.6143 43.3049C48.6143 43.9855 48.1596 44.4391 47.4778 44.4391Z" fill="#DB0F00"/>
<path d="M47.4778 51.2434H8.8402C8.15836 51.2434 7.7038 50.7897 7.7038 50.1093C7.7038 49.4288 8.15836 48.9751 8.8402 48.9751H47.4778C48.1596 48.9751 48.6143 49.4288 48.6143 50.1093C48.6143 50.7897 48.1596 51.2434 47.4778 51.2434Z" fill="#DB0F00"/>
</g>
<defs>
<clipPath id="clip0_961_1822">
<rect width="60.2293" height="72.584" fill="white" transform="translate(0.885376 0.208008)"/>
</clipPath>
</defs>
</svg>
