<svg width="94" height="55" viewBox="0 0 94 55" fill="none" xmlns="http://www.w3.org/2000/svg">
<g clip-path="url(#clip0_961_1884)">
<path d="M13.556 19.5952C12.6836 19.5952 12.1019 19.0204 12.1019 18.1581V8.09734C12.1019 4.07306 15.3009 0.911133 19.3724 0.911133H74.6276C78.6991 0.911133 81.8981 4.07306 81.8981 8.09734V13.8463C81.8981 14.7087 81.3164 15.2836 80.444 15.2836C79.5715 15.2836 78.9899 14.7087 78.9899 13.8463V8.09734C78.9899 5.65403 77.0996 3.78562 74.6276 3.78562H19.3724C16.9004 3.78562 15.0101 5.65403 15.0101 8.09734V18.1581C15.0101 19.0204 14.4285 19.5952 13.556 19.5952Z" fill="#DB0F00"/>
<path d="M80.444 23.9072C79.5715 23.9072 78.9899 24.482 78.9899 25.3445V39.7169C78.9899 42.1602 77.0996 44.0286 74.6276 44.0286H19.3724C16.9004 44.0286 15.0101 42.1602 15.0101 39.7169V29.6563C15.0101 28.7938 14.4285 28.219 13.556 28.219C12.6836 28.219 12.1019 28.7938 12.1019 29.6563V39.7169C12.1019 43.7411 15.3009 46.9031 19.3724 46.9031H45.5459V51.2148H36.8214C35.9489 51.2148 35.3673 51.7898 35.3673 52.6521C35.3673 53.5144 35.9489 54.0894 36.8214 54.0894H57.1786C58.0511 54.0894 58.6327 53.5144 58.6327 52.6521C58.6327 51.7898 58.0511 51.2148 57.1786 51.2148H48.4541V46.9031H74.6276C78.6991 46.9031 81.8981 43.7411 81.8981 39.7169V25.3445C81.8981 24.482 81.3164 23.9072 80.444 23.9072Z" fill="#DB0F00"/>
<path d="M55.7245 36.842C55.2883 36.842 54.8521 36.6984 54.5612 36.2672L36.676 14.5648L25.4795 25.0567C25.1887 25.2003 24.8979 25.3441 24.4617 25.3441H1.92332C1.05087 25.3441 0.469238 24.7692 0.469238 23.9069C0.469238 23.0445 1.05087 22.4696 1.92332 22.4696H23.88L35.8035 11.4029C36.0944 11.1154 36.5306 10.9717 36.9668 10.9717C37.403 10.9717 37.6938 11.2591 37.9847 11.5466L55.7245 33.249L69.1021 18.7327C69.3929 18.4454 69.8291 18.3016 70.12 18.3016H91.9313C92.8037 18.3016 93.3853 18.8765 93.3853 19.7389C93.3853 20.6013 92.8037 21.1761 91.9313 21.1761H70.847L56.7424 36.5547C56.597 36.6984 56.1607 36.842 55.7245 36.842Z" fill="#DB0F00"/>
</g>
<defs>
<clipPath id="clip0_961_1884">
<rect width="93.0615" height="53.178" fill="white" transform="translate(0.469238 0.911133)"/>
</clipPath>
</defs>
</svg>
