<svg width="60" height="69" viewBox="0 0 60 69" fill="none" xmlns="http://www.w3.org/2000/svg">
<g clip-path="url(#clip0_961_1889)">
<path d="M37.4765 64.4055C32.8838 64.0851 28.8252 62.0558 25.8346 58.7448C25.4074 58.3176 25.5142 57.6767 25.9414 57.2495C26.3686 56.8223 27.0095 56.9291 27.4367 57.3563C30.1068 60.2401 33.6315 62.0558 37.5833 62.2694C38.2241 62.2694 38.6513 62.8034 38.5445 63.4443C38.5445 63.9783 38.0105 64.4055 37.4765 64.4055Z" fill="#DB0F00"/>
<path d="M50.5069 37.7039C50.1864 37.7039 49.9728 37.5971 49.7592 37.3834C47.0891 34.4997 43.5645 32.684 39.6126 32.4704C38.9718 32.4704 38.5446 31.9363 38.6514 31.2955C38.6514 30.6546 39.1854 30.2274 39.8262 30.3342C44.3121 30.6546 48.3707 32.684 51.4681 35.995C51.8953 36.4222 51.7885 37.063 51.3613 37.4902C50.9341 37.5971 50.7205 37.7039 50.5069 37.7039Z" fill="#DB0F00"/>
<path d="M38.5445 25.9551C26.7958 25.9551 17.1832 35.5676 17.1832 47.3163C17.1832 59.065 26.7958 68.6776 38.5445 68.6776C50.2932 68.6776 59.9057 59.065 59.9057 47.3163C59.9057 35.5676 50.2932 25.9551 38.5445 25.9551ZM52.8565 60.1331L28.0775 35.354C27.6502 34.9268 27.0094 34.9268 26.5822 35.354C26.155 35.7813 26.155 36.4221 26.5822 36.8493L51.3612 61.6284C47.9434 64.7258 43.4576 66.5415 38.5445 66.5415C27.9707 66.5415 19.3194 57.8902 19.3194 47.3163C19.3194 36.7425 27.9707 28.0912 38.5445 28.0912C49.1183 28.0912 57.7696 36.7425 57.7696 47.3163C57.7696 52.2294 55.8471 56.7153 52.8565 60.1331Z" fill="#DB0F00"/>
<path d="M16.1151 64.4053C9.49316 63.7645 4.36646 58.1038 4.36646 51.5886C4.36646 50.9477 4.79368 50.5205 5.43452 50.5205C6.07536 50.5205 6.50258 50.9477 6.50258 51.5886C6.50258 57.0357 10.7748 61.7352 16.222 62.2692C16.8628 62.2692 17.29 62.8032 17.1832 63.4441C17.0764 63.9781 16.6492 64.4053 16.1151 64.4053Z" fill="#DB0F00"/>
<path d="M28.932 18.4791C28.2912 18.4791 27.8639 18.0518 27.8639 17.411C27.8639 11.5366 23.0576 6.73036 17.1833 6.73036C16.5425 6.73036 16.1152 6.30314 16.1152 5.6623C16.1152 5.02146 16.5425 4.59424 17.1833 4.59424C24.2325 4.59424 30.0001 10.3618 30.0001 17.411C30.0001 18.0518 29.5728 18.4791 28.932 18.4791Z" fill="#DB0F00"/>
<path d="M17.1832 0.321777C7.78429 0.321777 0.0942383 8.01183 0.0942383 17.4108V34.4998V51.5888C0.0942383 60.9877 7.78429 68.6778 17.1832 68.6778C19.1058 68.6778 21.0283 68.3574 22.844 67.7165C23.378 67.5029 23.6984 66.8621 23.4848 66.3281C23.2712 65.794 22.6304 65.4736 22.0963 65.6872C20.601 66.2213 18.8921 66.5417 17.1832 66.5417C8.95916 66.5417 2.23036 59.8129 2.23036 51.5888V35.5679H17.1832C17.8241 35.5679 18.2513 35.1406 18.2513 34.4998C18.2513 33.859 17.8241 33.4317 17.1832 33.4317H2.23036V17.4108C2.23036 9.1867 8.95916 2.4579 17.1832 2.4579C25.4073 2.4579 32.1361 9.1867 32.1361 17.4108V22.7511C32.1361 23.3919 32.5634 23.8192 33.2042 23.8192C33.845 23.8192 34.2723 23.3919 34.2723 22.7511V17.4108C34.2723 8.01183 26.5822 0.321777 17.1832 0.321777Z" fill="#DB0F00"/>
</g>
<defs>
<clipPath id="clip0_961_1889">
<rect width="59.8115" height="68.356" fill="white" transform="translate(0.0942383 0.321777)"/>
</clipPath>
</defs>
</svg>
