<svg width="70" height="69" viewBox="0 0 70 69" fill="none" xmlns="http://www.w3.org/2000/svg">
<g clip-path="url(#clip0_961_1897)">
<path d="M30.0871 34.4996C25.5426 34.4996 21.6124 31.3062 20.507 27.0074C19.0331 26.639 17.8048 25.1651 17.8048 23.4456V20.9891C17.8048 19.2695 19.0331 17.7956 20.507 17.4273C21.6124 13.1284 25.5426 9.93506 30.0871 9.93506C34.6315 9.93506 38.5619 13.1284 39.6673 17.4273C41.1412 17.7956 42.3693 19.2695 42.3693 20.9891V23.4456C42.3693 25.1651 41.1412 26.639 39.6673 27.0074C38.5619 31.3062 34.6315 34.4996 30.0871 34.4996ZM21.6124 24.6737C22.2265 24.6737 22.7177 25.1651 22.8405 25.7793C23.3319 29.341 26.5253 32.0432 30.0871 32.0432C33.7717 32.0432 36.8424 29.341 37.3337 25.7793C37.4564 25.1651 37.9478 24.6737 38.5619 24.6737H38.6847C39.2988 24.6737 39.79 24.0597 39.79 23.4456V20.9891C39.79 20.3749 39.2988 19.7609 38.5619 19.7609C38.439 19.7609 38.439 19.7609 38.439 19.7609C37.8249 19.7609 37.3337 19.2695 37.2108 18.6554C36.8424 15.0936 33.7717 12.3915 30.0871 12.3915C26.4024 12.3915 23.3319 15.0936 22.8405 18.6554C22.7177 19.3924 22.1036 19.7609 21.4895 19.7609H21.3667C20.7526 19.7609 20.1385 20.3749 20.1385 20.9891V23.4456C20.1385 24.0597 20.6297 24.6737 21.3667 24.6737C21.4895 24.6737 21.4895 24.6737 21.6124 24.6737Z" fill="#DB0F00"/>
<path d="M58.3364 55.3796C57.5994 55.3796 57.1081 54.8884 57.1081 54.1513C57.1081 44.0798 48.879 35.8508 38.8075 35.728C36.4739 38.0615 33.4034 39.4127 30.0871 39.4127C26.7709 39.4127 23.7002 38.0615 21.3667 35.728C11.2952 35.8508 3.06607 44.0798 3.06607 54.1513C3.06607 54.8884 2.57478 55.3796 1.83785 55.3796C1.10091 55.3796 0.609619 54.8884 0.609619 54.1513C0.609619 42.6061 9.94415 33.2715 21.4895 33.2715H21.858C22.2265 33.2715 22.5949 33.3944 22.7177 33.64C24.6829 35.728 27.3851 36.9561 30.0871 36.9561C32.7892 36.9561 35.4912 35.728 37.3337 33.64C37.5793 33.3944 37.9478 33.2715 38.1934 33.2715H38.6847C50.23 33.2715 59.5645 42.6061 59.5645 54.1513C59.5645 54.8884 59.0733 55.3796 58.3364 55.3796Z" fill="#DB0F00"/>
<path d="M47.2823 52.9229C47.2823 50.2209 45.0715 48.0101 42.3695 48.0101C39.6673 48.0101 37.4566 50.2209 37.4566 52.9229C37.4566 55.2565 39.0532 57.0989 41.1412 57.7131V61.5205C41.1412 64.2226 38.9305 66.4334 36.2283 66.4334C33.5261 66.4334 31.3154 64.2226 31.3154 61.5205V52.8002C34.1403 52.186 36.2283 49.7296 36.2283 46.7818V41.8689C36.2283 41.132 35.7371 40.6406 35 40.6406C34.2632 40.6406 33.7719 41.132 33.7719 41.8689V46.7818C33.7719 48.8699 32.1751 50.4665 30.0871 50.4665C27.9992 50.4665 26.4024 48.8699 26.4024 46.7818V41.8689C26.4024 41.132 25.9112 40.6406 25.1743 40.6406C24.4373 40.6406 23.946 41.132 23.946 41.8689V46.7818C23.946 49.7296 26.0341 52.186 28.859 52.8002V61.5205C28.859 65.5737 32.1751 68.89 36.2283 68.89C40.2815 68.89 43.5976 65.5737 43.5976 61.5205V57.7131C45.6857 57.0989 47.2823 55.2565 47.2823 52.9229ZM42.3695 55.3794C41.0183 55.3794 39.913 54.274 39.913 52.9229C39.913 51.5719 41.0183 50.4665 42.3695 50.4665C43.7205 50.4665 44.8259 51.5719 44.8259 52.9229C44.8259 54.274 43.7205 55.3794 42.3695 55.3794Z" fill="#DB0F00"/>
<path d="M63.2493 19.761H55.8798C55.143 19.761 54.6517 19.2697 54.6517 18.5328V14.8481H50.967C50.23 14.8481 49.7388 14.3568 49.7388 13.6199V6.25052C49.7388 5.51357 50.23 5.02229 50.967 5.02229H54.6517V1.3376C54.6517 0.600667 55.143 0.109375 55.8798 0.109375H63.2493C63.9862 0.109375 64.4774 0.600667 64.4774 1.3376V5.02229H68.1622C68.8991 5.02229 69.3904 5.51357 69.3904 6.25052V13.6199C69.3904 14.3568 68.8991 14.8481 68.1622 14.8481H64.4774V18.5328C64.4774 19.2697 63.9862 19.761 63.2493 19.761ZM57.1081 17.3046H62.021V13.6199C62.021 12.8829 62.5123 12.3917 63.2493 12.3917H66.934V7.47875H63.2493C62.5123 7.47875 62.021 6.98745 62.021 6.25052V2.56583H57.1081V6.25052C57.1081 6.98745 56.6169 7.47875 55.8798 7.47875H52.1952V12.3917H55.8798C56.6169 12.3917 57.1081 12.8829 57.1081 13.6199V17.3046Z" fill="#DB0F00"/>
</g>
<defs>
<clipPath id="clip0_961_1897">
<rect width="68.7808" height="68.7808" fill="white" transform="translate(0.609619 0.109375)"/>
</clipPath>
</defs>
</svg>
