<svg width="56" height="71" viewBox="0 0 56 71" fill="none" xmlns="http://www.w3.org/2000/svg">
<g clip-path="url(#clip0_961_1903)">
<path d="M31.3877 55.4027H24.6123C23.9347 55.4027 23.4831 54.9604 23.4831 54.297V50.9797H20.0954C19.4178 50.9797 18.9661 50.5375 18.9661 49.8742V43.2398C18.9661 42.5765 19.4178 42.1341 20.0954 42.1341H23.4831V38.817C23.4831 38.1536 23.9347 37.7114 24.6123 37.7114H31.3877C32.0652 37.7114 32.5169 38.1536 32.5169 38.817V42.1341H35.9046C36.5821 42.1341 37.0338 42.5765 37.0338 43.2398V49.8742C37.0338 50.5375 36.5821 50.9797 35.9046 50.9797H32.5169V54.297C32.5169 54.9604 32.0652 55.4027 31.3877 55.4027ZM25.7415 53.1912H30.2584V49.8742C30.2584 49.2106 30.7101 48.7684 31.3877 48.7684H34.7754V44.3456H31.3877C30.7101 44.3456 30.2584 43.9034 30.2584 43.2398V39.9228H25.7415V43.2398C25.7415 43.9034 25.2898 44.3456 24.6123 44.3456H21.2246V48.7684H24.6123C25.2898 48.7684 25.7415 49.2106 25.7415 49.8742V53.1912Z" fill="#DB0F00"/>
<path d="M53.5206 19.7988L47.7616 12.6117C49.4554 11.6165 50.5846 9.8474 50.5846 7.85712V5.64573C50.5846 2.54975 48.1003 0.117188 44.9385 0.117188H11.0615C7.89967 0.117188 5.41536 2.54975 5.41536 5.64573V7.85712C5.41536 9.8474 6.5446 11.6165 8.23844 12.6117L2.47936 19.7988C1.57598 21.0151 0.898438 23.0054 0.898438 24.4426V60.931C0.898438 65.7962 10.384 70.8824 28 70.8824C45.616 70.8824 55.1016 65.7962 55.1016 60.931V24.4426C55.1016 23.0054 54.424 21.0151 53.5206 19.7988ZM52.8431 50.9796C52.8431 54.6285 42.68 58.7197 28 58.7197C13.32 58.7197 3.1569 54.6285 3.1569 50.9796V28.4233C6.88337 31.7403 15.3526 34.394 28 34.394C40.6474 34.394 49.1166 31.7403 52.8431 28.4233V50.9796ZM7.67383 5.64573C7.67383 3.76602 9.14183 2.3286 11.0615 2.3286H44.9385C46.8582 2.3286 48.3262 3.76602 48.3262 5.64573V7.85712C48.3262 9.73683 46.8582 11.1742 44.9385 11.1742H11.0615C9.14183 11.1742 7.67383 9.73683 7.67383 7.85712V5.64573ZM4.28613 21.1256L10.4969 13.3857H11.0615H44.9385H45.5031L51.7139 21.1256C52.2785 21.8996 52.8431 23.4476 52.8431 24.4426C52.8431 28.0916 42.68 32.1827 28 32.1827C13.32 32.1827 3.1569 28.0916 3.1569 24.4426C3.1569 23.4476 3.72152 21.8996 4.28613 21.1256ZM28 68.6709C13.32 68.6709 3.1569 64.5799 3.1569 60.931V54.9602C6.88337 58.2773 15.3526 60.931 28 60.931C40.6474 60.931 49.1166 58.2773 52.8431 54.9602V60.931C52.8431 64.5799 42.68 68.6709 28 68.6709Z" fill="#DB0F00"/>
</g>
<defs>
<clipPath id="clip0_961_1903">
<rect width="54.2031" height="70.7652" fill="white" transform="translate(0.898438 0.117188)"/>
</clipPath>
</defs>
</svg>
