<svg width="34" height="34" viewBox="0 0 34 34" fill="none" xmlns="http://www.w3.org/2000/svg">
<path d="M13.268 0.126171C12.5109 0.371876 11.9531 0.823437 11.4617 1.58711C11.143 2.07851 10.7844 2.42383 10.4391 2.56992C10.3129 2.62305 9.87461 2.68945 9.46953 2.72266C8.99805 2.75586 8.59297 2.82891 8.35391 2.92188C7.54375 3.2207 6.80664 3.95781 6.50117 4.77461C6.41484 5.00703 6.3418 5.41875 6.30859 5.88359C6.27539 6.28867 6.20898 6.72695 6.15586 6.85312C6.00977 7.19844 5.66445 7.55703 5.17305 7.87578C4.08398 8.57305 3.58594 9.45625 3.58594 10.6848C3.58594 11.3621 3.65898 11.641 4.04414 12.4312C4.28984 12.916 4.32969 13.0621 4.32969 13.4141C4.32969 13.766 4.28984 13.9121 4.04414 14.3969C3.65898 15.1871 3.58594 15.466 3.58594 16.1434C3.58594 17.3785 4.07734 18.2418 5.17969 18.959C5.66445 19.2711 6.00977 19.6363 6.15586 19.975C6.20898 20.1012 6.27539 20.5395 6.30859 20.9445C6.375 21.8344 6.53438 22.2992 6.95938 22.8637C7.48398 23.541 8.28086 23.9992 9.11094 24.0855C9.40313 24.1121 9.49609 24.1453 9.46953 24.2184C9.44961 24.2648 8.7125 25.5531 7.82266 27.0805C6.3418 29.6305 6.21563 29.8762 6.21563 30.1684C6.20898 30.4406 6.23555 30.5137 6.39492 30.6531C6.52773 30.766 6.66055 30.8125 6.84648 30.8125C7.06563 30.8125 9.13086 30.2945 10.4258 29.9227L10.7313 29.8297L11.216 31.6691C11.4883 32.6785 11.7473 33.5816 11.8004 33.6812C11.9133 33.9137 12.0793 34 12.418 34C12.6305 34 12.7367 33.9602 12.8695 33.8141C12.9691 33.7145 13.932 32.1008 15.0078 30.2348C16.0836 28.3621 16.9801 26.8281 17 26.8281C17.0199 26.8281 17.9164 28.3621 18.9922 30.2281C20.068 32.1008 21.0309 33.7145 21.1305 33.8141C21.2633 33.9602 21.3695 34 21.582 34C21.9207 34 22.0867 33.9137 22.1996 33.6812C22.2527 33.5816 22.5117 32.6785 22.784 31.6691C23.0629 30.6 23.2953 29.843 23.3418 29.8562C23.8398 30.0289 26.9543 30.8125 27.1535 30.8125C27.3395 30.8125 27.4723 30.766 27.6051 30.6531C27.7645 30.5137 27.791 30.4406 27.7844 30.1684C27.7844 29.8762 27.6582 29.6371 26.1773 27.0738C25.2875 25.5531 24.5504 24.2648 24.5305 24.2117C24.5039 24.1453 24.6035 24.1121 24.8891 24.0855C25.7324 23.9926 26.5559 23.5211 27.0605 22.8371C27.4723 22.2793 27.625 21.8211 27.6914 20.9445C27.7246 20.5395 27.791 20.1012 27.8441 19.975C27.9902 19.6363 28.3355 19.2711 28.8203 18.959C29.916 18.2484 30.4141 17.3652 30.4141 16.1367C30.4141 15.466 30.341 15.1805 29.9559 14.3969C29.5441 13.5668 29.5508 13.268 30.0223 12.2719C30.3676 11.5414 30.3809 11.5016 30.4008 10.8441C30.4539 9.51601 29.9758 8.60625 28.827 7.87578C28.3355 7.55703 27.9902 7.19844 27.8441 6.85312C27.791 6.72695 27.7246 6.28867 27.6914 5.88359C27.6582 5.41875 27.5852 5.00703 27.4988 4.77461C27.1934 3.95781 26.4563 3.2207 25.6461 2.92188C25.407 2.82891 25.002 2.75586 24.5305 2.72266C24.1254 2.68945 23.6871 2.62305 23.5609 2.56992C23.2156 2.42383 22.857 2.07851 22.5383 1.58711C21.841 0.498047 20.9578 0 19.7293 0C19.052 0 18.773 0.0730476 17.9828 0.458202C17.498 0.703907 17.352 0.743748 17 0.743748C16.648 0.743748 16.502 0.703907 16.0172 0.458202C15.6984 0.30547 15.3066 0.139454 15.1473 0.0863266C14.7223 -0.0398445 13.7262 -0.0199242 13.268 0.126171ZM15.3066 1.69336C16.057 2.05859 16.3559 2.13828 17.0066 2.13828C17.6309 2.13828 18.109 2.00547 18.7863 1.65351C19.3574 1.35469 19.7691 1.30156 20.3137 1.46758C20.6789 1.58047 21.1836 2.03203 21.4426 2.48359C22.0137 3.49961 23.1359 4.11055 24.4375 4.11719C25.4934 4.12383 26.2902 4.9207 26.2969 5.97656C26.3035 7.2582 26.8547 8.30078 27.8707 8.93828C28.7074 9.46953 29.0195 9.94102 29.0195 10.7047C29.0195 11.0898 28.9863 11.2027 28.7605 11.6344C28.4152 12.2918 28.2691 12.8031 28.2691 13.4141C28.2691 14.025 28.4086 14.5164 28.7539 15.1805C28.9863 15.6187 29.0195 15.7316 29.0195 16.1234C29.0195 16.8871 28.7141 17.3586 27.8707 17.8898C26.848 18.534 26.3035 19.5633 26.2969 20.8516C26.2902 21.9074 25.4934 22.7043 24.4375 22.7109C23.116 22.7176 22.1398 23.2488 21.4293 24.3512C21.2633 24.5969 21.0508 24.8824 20.9445 24.982C20.6391 25.2676 20.1742 25.4402 19.7094 25.4402C19.3574 25.4469 19.2246 25.407 18.7863 25.1746C18.109 24.8227 17.6109 24.6832 17 24.6832C16.3625 24.6898 16.0504 24.7695 15.3 25.1414C14.7754 25.4004 14.6359 25.4469 14.2906 25.4402C13.8258 25.4402 13.3609 25.2676 13.0555 24.982C12.9492 24.8824 12.7367 24.6035 12.5773 24.3512C11.8668 23.2555 10.8773 22.7176 9.5625 22.7109C8.50664 22.7043 7.70977 21.9074 7.70312 20.8516C7.69648 19.5633 7.15195 18.534 6.1293 17.8898C5.29258 17.3586 4.98047 16.8871 4.98047 16.1234C4.98047 15.7383 5.01367 15.6254 5.23945 15.1938C5.58477 14.5363 5.73086 14.025 5.73086 13.4141C5.73086 12.8031 5.58477 12.2918 5.23945 11.6344C5.02031 11.2227 4.98047 11.0832 4.98047 10.7445C4.98047 10.5254 5.01367 10.2199 5.06016 10.0805C5.16641 9.72852 5.62461 9.22383 6.06953 8.97148C7.08555 8.40039 7.69648 7.27812 7.70312 5.97656C7.70977 4.9207 8.50664 4.12383 9.5625 4.11719C10.8773 4.11055 11.8734 3.57265 12.5707 2.47695C13.0156 1.77969 13.3609 1.51406 13.9785 1.40117C14.3902 1.32148 14.6625 1.38125 15.3066 1.69336ZM11.4551 25.2344C12.2055 26.3965 13.1152 26.8746 14.4367 26.8082C14.802 26.7883 15.1805 26.7551 15.2668 26.7285C15.4527 26.6621 15.6121 26.3633 13.9453 29.2453C12.9758 30.9187 12.6371 31.45 12.6039 31.3637C12.5773 31.2973 12.4047 30.6598 12.2188 29.9492C11.9199 28.8203 11.8535 28.6277 11.6809 28.4684C11.5613 28.3555 11.4152 28.2891 11.2891 28.2891C11.1828 28.2891 10.4922 28.4551 9.74844 28.6543C9.01133 28.8535 8.40039 29.0062 8.38711 28.993C8.37383 28.9863 8.93828 27.9836 9.64219 26.775C11.0898 24.2582 10.9172 24.4043 11.4551 25.2344ZM24.3777 26.8016C25.0684 27.9969 25.6262 28.9797 25.6129 28.993C25.6063 29.0062 24.9887 28.8469 24.2516 28.6477C23.5078 28.4551 22.8172 28.2891 22.7109 28.2891C22.5848 28.2891 22.4387 28.3555 22.3191 28.4684C22.1465 28.6277 22.0801 28.8203 21.7812 29.9492C21.5953 30.6598 21.4227 31.2973 21.3961 31.3637C21.3629 31.45 21.0242 30.9187 20.0547 29.2453C18.3813 26.35 18.5473 26.6687 18.7332 26.7285C18.8195 26.7551 19.198 26.7883 19.5699 26.8082C20.1344 26.8348 20.327 26.8215 20.6988 26.7086C21.4559 26.4762 22.0402 26.018 22.4984 25.3008C22.7441 24.9156 23.0496 24.557 23.0961 24.5969C23.1094 24.6168 23.6871 25.6062 24.3777 26.8016Z" fill="white"/>
<path d="M15.3068 3.68535C14.2244 3.88457 12.6638 4.46231 12.3982 4.76113C12.2455 4.93379 12.2322 5.39199 12.3783 5.61113C12.4381 5.69746 12.5974 5.80371 12.7369 5.85019C12.9627 5.9166 13.0357 5.90332 13.4142 5.74394C14.7224 5.18613 15.7252 4.97363 16.9935 4.97363C19.2713 4.97363 21.2103 5.76387 22.8572 7.35762C24.5638 9.01113 25.4338 11.0498 25.4338 13.4139C25.4338 15.758 24.5705 17.7967 22.8904 19.4369C22.1666 20.1408 21.6088 20.5459 20.8119 20.951C19.6299 21.5553 18.3681 21.8541 17.0002 21.8541C15.6322 21.8541 14.3705 21.5553 13.1885 20.951C12.3916 20.5459 11.8338 20.1408 11.1099 19.4369C9.78846 18.1486 8.97166 16.608 8.65955 14.7885C8.57986 14.3303 8.55994 13.9053 8.5865 13.115C8.61971 11.8998 8.75916 11.2623 9.23064 10.0869C9.48299 9.45605 9.50291 9.37637 9.4365 9.15059C9.33689 8.83184 9.14432 8.69902 8.7658 8.69902C8.53338 8.69902 8.42049 8.73223 8.31424 8.85176C7.98221 9.20371 7.4576 10.6912 7.27166 11.8068C7.11229 12.7498 7.15877 14.6424 7.35799 15.5123C8.26111 19.3971 11.1697 22.2525 15.0744 23.0893C15.8779 23.2619 18.1224 23.2619 18.926 23.0893C22.8904 22.2393 25.8256 19.3041 26.6756 15.3396C26.7685 14.8881 26.7951 14.483 26.7951 13.3475C26.7885 12.0791 26.7752 11.8467 26.6357 11.2889C25.6795 7.41074 22.9236 4.66152 19.0986 3.77168C18.3017 3.58574 16.1236 3.53926 15.3068 3.68535Z" fill="white"/>
<path d="M10.1668 6.33495C9.96094 6.44785 9.83477 6.68691 9.82812 6.95917C9.82812 7.13183 9.88789 7.24472 10.0605 7.41738C10.273 7.62988 10.3262 7.6498 10.5652 7.6166C10.8973 7.57011 11.143 7.35761 11.1961 7.05214C11.3023 6.47441 10.6848 6.04941 10.1668 6.33495Z" fill="white"/>
<path d="M18.056 8.14805C17.6443 8.21445 17.1795 8.58633 16.7611 9.18398C16.3228 9.81484 15.7517 10.4324 15.3068 10.7512C15.0611 10.9238 15.0213 10.9371 14.8752 10.8508C14.6693 10.7379 12.199 10.718 11.9068 10.8309C11.6744 10.9172 11.3822 11.1895 11.2361 11.4551C11.1365 11.6277 11.1232 11.9996 11.1033 14.5098C11.0834 16.502 11.1033 17.4715 11.1564 17.7172C11.2494 18.1555 11.6013 18.5473 11.9865 18.6535C12.1326 18.6934 12.7767 18.7266 13.4209 18.7266C14.5963 18.7266 14.5962 18.7266 14.9681 18.534L15.34 18.3348L15.7052 18.4609C16.3693 18.6934 17.0068 18.7398 19.1584 18.7133C21.217 18.6934 21.217 18.6934 21.5822 18.5207C22.067 18.2949 22.3791 18.016 22.5916 17.6176C22.8705 17.1129 22.9236 16.5816 22.897 14.7953C22.8771 13.2215 22.8705 13.175 22.6978 12.8098C22.4654 12.3051 22.1134 11.9266 21.6619 11.7074C21.3431 11.5547 21.1838 11.5215 20.606 11.5016C20.2275 11.4816 19.922 11.4551 19.922 11.4352C19.922 11.4152 20.015 11.1164 20.1279 10.7645C20.367 10.0207 20.3603 9.62891 20.088 9.09766C19.7162 8.36719 18.9525 8.00859 18.056 8.14805ZM18.6603 9.5625C18.9459 9.71523 18.9459 9.85469 18.6802 10.6715C18.4611 11.3422 18.4013 11.4617 18.222 11.568C17.8236 11.807 17.7439 12.2852 18.056 12.6305L18.2486 12.8496L19.6099 12.8828C21.5888 12.9293 21.5357 12.8695 21.5025 15.2402C21.4759 17.4516 21.622 17.332 18.8795 17.332C16.9138 17.332 16.5353 17.2922 15.8779 17.0266L15.6056 16.9203V14.5828V12.252L15.9244 12.0527C16.3693 11.7738 17.5248 10.6051 17.8634 10.0938C18.2619 9.48945 18.3748 9.40977 18.6603 9.5625ZM14.2111 14.7422V17.332H13.3478H12.4845V14.7422V12.1523H13.3478H14.2111V14.7422Z" fill="white"/>
</svg>
