<svg width="34" height="34" viewBox="0 0 34 34" fill="none" xmlns="http://www.w3.org/2000/svg">
<g clip-path="url(#clip0_984_7651)">
<path d="M16.057 0.0996094C15.8844 0.146095 15.3398 0.398438 14.8352 0.664062L13.9254 1.14219L12.7434 1.05586C11.4285 0.969532 11.0102 1.00938 10.366 1.30156C9.78828 1.56055 9.47617 1.83281 8.73906 2.72266L8.05508 3.55274L6.94609 3.91133C4.9207 4.56875 4.4957 5.02695 3.78516 7.33789C3.5793 7.99531 3.5793 8.00196 3.14102 8.36719C2.36406 9.01133 1.74648 9.62227 1.53398 9.94766C1.04922 10.7047 0.929688 11.475 1.08242 12.8828L1.18203 13.7727L0.683984 14.7754C0.0929688 15.9441 0 16.243 0 17C0 17.7637 0.10625 18.109 0.664062 19.1648L1.14219 20.0746L1.05586 21.2234C0.962891 22.5516 1.01602 23.0363 1.32148 23.6871C1.58711 24.2383 1.91914 24.6102 2.78906 25.3207L3.55938 25.9516L3.85156 26.868C4.23008 28.0699 4.30977 28.2426 4.66836 28.7273C5.19961 29.4313 5.66445 29.6902 7.23828 30.1816L8.00195 30.4207L8.36719 30.859C9.01797 31.6426 9.62227 32.2535 9.94766 32.466C10.7047 32.9508 11.475 33.0703 12.8828 32.9176L13.7727 32.818L14.7754 33.316C15.9441 33.907 16.243 34 17 34C17.7637 34 18.1023 33.8938 19.1715 33.3359L20.0813 32.8578L21.2566 32.9441C22.5648 33.0305 22.9633 32.9906 23.6273 32.6984C24.2051 32.4461 24.5172 32.1672 25.2609 31.2773L25.9449 30.4473L26.868 30.1484C28.0566 29.7766 28.2492 29.6902 28.6875 29.3582C29.418 28.8137 29.7102 28.2957 30.2148 26.6621C30.4207 26.0047 30.4207 25.998 30.859 25.6328C31.6359 24.9887 32.2535 24.3777 32.466 24.0523C32.9508 23.2953 33.0703 22.525 32.9176 21.1172L32.818 20.2273L33.316 19.2246C33.907 18.0559 34 17.757 34 17C34 16.2363 33.8937 15.891 33.3359 14.8352L32.8578 13.9254L32.9441 12.75C33.0371 11.4418 32.9906 11.0367 32.6984 10.3727C32.4461 9.79492 32.1672 9.48281 31.2773 8.73906L30.4473 8.05508L30.1484 7.13203C29.9891 6.6207 29.8098 6.08945 29.7434 5.94336C29.5441 5.47188 29.0461 4.88086 28.568 4.56211C28.1164 4.25664 27.8773 4.15703 26.6621 3.78516C26.0047 3.5793 25.998 3.5793 25.6328 3.14102C24.9887 2.36406 24.3777 1.74649 24.0523 1.53399C23.2953 1.04922 22.525 0.929688 21.1172 1.08242L20.2273 1.18203L19.2246 0.683987C18.6801 0.405079 18.0824 0.139454 17.8965 0.0929718C17.4848 -0.0199203 16.4754 -0.013279 16.057 0.0996094ZM18.793 2.02539L19.9551 2.60977L21.157 2.49024C22.9699 2.31758 23.0961 2.3707 24.4309 3.90469C24.8758 4.42266 25.2941 4.8543 25.3539 4.87422C27.5453 5.51836 27.6781 5.57149 28.0699 5.99648C28.4285 6.38164 28.4285 6.38828 28.8535 7.68984C29.0527 8.31406 29.2719 8.87852 29.3383 8.95156C29.398 9.01797 29.7234 9.29688 30.0488 9.5625C30.9254 10.273 31.2043 10.552 31.3969 10.9238C31.5961 11.309 31.616 11.6543 31.5164 13.3145L31.4566 14.3105L32.0145 15.3398L32.5723 16.3691V16.9734V17.5777L31.9813 18.773L31.3902 19.975L31.5098 21.1637C31.6824 22.9633 31.6227 23.0961 30.0953 24.4309C29.5773 24.8758 29.1457 25.2941 29.1258 25.3539C28.4816 27.5453 28.4285 27.6781 28.0035 28.0699C27.6184 28.4285 27.6117 28.4285 26.3102 28.8535C25.6859 29.0527 25.1215 29.2719 25.0484 29.3383C24.982 29.398 24.7031 29.7168 24.4375 30.0488C23.727 30.9254 23.448 31.2043 23.0762 31.3969C22.691 31.5961 22.2992 31.616 20.6523 31.5164L19.6895 31.4566L18.6602 32.0145L17.6309 32.5723H17H16.3691L15.207 31.9813L14.0449 31.3902L12.843 31.5098C11.0301 31.6824 10.9039 31.6293 9.56914 30.0953C9.12422 29.5773 8.70586 29.1457 8.64609 29.1258C6.45469 28.4816 6.32188 28.4285 5.93008 28.0035C5.57148 27.6184 5.57148 27.6117 5.14648 26.3102C4.94727 25.6859 4.72813 25.1215 4.66172 25.0484C4.60195 24.982 4.2832 24.7031 3.95117 24.4375C3.07461 23.727 2.7957 23.448 2.60313 23.0762C2.40391 22.691 2.38398 22.3457 2.48359 20.6789L2.54336 19.6762L1.98555 18.6535L1.42773 17.6309V17V16.3691L2.01875 15.207L2.60977 14.0449L2.49023 12.843C2.31758 11.0301 2.3707 10.9039 3.90469 9.56914C4.42266 9.12422 4.8543 8.70586 4.87422 8.6461C5.50508 6.48125 5.53828 6.40156 5.93672 5.98985C6.29531 5.61133 6.36836 5.57813 7.68984 5.14649C8.31406 4.94727 8.87852 4.72813 8.95156 4.66172C9.01797 4.60195 9.29688 4.27656 9.5625 3.95117C10.273 3.07461 10.552 2.7957 10.9238 2.60313C11.309 2.40391 11.7008 2.38399 13.3477 2.48359L14.3105 2.54336L15.2668 2.02539C15.798 1.73985 16.3027 1.4875 16.3957 1.4543C16.4887 1.4211 16.8074 1.40781 17.0996 1.4211C17.6176 1.44102 17.6574 1.4543 18.793 2.02539Z" fill="white"/>
<path d="M16.5086 3.89141C16.3691 4.03086 16.3359 4.13047 16.3359 4.38281C16.3359 4.63516 16.3691 4.73477 16.5086 4.87422C16.648 5.01367 16.7477 5.04688 17 5.04688C17.2523 5.04688 17.352 5.01367 17.4914 4.87422C17.6309 4.73477 17.6641 4.63516 17.6641 4.38281C17.6641 4.13047 17.6309 4.03086 17.4914 3.89141C17.352 3.75195 17.2523 3.71875 17 3.71875C16.7477 3.71875 16.648 3.75195 16.5086 3.89141Z" fill="white"/>
<path d="M13.0822 4.27012C8.98491 5.54512 5.72436 8.71934 4.37632 12.7502C3.91811 14.1182 3.77866 14.9748 3.73882 16.6018C3.71225 17.724 3.72553 18.2021 3.81186 18.8197C4.64194 24.7166 9.26382 29.3584 15.1341 30.1752C16.1037 30.3146 17.8966 30.3146 18.8662 30.1752C24.7298 29.3584 29.3583 24.7166 30.1884 18.8197C30.3544 17.6178 30.288 15.4729 30.049 14.3439C29.4115 11.3225 27.8708 8.73926 25.5333 6.78691C24.1521 5.6248 22.4388 4.71504 20.7455 4.22363C20.1013 4.03105 19.8755 4.01113 19.6298 4.12402C19.2447 4.30332 19.1517 4.93418 19.4771 5.22637C19.5568 5.30605 19.9021 5.44551 20.2408 5.53848C21.5158 5.90371 22.824 6.52793 23.9064 7.2916C24.7232 7.86269 26.1376 9.27715 26.7087 10.0939C27.8044 11.6412 28.515 13.4342 28.7873 15.3334C28.9466 16.3959 28.9001 18.2752 28.6943 19.2846C28.0568 22.4123 26.2306 25.135 23.581 26.908C19.5966 29.5709 14.4037 29.5709 10.4193 26.908C7.80952 25.1615 6.02983 22.5451 5.33257 19.424C5.10678 18.408 5.04702 16.376 5.21303 15.3068C5.50522 13.3877 6.20913 11.6279 7.29155 10.0939C7.86264 9.27715 9.2771 7.86269 10.0939 7.2916C11.1763 6.52793 12.7568 5.78418 13.9455 5.47871C14.1845 5.41895 14.4435 5.30605 14.5232 5.23301C14.7357 5.03379 14.7888 4.68184 14.6427 4.41621C14.4169 3.99121 14.0915 3.95801 13.0822 4.27012Z" fill="white"/>
<path d="M16.502 6.73359C16.243 6.85313 15.9707 7.14531 15.8512 7.4375C15.798 7.56367 15.7316 7.95547 15.7117 8.30078C15.652 9.09102 15.5191 9.65547 15.2336 10.2863C14.948 10.9039 14.8551 11.2227 14.6758 12.1789C14.5363 12.9227 14.377 13.2813 14.191 13.2813C14.1512 13.2813 14.0516 13.2148 13.9586 13.1285C13.8059 12.9824 13.766 12.9824 11.9332 12.9625C9.83477 12.9359 9.62891 12.9691 9.42969 13.3012C9.30352 13.507 9.29688 13.673 9.29688 18.6934C9.29688 23.7137 9.30352 23.8797 9.42969 24.0855C9.62891 24.4176 9.83477 24.4508 11.9332 24.4242L13.8059 24.4043L14.0051 24.2117C14.2375 23.9859 14.2375 23.9859 15.6719 24.3711C17.2855 24.8094 17.5445 24.8359 20.0945 24.8359C21.509 24.8359 22.5051 24.8094 22.7242 24.7629C23.5277 24.5969 24.2781 23.9992 24.6234 23.2555C24.7629 22.9566 24.8027 22.7441 24.8227 22.2527C24.8492 21.6684 24.8691 21.6086 25.0684 21.343C25.4336 20.8715 25.5863 20.3734 25.5996 19.6895C25.5996 19.1316 25.6195 19.0719 25.8188 18.7598C26.1109 18.3082 26.2437 17.8301 26.2238 17.2656L26.2105 16.8008L26.4828 16.5684C26.8945 16.2164 27.1602 15.6254 27.1602 15.0742C27.1602 14.8352 27.1137 14.4965 27.0539 14.3238C26.9211 13.9254 26.4496 13.4008 26.0445 13.2016C25.7324 13.0488 25.7059 13.0488 22.7109 13.0156L19.6895 12.9824L19.5102 12.6238C19.2645 12.1457 19.2645 11.7008 19.5035 11.0301C19.7094 10.4391 19.7824 9.51602 19.6629 8.96484C19.4703 8.08164 18.7996 7.21836 18.016 6.85313C17.5578 6.64062 16.8207 6.58086 16.502 6.73359ZM17.3586 8.10156C17.6773 8.22109 18.0492 8.62617 18.1953 9.00469C18.3813 9.51602 18.368 9.97422 18.1289 10.6914C17.9031 11.3688 17.8633 12.0727 18.0227 12.6703C18.0891 12.9293 18.0891 13.0156 18.0293 13.0156C17.9895 13.0156 17.8766 13.102 17.777 13.2016C17.3984 13.5934 17.6109 14.2641 18.1355 14.3703C18.2551 14.3902 19.9285 14.4102 21.8609 14.4102H25.3805L25.573 14.6027C25.8188 14.8551 25.832 15.1871 25.6063 15.4527C25.4668 15.6121 25.3871 15.6387 24.9289 15.6785C24.6367 15.7051 24.1387 15.7316 23.8199 15.7316C23.1691 15.7383 22.9168 15.8313 22.7906 16.1035C22.6578 16.3957 22.6977 16.648 22.9035 16.8805L23.1027 17.0996L23.966 17.093H24.8359V17.352C24.8359 17.8566 24.4574 18.3281 24.0523 18.3281C23.7801 18.3281 23.4547 18.5141 23.3418 18.7266C23.0961 19.198 23.4215 19.7227 23.9527 19.7227C24.2316 19.7227 24.2383 19.7293 24.1984 19.902C24.0656 20.4863 23.7934 20.7586 23.302 20.825C22.7242 20.9047 22.452 21.3496 22.691 21.8344C22.7906 22.0336 22.8703 22.1 23.1293 22.173C23.3285 22.2328 23.4414 22.3059 23.4414 22.3723C23.4414 22.5781 23.1359 23.0098 22.857 23.209L22.5648 23.4082L20.2273 23.4281C17.6109 23.448 17.7637 23.468 15.6453 22.9168C15.0609 22.7707 14.4965 22.6445 14.3969 22.6445H14.2109V18.7066V14.7688L14.5695 14.6559C15.0477 14.5031 15.5391 14.0582 15.7383 13.6C15.818 13.4074 15.9707 12.843 16.0703 12.3449C16.1965 11.7406 16.3426 11.2359 16.5152 10.8441C16.8539 10.1004 16.9801 9.62227 17.0664 8.83203C17.0996 8.48672 17.1328 8.16133 17.1328 8.11485C17.1328 8.01524 17.1461 8.01524 17.3586 8.10156ZM12.8164 18.6934V23.043H11.7539H10.6914V18.6934V14.3438H11.7539H12.8164V18.6934Z" fill="white"/>
</g>
<defs>
<clipPath id="clip0_984_7651">
<rect width="34" height="34" fill="white"/>
</clipPath>
</defs>
</svg>
