<svg width="34" height="34" viewBox="0 0 34 34" fill="none" xmlns="http://www.w3.org/2000/svg">
<path d="M12.916 0.0995407C8.45352 0.810089 4.95391 4.30306 4.2168 8.78548C4.16367 9.11087 4.10391 9.95423 4.07734 10.6648L4.03086 11.9531H3.58594C3.34688 11.9531 2.99492 12.0062 2.81563 12.066C2.35742 12.2187 1.79961 12.7898 1.58711 13.3144C1.42773 13.7062 1.42773 13.7327 1.42773 16.057V18.4077L1.61367 18.5671C1.89258 18.8062 2.3375 18.7929 2.59648 18.5339L2.78906 18.3413V16.2894C2.78906 14.0781 2.81563 13.839 3.12109 13.5335L3.30703 13.3476H14.5297H25.7457L25.9316 13.4937C26.2969 13.7792 26.2969 13.7659 26.2969 17.7171V21.3562L24.3246 22.412C21.9672 23.6804 21.8543 23.7535 21.6484 24.1187C21.4957 24.3843 21.4824 24.464 21.4891 25.3007C21.4891 26.6952 21.8012 27.957 22.4984 29.4445L22.8371 30.1484H13.0754H3.30703L3.12109 29.9624C3.02148 29.8562 2.90195 29.657 2.86211 29.5109C2.81563 29.3449 2.78906 28.2956 2.78906 26.5492C2.78906 24.7495 2.7625 23.7933 2.71602 23.687C2.62305 23.4812 2.32422 23.3085 2.05859 23.3085C1.90586 23.3085 1.77969 23.3749 1.62031 23.5343L1.39453 23.7601V26.6421C1.39453 29.7367 1.41445 29.9292 1.74648 30.5003C1.97891 30.8921 2.36406 31.2441 2.75586 31.4234L3.08789 31.5761L13.4539 31.6093L23.8266 31.6425L24.2781 32.1671C24.8359 32.8046 25.6793 33.5019 26.257 33.8007C26.6422 33.9933 26.7352 34.0132 27.1137 33.9867C27.4656 33.9667 27.6184 33.9136 27.9969 33.6878C29.2254 32.9574 30.3742 31.6492 31.3305 29.8827C32.3863 27.9304 32.9242 25.0484 32.4062 24.1187C32.2004 23.7601 32.0941 23.687 29.7301 22.412L27.7578 21.3562V17.8964C27.7578 15.9574 27.7246 14.2374 27.6914 13.9784C27.5652 13.1152 27.1004 12.4378 26.4098 12.1124C26.1375 11.9929 25.9516 11.9531 25.5598 11.9531H25.0551L25.0152 10.5054C24.9754 8.89837 24.8758 8.26751 24.4773 7.08548C23.2754 3.4929 20.1012 0.770245 16.3691 0.132744C15.4594 -0.019989 13.7793 -0.0399094 12.916 0.0995407ZM16.4023 1.56048C18.109 1.939 19.5566 2.71595 20.825 3.93118C22.1797 5.23939 23.0496 6.80657 23.4547 8.66595C23.5477 9.09759 23.5941 9.64212 23.6207 10.605L23.6605 11.9531H22.7508H21.8477V10.9304C21.8477 9.73509 21.768 9.07767 21.5355 8.33392C20.7055 5.70423 18.5805 3.79173 15.9176 3.28704C15.3066 3.17415 13.8855 3.15423 13.3078 3.26048C11.807 3.52611 10.5453 4.19017 9.42305 5.30579C7.8625 6.87298 7.23828 8.5597 7.23828 11.2359V11.9531H6.375H5.51172V10.7644C5.51172 10.0074 5.54492 9.36986 5.61133 8.99134C6.26875 5.17962 9.21055 2.21126 13.0488 1.49407C13.7527 1.3679 15.6918 1.4011 16.4023 1.56048ZM15.6984 4.68157C17.8566 5.09329 19.6762 6.81322 20.2605 8.99798C20.3734 9.41634 20.4066 9.79486 20.4332 10.7378L20.4664 11.9531H14.5762H8.68594L8.7125 10.6382C8.73906 9.43626 8.75898 9.28353 8.925 8.76556C9.61563 6.6472 11.2293 5.16634 13.3809 4.68157C13.9188 4.56204 15.0809 4.56204 15.6984 4.68157ZM29.1191 23.7003L31.1777 24.816L31.1977 25.1015C31.2309 25.5398 31.025 26.7882 30.7992 27.4855C30.5402 28.3089 30.0023 29.4179 29.491 30.1949C28.9797 30.9585 28.0965 31.8949 27.4922 32.3132L27.0273 32.6253L26.5824 32.3265C25.593 31.6757 24.5836 30.4206 23.8797 28.9863C23.2023 27.6117 22.9035 26.5359 22.8836 25.4136L22.877 24.816L24.9355 23.7003C26.0711 23.0827 27.0074 22.5847 27.0273 22.5847C27.0473 22.5847 27.9902 23.0827 29.1191 23.7003Z" fill="white"/>
<path d="M27.6051 26.6886L26.5293 27.7578L26.1906 27.4191C25.7125 26.941 25.2742 26.8679 24.9422 27.2066C24.8027 27.346 24.7695 27.439 24.7695 27.698C24.7695 28.0168 24.7762 28.0234 25.4004 28.6343C26.1441 29.3582 26.4031 29.5175 26.702 29.4511C26.9609 29.3914 27.2332 29.1457 28.5613 27.7445C29.6039 26.6488 29.6172 26.6355 29.6172 26.3367C29.6172 25.9183 29.418 25.6992 28.9996 25.6527L28.6809 25.6128L27.6051 26.6886Z" fill="white"/>
<path d="M9.36329 15.745C7.40431 15.9575 6.04298 17.8899 6.44806 19.8688C6.55431 20.3735 6.92618 21.104 7.26485 21.4626L7.55704 21.7681L7.09884 22.0802C6.18907 22.6978 5.46524 23.654 5.13321 24.67C4.99376 25.095 4.96056 25.3341 4.95392 25.8985C4.94728 26.7153 5.04689 26.981 5.52501 27.386C6.03634 27.831 6.08282 27.831 9.97423 27.811L13.4473 27.7911L13.8059 27.5919C14.1645 27.3927 14.3637 27.1868 14.5828 26.7618C14.6758 26.5825 14.7024 26.3899 14.7024 25.9317C14.6957 24.431 13.8059 22.8903 12.4313 22.0005L12.0793 21.7747L12.3848 21.4294C13.4207 20.2806 13.5469 18.5142 12.677 17.2325C11.9465 16.1501 10.7113 15.5923 9.36329 15.745ZM10.532 17.2458C10.7512 17.3188 10.977 17.4716 11.2293 17.7239C11.6609 18.1622 11.8336 18.5739 11.827 19.2048C11.827 20.2673 10.8774 21.1837 9.78829 21.1837C9.09103 21.1837 8.32071 20.6724 7.98868 20.0017C7.7297 19.477 7.7297 18.7864 7.98204 18.295C8.26095 17.7638 8.73243 17.3454 9.23048 17.1927C9.52931 17.1063 10.1934 17.1329 10.532 17.2458ZM10.3727 22.6513C10.9637 22.7708 11.6543 23.1427 12.1391 23.6075C12.8031 24.2317 13.2016 24.9821 13.3078 25.7856C13.341 26.0645 13.3277 26.1243 13.1817 26.2704L13.0223 26.4298H9.79493C6.60079 26.4298 6.57423 26.4298 6.43478 26.2903C6.3086 26.1642 6.29532 26.0978 6.33517 25.7856C6.47462 24.597 7.3047 23.488 8.47345 22.9302C9.17735 22.5981 9.71524 22.5185 10.3727 22.6513Z" fill="white"/>
<path d="M15.9508 17.7371C15.7051 17.8101 15.4727 18.1289 15.4727 18.3945C15.4727 18.68 15.7051 18.9789 15.984 19.0519C16.2563 19.1316 21.8742 19.1582 22.2395 19.0851C22.5781 19.0187 22.7773 18.7597 22.7773 18.3945C22.7773 18.0292 22.5781 17.7703 22.2395 17.7039C21.9074 17.6374 16.1898 17.6707 15.9508 17.7371Z" fill="white"/>
<path d="M1.8195 20.3801C1.44762 20.5395 1.29489 21.0043 1.49411 21.3828C1.62028 21.6285 1.77965 21.7148 2.12496 21.7148C2.72262 21.7148 3.01481 21.0375 2.60973 20.5859C2.41051 20.3668 2.0652 20.2805 1.8195 20.3801Z" fill="white"/>
<path d="M15.9508 21.323C15.7051 21.3961 15.4727 21.7148 15.4727 21.9805C15.4727 22.266 15.7051 22.5648 15.984 22.6379C16.1367 22.6844 17.0332 22.7109 18.2285 22.7109C19.4238 22.7109 20.3203 22.6844 20.473 22.6379C20.752 22.5648 20.9844 22.266 20.9844 21.9805C20.9844 21.6949 20.752 21.3961 20.473 21.323C20.1543 21.2301 16.2563 21.2367 15.9508 21.323Z" fill="white"/>
</svg>
