<svg width="45" height="45" viewBox="0 0 45 45" fill="none" xmlns="http://www.w3.org/2000/svg">
<path d="M21.252 0.116592C21.0234 0.178136 20.3027 0.512234 19.6348 0.863916L18.4307 1.49694L16.8662 1.38265C15.126 1.26835 14.5723 1.3211 13.7197 1.70795C12.9551 2.05084 12.542 2.41132 11.5664 3.58945L10.6611 4.68846L9.19336 5.16323C6.5127 6.03364 5.9502 6.64029 5.00977 9.69993C4.7373 10.5703 4.7373 10.5791 4.15723 11.0627C3.12891 11.9155 2.31152 12.7244 2.03027 13.1552C1.38867 14.1575 1.23047 15.1774 1.43262 17.0413L1.56445 18.2194L0.905273 19.547C0.123047 21.0944 0 21.4901 0 22.4924C0 23.5034 0.140625 23.9606 0.878906 25.3586L1.51172 26.5631L1.39746 28.0841C1.27441 29.8425 1.34473 30.4843 1.74902 31.346C2.10059 32.0757 2.54004 32.568 3.69141 33.5088L4.71094 34.344L5.09766 35.5573C5.59863 37.1487 5.7041 37.3773 6.17871 38.0191C6.88184 38.9511 7.49707 39.294 9.58008 39.9446L10.5908 40.2611L11.0742 40.8414C11.9355 41.8788 12.7354 42.6877 13.166 42.969C14.168 43.6109 15.1875 43.7691 17.0508 43.5669L18.2285 43.435L19.5557 44.0944C21.1025 44.8769 21.498 45 22.5 45C23.5107 45 23.959 44.8593 25.374 44.1208L26.5781 43.4878L28.1338 43.6021C29.8652 43.7164 30.3926 43.6636 31.2715 43.2768C32.0361 42.9427 32.4492 42.5734 33.4336 41.3953L34.3389 40.2963L35.5605 39.9006C37.1338 39.4083 37.3887 39.294 37.9688 38.8544C38.9355 38.1334 39.3223 37.4476 39.9902 35.2848C40.2627 34.4144 40.2627 34.4056 40.8428 33.922C41.8711 33.0692 42.6885 32.2603 42.9697 31.8295C43.6113 30.8272 43.7695 29.8073 43.5674 27.9434L43.4355 26.7653L44.0947 25.4377C44.877 23.8903 45 23.4946 45 22.4924C45 21.4813 44.8594 21.0241 44.1211 19.6261L43.4883 18.4216L43.6025 16.8654C43.7256 15.1334 43.6641 14.5971 43.2773 13.7179C42.9434 12.953 42.5742 12.5398 41.3965 11.555L40.2979 10.6495L39.9023 9.42737C39.6914 8.75038 39.4541 8.04702 39.3662 7.8536C39.1025 7.22936 38.4434 6.44687 37.8105 6.02485C37.2129 5.62041 36.8965 5.48853 35.2881 4.99618C34.418 4.72363 34.4092 4.72363 33.9258 4.14335C33.0732 3.11468 32.2646 2.29702 31.834 2.01567C30.832 1.37385 29.8125 1.2156 27.9492 1.41781L26.7715 1.5497L25.4443 0.890292C24.7236 0.521026 23.9326 0.169344 23.6865 0.1078C23.1416 -0.0416653 21.8057 -0.0328733 21.252 0.116592ZM24.873 2.66629L26.4111 3.43999L28.002 3.28173C30.4014 3.05314 30.5684 3.12347 32.335 5.15444C32.9238 5.84022 33.4775 6.4117 33.5566 6.43807C36.457 7.2909 36.6328 7.36124 37.1514 7.92393C37.626 8.43387 37.626 8.44266 38.1885 10.1659C38.4521 10.9924 38.7422 11.7397 38.8301 11.8364C38.9092 11.9243 39.3398 12.2936 39.7705 12.6453C40.9307 13.586 41.2998 13.9553 41.5547 14.4476C41.8184 14.9576 41.8447 15.4148 41.7129 17.6128L41.6338 18.9316L43.1104 21.6571V23.2573L42.3281 24.8398L41.5459 26.4312L41.7041 28.005C41.9326 30.3876 41.8535 30.5635 39.832 32.3307C39.1465 32.9197 38.5752 33.4736 38.5488 33.5528C37.6963 36.4541 37.626 36.63 37.0635 37.1487C36.5537 37.6235 36.5449 37.6235 34.8223 38.1862C33.9961 38.4499 33.249 38.7401 33.1523 38.828C33.0645 38.9071 32.6953 39.3291 32.3438 39.7687C31.4033 40.9293 31.0342 41.2986 30.542 41.5535C30.0322 41.8173 29.5137 41.8437 27.334 41.7118L26.0596 41.6326L23.335 43.1097H21.665L18.5889 41.5447L16.998 41.703C14.5986 41.9316 14.4316 41.8612 12.665 39.8303C12.0762 39.1445 11.5225 38.573 11.4434 38.5466C8.54297 37.6938 8.36719 37.6235 7.84863 37.0608C7.37402 36.5508 7.37402 36.5421 6.81152 34.8188C6.54785 33.9924 6.25781 33.245 6.16992 33.1483C6.09082 33.0604 5.66895 32.6911 5.22949 32.3395C4.06934 31.3987 3.7002 31.0294 3.44531 30.5371C3.18164 30.0271 3.15527 29.57 3.28711 27.3632L3.36621 26.0356L1.88965 23.3276V21.6571L3.4541 18.5799L3.2959 16.9885C3.06738 14.5883 3.1377 14.4213 5.16797 12.6541C5.85352 12.065 6.4248 11.5111 6.45117 11.432C7.28613 8.56575 7.33008 8.46025 7.85742 7.91514C8.33203 7.41399 8.42871 7.37003 10.1777 6.79855C11.0039 6.53479 11.751 6.24465 11.8477 6.15673C11.9355 6.0776 12.3047 5.64679 12.6562 5.21598C13.5967 4.05543 13.9658 3.68616 14.458 3.43119C14.9678 3.16743 15.4863 3.14106 17.666 3.27294L18.9404 3.35207L20.2061 2.66629C20.9092 2.28823 21.5771 1.95413 21.7002 1.91017C21.8232 1.86621 22.2451 1.84863 22.6318 1.86621C23.3174 1.89259 23.3701 1.91017 24.873 2.66629Z" fill="white"/>
<path d="M21.8496 5.13685C21.665 5.32148 21.6211 5.45336 21.6211 5.78746C21.6211 6.12156 21.665 6.25344 21.8496 6.43807C22.0342 6.62271 22.166 6.66667 22.5 6.66667C22.834 6.66667 22.9658 6.62271 23.1504 6.43807C23.335 6.25344 23.3789 6.12156 23.3789 5.78746C23.3789 5.45336 23.335 5.32148 23.1504 5.13685C22.9658 4.95222 22.834 4.90826 22.5 4.90826C22.166 4.90826 22.0342 4.95222 21.8496 5.13685Z" fill="white"/>
<path d="M17.3145 5.638C11.8916 7.32607 7.57617 11.5287 5.79199 16.8654C5.18555 18.6766 5.00098 19.8108 4.94824 21.9648C4.91309 23.4507 4.93066 24.0837 5.04492 24.9014C6.14355 32.7087 12.2607 38.8544 20.0303 39.9358C21.3135 40.1204 23.6865 40.1204 24.9697 39.9358C32.7305 38.8544 38.8564 32.7087 39.9551 24.9014C40.1748 23.31 40.0869 20.4702 39.7705 18.9755C38.9268 14.9752 36.8877 11.555 33.7939 8.97018C31.9658 7.43157 29.6982 6.22706 27.457 5.57645C26.6045 5.32148 26.3057 5.29511 25.9805 5.44457C25.4707 5.68196 25.3477 6.5172 25.7783 6.90405C25.8838 7.00956 26.3408 7.19419 26.7891 7.31728C28.4766 7.80084 30.208 8.62729 31.6406 9.63838C32.7217 10.3945 34.5937 12.2672 35.3496 13.3486C36.7998 15.3972 37.7402 17.771 38.1006 20.2856C38.3115 21.6923 38.25 24.1804 37.9775 25.5168C37.1338 29.6579 34.7168 33.2626 31.21 35.6101C25.9365 39.1357 19.0635 39.1357 13.79 35.6101C10.3359 33.2978 7.98047 29.8337 7.05762 25.7015C6.75879 24.3563 6.67969 21.6659 6.89941 20.2504C7.28613 17.7095 8.21777 15.3796 9.65039 13.3486C10.4062 12.2672 12.2783 10.3945 13.3594 9.63838C14.792 8.62729 16.8838 7.64258 18.457 7.23815C18.7734 7.15902 19.1162 7.00956 19.2217 6.91284C19.5029 6.64908 19.5732 6.1831 19.3799 5.83142C19.0811 5.26873 18.6504 5.22477 17.3145 5.638Z" fill="white"/>
<path d="M21.8408 8.89985C21.498 9.05811 21.1377 9.44496 20.9795 9.83181C20.9092 9.99885 20.8213 10.5176 20.7949 10.9748C20.7158 12.021 20.54 12.7683 20.1621 13.6036C19.7842 14.4213 19.6611 14.8433 19.4238 16.1093C19.2393 17.094 19.0283 17.5688 18.7822 17.5688C18.7295 17.5688 18.5977 17.4809 18.4746 17.3666C18.2725 17.1732 18.2197 17.1732 15.7939 17.1468C13.0166 17.1116 12.7441 17.1556 12.4805 17.5952C12.3135 17.8677 12.3047 18.0875 12.3047 24.7343C12.3047 31.3811 12.3135 31.6009 12.4805 31.8735C12.7441 32.3131 13.0166 32.357 15.7939 32.3219L18.2725 32.2955L18.5361 32.0405C18.8438 31.7416 18.8438 31.7416 20.7422 32.2515C22.8779 32.8318 23.2207 32.867 26.5957 32.867C28.4678 32.867 29.7861 32.8318 30.0762 32.7703C31.1396 32.5505 32.1328 31.7592 32.5898 30.7745C32.7744 30.3788 32.8271 30.0975 32.8535 29.4469C32.8887 28.6732 32.915 28.594 33.1787 28.2424C33.6621 27.6181 33.8643 26.9587 33.8818 26.0531C33.8818 25.3146 33.9082 25.2355 34.1719 24.8223C34.5586 24.2244 34.7344 23.5914 34.708 22.844L34.6904 22.2286L35.0508 21.9209C35.5957 21.4549 35.9473 20.6724 35.9473 19.9427C35.9473 19.6261 35.8857 19.1778 35.8066 18.9492C35.6309 18.4216 35.0068 17.7271 34.4707 17.4633C34.0576 17.2611 34.0225 17.2611 30.0586 17.2171L26.0596 17.1732L25.8223 16.6984C25.4971 16.0654 25.4971 15.4763 25.8135 14.5883C26.0859 13.8058 26.1826 12.5837 26.0244 11.854C25.7695 10.6846 24.8818 9.54167 23.8447 9.05811C23.2383 8.77676 22.2627 8.69763 21.8408 8.89985ZM22.9746 10.711C23.3965 10.8693 23.8887 11.4056 24.082 11.9067C24.3281 12.5837 24.3105 13.1904 23.9941 14.1399C23.6953 15.0367 23.6426 15.9687 23.8535 16.7599C23.9414 17.1028 23.9414 17.2171 23.8623 17.2171C23.8096 17.2171 23.6602 17.3314 23.5283 17.4633C23.0273 17.982 23.3086 18.87 24.0029 19.0107C24.1611 19.0371 26.376 19.0635 28.9336 19.0635H33.5918L33.8467 19.3184C34.1719 19.6525 34.1895 20.0921 33.8906 20.4438C33.7061 20.6548 33.6006 20.69 32.9941 20.7427C32.6074 20.7779 31.9482 20.8131 31.5264 20.8131C30.665 20.8219 30.3311 20.945 30.1641 21.3054C29.9883 21.6923 30.041 22.0264 30.3135 22.3341L30.5771 22.6242L31.7197 22.6154H32.8711V22.9583C32.8711 23.6265 32.3701 24.2508 31.834 24.2508C31.4736 24.2508 31.043 24.4969 30.8936 24.7783C30.5684 25.4025 30.999 26.0971 31.7021 26.0971C32.0713 26.0971 32.0801 26.1059 32.0273 26.3345C31.8516 27.1082 31.4912 27.4687 30.8408 27.5566C30.0762 27.6621 29.7158 28.2512 30.0322 28.893C30.1641 29.1567 30.2695 29.2446 30.6123 29.3414C30.876 29.4205 31.0254 29.5172 31.0254 29.6051C31.0254 29.8777 30.6211 30.4492 30.252 30.7129L29.8652 30.9767L26.7715 31.0031C23.3086 31.0294 23.5107 31.0558 20.707 30.3261C19.9336 30.1326 19.1865 29.9656 19.0547 29.9656H18.8086V19.5382L19.2832 19.3888C19.916 19.1865 20.5664 18.5975 20.8301 17.9908C20.9355 17.7359 21.1377 16.9885 21.2695 16.3291C21.4365 15.5291 21.6299 14.8609 21.8584 14.3421C22.3066 13.3574 22.4736 12.7244 22.5879 11.6781C22.6318 11.2209 22.6758 10.7901 22.6758 10.7286C22.6758 10.5967 22.6934 10.5967 22.9746 10.711ZM16.9629 30.4931H14.1504V18.9755H16.9629V30.4931Z" fill="white"/>
</svg>
