<svg width="40" height="51" viewBox="0 0 40 51" fill="none" xmlns="http://www.w3.org/2000/svg">
<path d="M14.4356 0.189258C13.3069 0.557813 12.4752 1.23516 11.7426 2.38066C11.2673 3.11777 10.7327 3.63574 10.2178 3.85488C10.0297 3.93457 9.37624 4.03418 8.77228 4.08398C8.06931 4.13379 7.46535 4.24336 7.10891 4.38281C5.90099 4.83105 4.80198 5.93672 4.34654 7.16191C4.21782 7.51055 4.10891 8.12813 4.05941 8.82539C4.0099 9.43301 3.91089 10.0904 3.83168 10.2797C3.61386 10.7977 3.09901 11.3355 2.36634 11.8137C0.742574 12.8596 0 14.1844 0 16.0271C0 17.0432 0.108911 17.4615 0.683168 18.6469C1.0495 19.374 1.10891 19.5932 1.10891 20.1211C1.10891 20.649 1.0495 20.8682 0.683168 21.5953C0.108911 22.7807 0 23.199 0 24.215C0 26.0678 0.732673 27.3627 2.37624 28.4385C3.09901 28.9066 3.61386 29.4545 3.83168 29.9625C3.91089 30.1518 4.0099 30.8092 4.05941 31.4168C4.15842 32.7516 4.39604 33.4488 5.0297 34.2955C5.81188 35.3115 7 35.9988 8.23762 36.1283C8.67327 36.1682 8.81188 36.218 8.77228 36.3275C8.74257 36.3973 7.64356 38.3297 6.31683 40.6207C4.10891 44.4457 3.92079 44.8143 3.92079 45.2525C3.91089 45.6609 3.9505 45.7705 4.18812 45.9797C4.38614 46.149 4.58416 46.2188 4.86139 46.2188C5.18812 46.2188 8.26733 45.4418 10.198 44.884L10.6535 44.7445L11.3762 47.5037C11.7822 49.0178 12.1683 50.3725 12.2475 50.5219C12.4158 50.8705 12.6634 51 13.1683 51C13.4851 51 13.6436 50.9402 13.8416 50.7211C13.9901 50.5717 15.4257 48.1512 17.0297 45.3521C18.6337 42.5432 19.9703 40.2422 20 40.2422C20.0297 40.2422 21.3663 42.5432 22.9703 45.3422C24.5743 48.1512 26.0099 50.5717 26.1584 50.7211C26.3564 50.9402 26.5149 51 26.8317 51C27.3366 51 27.5842 50.8705 27.7525 50.5219C27.8317 50.3725 28.2178 49.0178 28.6238 47.5037C29.0396 45.9 29.3861 44.7645 29.4554 44.7844C30.198 45.0434 34.8416 46.2188 35.1386 46.2188C35.4158 46.2188 35.6139 46.149 35.8119 45.9797C36.0495 45.7705 36.0891 45.6609 36.0792 45.2525C36.0792 44.8143 35.8911 44.4557 33.6832 40.6107C32.3564 38.3297 31.2574 36.3973 31.2277 36.3176C31.1881 36.218 31.3366 36.1682 31.7624 36.1283C33.0198 35.9889 34.2475 35.2816 35 34.2557C35.6139 33.4189 35.8416 32.7316 35.9406 31.4168C35.9901 30.8092 36.0891 30.1518 36.1683 29.9625C36.3861 29.4545 36.901 28.9066 37.6238 28.4385C39.2574 27.3727 40 26.0479 40 24.2051C40 23.199 39.8911 22.7707 39.3168 21.5953C38.703 20.3502 38.7129 19.902 39.4158 18.4078C39.9307 17.3121 39.9505 17.2523 39.9802 16.2662C40.0594 14.274 39.3465 12.9094 37.6337 11.8137C36.901 11.3355 36.3861 10.7977 36.1683 10.2797C36.0891 10.0904 35.9901 9.43301 35.9406 8.82539C35.8911 8.12813 35.7822 7.51055 35.6535 7.16191C35.198 5.93672 34.099 4.83105 32.8911 4.38281C32.5347 4.24336 31.9307 4.13379 31.2277 4.08398C30.6238 4.03418 29.9703 3.93457 29.7822 3.85488C29.2673 3.63574 28.7327 3.11777 28.2574 2.38066C27.2178 0.74707 25.901 0 24.0693 0C23.0594 0 22.6436 0.10957 21.4653 0.687305C20.7426 1.05586 20.5248 1.11563 20 1.11563C19.4752 1.11563 19.2574 1.05586 18.5347 0.687305C18.0594 0.458203 17.4752 0.20918 17.2376 0.129492C16.604 -0.0597656 15.1188 -0.0298828 14.4356 0.189258ZM17.4752 2.54004C18.5941 3.08789 19.0396 3.20742 20.0099 3.20742C20.9406 3.20742 21.6535 3.0082 22.6634 2.48027C23.5149 2.03203 24.1287 1.95234 24.9406 2.20137C25.4852 2.3707 26.2376 3.04805 26.6238 3.72539C27.4753 5.24941 29.1485 6.16582 31.0891 6.17578C32.6634 6.18574 33.8515 7.38105 33.8614 8.96484C33.8713 10.8873 34.6931 12.4512 36.2079 13.4074C37.4554 14.2043 37.9208 14.9115 37.9208 16.057C37.9208 16.6348 37.8713 16.8041 37.5347 17.4516C37.0198 18.4377 36.802 19.2047 36.802 20.1211C36.802 21.0375 37.0099 21.7746 37.5248 22.7707C37.8713 23.4281 37.9208 23.5975 37.9208 24.1852C37.9208 25.3307 37.4653 26.0379 36.2079 26.8348C34.6832 27.801 33.8713 29.3449 33.8614 31.2773C33.8515 32.8611 32.6634 34.0564 31.0891 34.0664C29.1188 34.0764 27.6634 34.8732 26.604 36.5268C26.3564 36.8953 26.0396 37.3236 25.8812 37.473C25.4257 37.9014 24.7327 38.1604 24.0396 38.1604C23.5149 38.1703 23.3168 38.1105 22.6634 37.7619C21.6535 37.234 20.9109 37.0248 20 37.0248C19.0495 37.0348 18.5842 37.1543 17.4653 37.7121C16.6832 38.1006 16.4752 38.1703 15.9604 38.1604C15.2673 38.1604 14.5743 37.9014 14.1188 37.473C13.9604 37.3236 13.6436 36.9053 13.4059 36.5268C12.3465 34.8832 10.8713 34.0764 8.91089 34.0664C7.33663 34.0564 6.14851 32.8611 6.13861 31.2773C6.12871 29.3449 5.31683 27.801 3.79208 26.8348C2.54455 26.0379 2.07921 25.3307 2.07921 24.1852C2.07921 23.6074 2.12871 23.4381 2.46535 22.7906C2.9802 21.8045 3.19802 21.0375 3.19802 20.1211C3.19802 19.2047 2.9802 18.4377 2.46535 17.4516C2.13861 16.834 2.07921 16.6248 2.07921 16.1168C2.07921 15.7881 2.12871 15.3299 2.19802 15.1207C2.35644 14.5928 3.0396 13.8357 3.70297 13.4572C5.21782 12.6006 6.12871 10.9172 6.13861 8.96484C6.14851 7.38105 7.33663 6.18574 8.91089 6.17578C10.8713 6.16582 12.3564 5.35898 13.396 3.71543C14.0594 2.66953 14.5743 2.27109 15.495 2.10176C16.1089 1.98223 16.5149 2.07188 17.4752 2.54004ZM11.7327 37.8516C12.8515 39.5947 14.2079 40.3119 16.1782 40.2123C16.7228 40.1824 17.2871 40.1326 17.4158 40.0928C17.6931 39.9932 17.9307 39.5449 15.4455 43.868C14 46.3781 13.4951 47.175 13.4455 47.0455C13.4059 46.9459 13.1485 45.9896 12.8713 44.9238C12.4257 43.2305 12.3267 42.9416 12.0693 42.7025C11.8911 42.5332 11.6733 42.4336 11.4851 42.4336C11.3267 42.4336 10.297 42.6826 9.18812 42.9814C8.08911 43.2803 7.17822 43.5094 7.15842 43.4895C7.13861 43.4795 7.9802 41.9754 9.0297 40.1625C11.1881 36.3873 10.9307 36.6064 11.7327 37.8516ZM31 40.2023C32.0297 41.9953 32.8614 43.4695 32.8416 43.4895C32.8317 43.5094 31.9109 43.2703 30.8119 42.9715C29.703 42.6826 28.6733 42.4336 28.5149 42.4336C28.3267 42.4336 28.1089 42.5332 27.9307 42.7025C27.6733 42.9416 27.5743 43.2305 27.1287 44.9238C26.8515 45.9896 26.5941 46.9459 26.5545 47.0455C26.5049 47.175 26 46.3781 24.5545 43.868C22.0594 39.525 22.3069 40.0031 22.5842 40.0928C22.7129 40.1326 23.2772 40.1824 23.8317 40.2123C24.6733 40.2522 24.9604 40.2322 25.5149 40.0629C26.6436 39.7143 27.5149 39.027 28.198 37.9512C28.5644 37.3734 29.0198 36.8355 29.0891 36.8953C29.1089 36.9252 29.9703 38.4094 31 40.2023Z" fill="white"/>
<path d="M17.4752 5.52832C15.8614 5.82715 13.5347 6.69375 13.1386 7.14199C12.9109 7.40098 12.8911 8.08828 13.1089 8.41699C13.198 8.54648 13.4356 8.70586 13.6436 8.77559C13.9802 8.87519 14.0891 8.85527 14.6535 8.61621C16.604 7.77949 18.099 7.46074 19.9901 7.46074C23.3861 7.46074 26.2772 8.64609 28.7327 11.0367C31.2772 13.517 32.5743 16.575 32.5743 20.1211C32.5743 23.6373 31.2871 26.6953 28.7822 29.1557C27.703 30.2115 26.8713 30.8191 25.6832 31.4268C23.9208 32.3332 22.0396 32.7814 20 32.7814C17.9604 32.7814 16.0792 32.3332 14.3168 31.4268C13.1287 30.8191 12.297 30.2115 11.2178 29.1557C9.24753 27.2232 8.0297 24.9123 7.56436 22.183C7.44555 21.4957 7.41584 20.8582 7.45545 19.6729C7.50495 17.85 7.71287 16.8938 8.41584 15.1307C8.79208 14.1844 8.82178 14.0648 8.72277 13.7262C8.57426 13.248 8.28713 13.0488 7.72277 13.0488C7.37624 13.0488 7.20792 13.0986 7.04951 13.2779C6.55446 13.8059 5.77228 16.0371 5.49505 17.7105C5.25743 19.125 5.32673 21.9639 5.62376 23.2687C6.9703 29.0959 11.3069 33.3791 17.1287 34.6342C18.3267 34.8932 21.6733 34.8932 22.8713 34.6342C28.7822 33.3592 33.1584 28.9564 34.4257 23.0098C34.5644 22.3324 34.604 21.7248 34.604 20.0215C34.5941 18.1189 34.5743 17.7703 34.3663 16.9336C32.9406 11.1164 28.8317 6.99258 23.1287 5.65781C21.9406 5.37891 18.6931 5.30918 17.4752 5.52832Z" fill="white"/>
<path d="M9.81188 9.50274C9.50495 9.67207 9.31683 10.0307 9.30693 10.4391C9.30693 10.698 9.39604 10.8674 9.65347 11.1264C9.9703 11.4451 10.0495 11.475 10.4059 11.4252C10.901 11.3555 11.2673 11.0367 11.3465 10.5785C11.505 9.71192 10.5842 9.07442 9.81188 9.50274Z" fill="white"/>
<path d="M21.5743 12.2221C20.9604 12.3217 20.2673 12.8795 19.6436 13.776C18.9901 14.7223 18.1386 15.6486 17.4752 16.1268C17.1089 16.3857 17.0495 16.4057 16.8317 16.2762C16.5248 16.1068 12.8416 16.077 12.4059 16.2463C12.0594 16.3758 11.6238 16.7842 11.4059 17.1826C11.2574 17.4416 11.2376 17.9994 11.2079 21.7647C11.1782 24.7529 11.2079 26.2072 11.2871 26.5758C11.4257 27.2332 11.9505 27.8209 12.5248 27.9803C12.7426 28.04 13.703 28.0898 14.6634 28.0898C16.4158 28.0898 16.4158 28.0898 16.9703 27.801L17.5248 27.5021L18.0693 27.6914C19.0594 28.04 20.0099 28.1098 23.2178 28.0699C26.2871 28.04 26.2871 28.04 26.8317 27.7811C27.5545 27.4424 28.0198 27.024 28.3366 26.4264C28.7525 25.6693 28.8317 24.8725 28.7921 22.193C28.7624 19.8322 28.7525 19.7625 28.4951 19.2146C28.1485 18.4576 27.6238 17.8898 26.9505 17.5611C26.4752 17.332 26.2376 17.2822 25.3762 17.2523C24.8119 17.2225 24.3564 17.1826 24.3564 17.1527C24.3564 17.1229 24.4951 16.6746 24.6634 16.1467C25.0198 15.0311 25.0099 14.4434 24.604 13.6465C24.0495 12.5508 22.9109 12.0129 21.5743 12.2221ZM22.4752 14.3438C22.901 14.5729 22.901 14.782 22.5049 16.0072C22.1782 17.0133 22.0891 17.1926 21.8218 17.352C21.2277 17.7105 21.1089 18.4277 21.5743 18.9457L21.8614 19.2744L23.8911 19.3242C26.8416 19.3939 26.7624 19.3043 26.7129 22.8604C26.6733 26.1773 26.8911 25.9981 22.802 25.9981C19.8713 25.9981 19.3069 25.9383 18.3267 25.5398L17.9208 25.3805V18.3779L18.396 18.0791C19.0594 17.6607 20.7822 15.9076 21.2871 15.1406C21.8812 14.2342 22.0495 14.1146 22.4752 14.3438ZM15.8416 25.9981H13.2673V18.2285H15.8416V25.9981Z" fill="white"/>
</svg>
