<svg width="40" height="44" viewBox="0 0 40 44" fill="none" xmlns="http://www.w3.org/2000/svg">
<path d="M14.7659 0.121515C9.04677 1.04131 4.56168 5.56289 3.617 11.3653C3.54892 11.7865 3.47232 12.8782 3.43828 13.798L3.37871 15.4657H2.8085C2.50212 15.4657 2.05105 15.5345 1.82127 15.6118C1.23404 15.8095 0.519147 16.5488 0.246807 17.2279C0.042553 17.7351 0.042553 17.7695 0.042553 20.7781V23.8212L0.28085 24.0275C0.638295 24.3369 1.2085 24.3197 1.54042 23.9845L1.78723 23.7352V21.079C1.78723 18.2165 1.82127 17.907 2.21276 17.5116L2.45105 17.2709H31.2084L31.4467 17.46C31.9147 17.8296 31.9147 17.8124 31.9147 22.9272V27.6379L29.3871 29.0047C26.3658 30.6465 26.2212 30.7411 25.9573 31.2139C25.7616 31.5577 25.7446 31.6609 25.7531 32.744C25.7531 34.5492 26.1531 36.1825 27.0467 38.108L27.4807 39.0192H2.45105L2.21276 38.7785C2.0851 38.641 1.93191 38.3831 1.88084 38.194C1.82127 37.9791 1.78723 36.6209 1.78723 34.3601C1.78723 32.0305 1.75318 30.7927 1.69361 30.6551C1.57446 30.3886 1.19148 30.1651 0.85106 30.1651C0.655316 30.1651 0.493615 30.2511 0.28936 30.4574L0 30.7497V34.4804C0 38.4862 0.0255318 38.7355 0.451062 39.4748C0.748933 39.982 1.24255 40.4376 1.74467 40.6697L2.1702 40.8674L28.7488 40.9533L29.3275 41.6324C30.0424 42.4577 31.1233 43.3603 31.8637 43.7471C32.3573 43.9964 32.4764 44.0222 32.9615 43.9878C33.4126 43.962 33.6084 43.8932 34.0935 43.601C35.6679 42.6554 37.1403 40.9619 38.3658 38.6753C39.719 36.1481 40.4083 32.4173 39.7445 31.2139C39.4807 30.7497 39.3445 30.6551 36.3147 29.0047L33.7871 27.6379V23.1593C33.7871 20.6492 33.7445 18.4228 33.702 18.0875C33.5403 16.97 32.9445 16.0932 32.0594 15.672C31.7105 15.5173 31.4722 15.4657 30.9701 15.4657H30.3233L30.2722 13.5917C30.2211 11.5114 30.0935 10.6948 29.5828 9.16469C28.0424 4.51416 23.9744 0.989729 19.1914 0.164496C18.0254 -0.0332157 15.8723 -0.0590042 14.7659 0.121515ZM19.234 2.01267C21.4212 2.50266 23.2765 3.50841 24.902 5.08151C26.6382 6.77495 27.7531 8.80365 28.2722 11.2106C28.3914 11.7693 28.4509 12.4742 28.485 13.7207L28.536 15.4657H26.2126V14.1419C26.2126 12.5946 26.1105 11.7435 25.8126 10.7808C24.7488 7.37669 22.0254 4.90099 18.6127 4.24768C17.8297 4.10154 16.0084 4.07575 15.268 4.21329C13.3446 4.55714 11.7276 5.41676 10.2893 6.86091C8.28932 8.88961 7.48933 11.073 7.48933 14.5373V15.4657H5.27657V13.927C5.27657 12.947 5.31912 12.1218 5.40423 11.6318C6.24678 6.69759 10.017 2.8551 14.9361 1.92671C15.8382 1.76338 18.3233 1.80637 19.234 2.01267ZM18.3318 6.05287C21.0978 6.58584 23.4297 8.81225 24.1786 11.6404C24.3233 12.1819 24.3658 12.6719 24.3999 13.8926L24.4424 15.4657H9.34464L9.37868 13.7636C9.41272 12.2077 9.43825 12.01 9.65102 11.3395C10.5361 8.59734 12.6042 6.68039 15.3616 6.05287C16.051 5.89814 17.5403 5.89814 18.3318 6.05287ZM35.5317 30.6723L38.17 32.1165L38.1956 32.4861C38.2381 33.0535 37.9743 34.6695 37.6849 35.5721C37.353 36.6381 36.6637 38.0736 36.0083 39.0794C35.353 40.0679 34.2211 41.28 33.4467 41.8215L32.8509 42.2256L32.2807 41.8387C31.0126 40.9963 29.719 39.3716 28.8169 37.5149C27.9488 35.7355 27.5658 34.3429 27.5403 32.8901L27.5318 32.1165L30.1701 30.6723C31.6254 29.8729 32.8254 29.2282 32.8509 29.2282C32.8764 29.2282 34.0849 29.8729 35.5317 30.6723Z" fill="white"/>
<path d="M33.5913 34.5406L32.2126 35.9246L31.7786 35.4862C31.1658 34.8672 30.6041 34.7727 30.1786 35.2111C29.9999 35.3916 29.9573 35.512 29.9573 35.8472C29.9573 36.2598 29.9658 36.2684 30.7658 37.0593C31.719 37.9963 32.0509 38.2026 32.4339 38.1166C32.7658 38.0392 33.1147 37.7212 34.8169 35.9074C36.153 34.489 36.17 34.4718 36.17 34.085C36.17 33.5434 35.9147 33.2598 35.3786 33.1996L34.97 33.148L33.5913 34.5406Z" fill="white"/>
<path d="M10.2127 20.3741C7.70209 20.6492 5.95742 23.1507 6.47656 25.7123C6.61273 26.3656 7.08933 27.3112 7.52337 27.7754L7.89783 28.1708L7.3106 28.5749C6.14465 29.3743 5.217 30.6121 4.79147 31.9274C4.61274 32.4775 4.57019 32.787 4.56168 33.5176C4.55317 34.575 4.68083 34.9188 5.29359 35.4432C5.94891 36.0191 6.00848 36.0191 10.9957 35.9933L15.4467 35.9676L15.9063 35.7097C16.3659 35.4518 16.6212 35.1853 16.902 34.6352C17.0212 34.4031 17.0552 34.1538 17.0552 33.5606C17.0467 31.6179 15.9063 29.6236 14.1446 28.4717L13.6936 28.1794L14.085 27.7324C15.4127 26.2453 15.5744 23.9587 14.4595 22.2996C13.5233 20.8985 11.9404 20.1764 10.2127 20.3741ZM11.7106 22.3168C11.9914 22.4114 12.2808 22.6091 12.6042 22.9358C13.1574 23.5031 13.3787 24.0361 13.3701 24.8527C13.3701 26.2281 12.1531 27.4144 10.7574 27.4144C9.86378 27.4144 8.87655 26.7525 8.45102 25.8842C8.11911 25.2052 8.11911 24.3111 8.44251 23.675C8.79996 22.9873 9.40421 22.4458 10.0425 22.2481C10.4255 22.1363 11.2765 22.1707 11.7106 22.3168ZM11.5063 29.3141C12.2638 29.4688 13.1489 29.9502 13.7701 30.552C14.6212 31.36 15.1318 32.3314 15.268 33.3715C15.3106 33.7326 15.2935 33.8099 15.1063 33.999L14.9021 34.2053H10.7659C6.67231 34.2053 6.63827 34.2053 6.45954 34.0248C6.29784 33.8615 6.28082 33.7755 6.33188 33.3715C6.51061 31.8328 7.57443 30.3972 9.0723 29.6752C9.97442 29.2454 10.6638 29.1422 11.5063 29.3141Z" fill="white"/>
<path d="M18.6552 22.953C18.3403 23.0475 18.0425 23.4601 18.0425 23.804C18.0425 24.1736 18.3403 24.5604 18.6978 24.655C19.0467 24.7581 26.2467 24.7925 26.7148 24.698C27.1488 24.612 27.4041 24.2768 27.4041 23.804C27.4041 23.3312 27.1488 22.9959 26.7148 22.91C26.2892 22.824 18.9616 22.867 18.6552 22.953Z" fill="white"/>
<path d="M0.544678 26.3742C0.0680848 26.5805 -0.127659 27.1823 0.127659 27.6723C0.28936 27.9903 0.493615 28.1021 0.936166 28.1021C1.70212 28.1021 2.07659 27.2253 1.55744 26.6407C1.30212 26.357 0.85957 26.2453 0.544678 26.3742Z" fill="white"/>
<path d="M18.6552 27.5949C18.3403 27.6894 18.0425 28.1021 18.0425 28.4459C18.0425 28.8155 18.3403 29.2024 18.6978 29.2969C18.8935 29.3571 20.0425 29.3915 21.5744 29.3915C23.1063 29.3915 24.2552 29.3571 24.4509 29.2969C24.8084 29.2024 25.1063 28.8155 25.1063 28.4459C25.1063 28.0763 24.8084 27.6894 24.4509 27.5949C24.0424 27.4745 19.0467 27.4831 18.6552 27.5949Z" fill="white"/>
</svg>
