<svg width="34" height="34" viewBox="0 0 34 34" fill="none" xmlns="http://www.w3.org/2000/svg">
<path d="M16.6879 1.85969C16.4555 1.95266 0.464844 13.6667 0.2125 13.9191C0.0332031 14.1116 0 14.1913 0 14.4769C0 14.6628 0.0464844 14.9019 0.0996094 15.0081C0.305469 15.3999 0.982813 15.5593 1.37461 15.307C1.47422 15.2405 4.96719 12.6905 9.13086 9.63586C13.2945 6.58782 16.7742 4.0511 16.8672 3.99797C17.0332 3.905 17.1926 4.01789 24.7363 9.54289C28.973 12.6441 32.5258 15.2405 32.632 15.307C32.8645 15.4597 33.3027 15.4663 33.5816 15.3136C33.8605 15.1741 34 14.8952 34 14.4769C34 14.1913 33.9668 14.1116 33.7875 13.9191C33.5086 13.6335 17.5379 1.95266 17.2988 1.85969C17.0863 1.78 16.8871 1.78 16.6879 1.85969Z" fill="white"/>
<path d="M4.19023 15.526C4.06406 15.5924 3.90469 15.7518 3.83828 15.878C3.72539 16.0905 3.71875 16.469 3.71875 23.8069C3.71875 31.3241 3.72539 31.5166 3.85156 31.7225C4.14375 32.2006 3.80508 32.1741 9.06445 32.1741C14.3172 32.1741 13.9984 32.2006 14.2574 31.7225C14.3703 31.5299 14.377 31.1448 14.4102 26.7619L14.4434 22.0139L14.6359 21.6155C14.8883 21.1041 15.393 20.5994 15.9043 20.3471C16.2695 20.1744 16.3625 20.1545 17 20.1545C17.6375 20.1545 17.7305 20.1744 18.0957 20.3471C18.607 20.5994 19.1117 21.1041 19.3641 21.6155L19.5566 22.0139L19.5898 26.7619C19.623 31.1448 19.6297 31.5299 19.7426 31.7225C20.0016 32.2006 19.6828 32.1741 24.9355 32.1741C30.1949 32.1741 29.8563 32.2006 30.1484 31.7225C30.2746 31.5166 30.2812 31.3241 30.2812 23.8069C30.2812 16.469 30.2746 16.0905 30.1617 15.878C30.0223 15.6123 29.677 15.4065 29.3848 15.4065C29.1191 15.4065 28.7605 15.5924 28.5945 15.8248C28.4551 16.0108 28.4551 16.0506 28.4352 23.1826L28.4219 30.3479H24.9355H21.4492V26.3303C21.4492 21.7881 21.4426 21.7018 20.9711 20.719C20.752 20.2608 20.5926 20.0483 20.1277 19.5834C19.6629 19.1186 19.4504 18.9592 18.9922 18.7401C18.368 18.4412 17.6176 18.2619 17 18.2619C16.3824 18.2619 15.632 18.4412 15.0078 18.7401C14.5496 18.9592 14.3371 19.1186 13.8723 19.5834C13.4074 20.0483 13.248 20.2608 13.0289 20.719C12.5508 21.7283 12.5508 21.735 12.5508 26.2905V30.3479H9.06445H5.57812L5.56484 23.1826C5.54492 16.0506 5.54492 16.0108 5.40547 15.8248C5.11992 15.433 4.60195 15.3069 4.19023 15.526Z" fill="white"/>
</svg>
