<svg width="34" height="34" viewBox="0 0 34 34" fill="none" xmlns="http://www.w3.org/2000/svg">
<g clip-path="url(#clip0_1011_18960)">
<path d="M9.78282 0.132812C9.3941 0.292187 8.97299 0.697266 8.76567 1.11562C8.6361 1.38125 8.60371 1.54726 8.59075 2.17148L8.56483 2.92188H6.92573C5.04692 2.92188 4.75538 2.975 4.04921 3.45976C3.40134 3.90469 3.04502 4.38281 2.72108 5.24609C2.58503 5.60469 2.58503 5.68437 2.5656 11.6012C2.54616 18.2883 2.52672 17.9762 2.98023 18.1687C3.27177 18.2949 3.52444 18.2418 3.74471 18.016L3.91316 17.8434V13.8059V9.76172H15.7043C28.7912 9.76172 27.7352 9.80156 27.8842 9.32344C27.9814 9.03789 27.8777 8.68594 27.6574 8.53984C27.5149 8.44687 26.3488 8.43359 15.6978 8.43359H3.9002L3.93259 7.15195C3.94555 6.44141 3.9909 5.7707 4.03625 5.63125C4.19174 5.11992 4.73595 4.57539 5.27368 4.38281C5.41621 4.32969 6.07055 4.28984 7.04235 4.26992L8.57779 4.23672V4.84101C8.57779 5.85703 8.92764 6.51445 9.66621 6.88633C10.1715 7.13867 10.9166 7.15195 11.3831 6.90625C12.1346 6.52109 12.4715 5.92344 12.5168 4.90078L12.5492 4.25H17.9459H23.3491V4.84766C23.3491 5.85703 23.699 6.51445 24.4375 6.88633C24.9429 7.13867 25.6879 7.15195 26.1544 6.90625C26.9059 6.52109 27.2428 5.92344 27.2882 4.89414L27.3206 4.23672L29.0115 4.26328C30.67 4.2832 30.7089 4.28984 31.0587 4.45586C31.577 4.70156 31.8038 4.93398 32.0435 5.43203L32.2573 5.87695L32.2767 18.5938C32.2897 27.5852 32.2702 31.4102 32.2184 31.6625C32.1018 32.2535 31.6936 32.6055 31.1235 32.6055C30.5599 32.6055 30.1517 32.2602 30.0286 31.6758C29.9898 31.4898 29.9574 30.9187 29.9574 30.4074V29.4711L29.7695 29.2785L29.5816 29.0859H25.5324H21.4898L21.3213 29.2586C21.0881 29.4977 21.0427 29.7633 21.1917 30.0687C21.276 30.2414 21.3731 30.341 21.5351 30.3941C21.6971 30.4539 22.7142 30.4738 25.215 30.4738L28.6616 30.4805V31.2441C28.6616 31.8352 28.6875 32.0809 28.7847 32.3398L28.9078 32.6719H15.9635C6.54349 32.6719 2.92192 32.652 2.66926 32.5988C2.00195 32.4527 1.71041 31.9414 1.71041 30.9121V30.4805L9.10256 30.4672L16.4947 30.4473L16.6826 30.2281C16.9482 29.9293 16.9482 29.5508 16.6826 29.2785L16.4947 29.0859H13.1647H9.83465L10.1521 28.7406C11.6811 27.0738 12.0439 24.5902 11.0656 22.5582C10.4307 21.2301 9.30988 20.2406 7.89753 19.7492C7.22375 19.5168 5.90211 19.4504 5.15706 19.6164C3.20051 20.0414 1.63267 21.5887 1.10142 23.6074C1.04311 23.8266 0.978325 24.3047 0.958889 24.6699C0.868188 26.1242 1.32817 27.4656 2.29997 28.6277L2.68869 29.0859H1.74281H0.790444L0.602563 29.2852L0.408203 29.4844L0.427639 30.8258C0.447075 32.1273 0.453554 32.1871 0.621999 32.5523C0.842273 33.0437 1.34761 33.5617 1.82703 33.7875L2.19631 33.9668H17H31.8038L32.1731 33.7875C32.6525 33.5617 33.1578 33.0437 33.3781 32.5523L33.553 32.1738L33.5725 18.9258C33.5854 6.97266 33.5789 5.64453 33.4818 5.3125C33.1837 4.25664 32.348 3.38008 31.3244 3.05469C30.9616 2.93516 30.7283 2.92188 29.1151 2.92188H27.3206L27.2882 2.20469C27.2558 1.39453 27.1391 1.04922 26.7634 0.617577C26.4265 0.239063 25.9989 0.0398445 25.4417 0.013279C24.8263 -0.0199242 24.3922 0.126171 23.997 0.504688C23.5111 0.969532 23.388 1.29492 23.3621 2.17148L23.3362 2.92188H17.9395H12.5492L12.5168 2.20469C12.4844 1.39453 12.3678 1.04922 11.992 0.617577C11.6357 0.212498 11.234 0.0398445 10.6186 0.0199203C10.2234 0.00664139 10.0225 0.0332031 9.78282 0.132812ZM10.9425 1.55391C11.0267 1.64023 11.1109 1.81289 11.1369 1.93242C11.1563 2.05859 11.1693 2.86875 11.1563 3.73867L11.1369 5.32578L10.9231 5.51836C10.6963 5.73086 10.5538 5.75078 10.2946 5.63125C9.96422 5.47852 9.93831 5.33242 9.93831 3.48633V1.77969L10.1262 1.58711C10.3724 1.33477 10.7157 1.32148 10.9425 1.55391ZM25.7138 1.55391C25.7981 1.64023 25.8823 1.81289 25.9082 1.93242C25.9276 2.05859 25.9406 2.86875 25.9276 3.73867L25.9082 5.32578L25.6944 5.51836C25.4677 5.73086 25.3251 5.75078 25.066 5.63125C24.7356 5.47852 24.7097 5.33242 24.7097 3.48633V1.77969L24.8975 1.58711C25.1437 1.33477 25.4871 1.32148 25.7138 1.55391ZM7.61895 21.1371C8.80455 21.6086 9.71156 22.5848 10.0873 23.8066C10.2882 24.4574 10.2882 25.4801 10.0873 26.1309C9.71156 27.3527 8.8175 28.3223 7.61895 28.807C7.22375 28.9664 7.10066 28.9797 6.31026 28.9863C5.30607 28.9863 5.00805 28.9133 4.27596 28.475C3.45317 27.9836 2.76643 27.0938 2.48137 26.1641C1.82055 23.9926 3.09685 21.6352 5.27368 21.0176C5.52634 20.9512 5.85028 20.9246 6.40744 20.9445C7.05531 20.9578 7.25615 20.991 7.61895 21.1371Z" fill="white"/>
<path d="M7.8327 23.2089C7.72256 23.2687 7.17188 23.7867 6.60175 24.3711L5.57165 25.4269L5.1311 24.9953C4.72294 24.6035 4.66463 24.5703 4.39253 24.5703C3.99085 24.5703 3.71875 24.8359 3.71875 25.2211C3.71875 25.5464 3.90663 25.8253 4.63872 26.5359C5.24771 27.1336 5.44855 27.2265 5.7984 27.0738C6.12881 26.9277 8.7721 24.1718 8.77858 23.966C8.79802 23.5343 8.67492 23.2886 8.37043 23.1824C8.11128 23.0894 8.06593 23.0894 7.8327 23.2089Z" fill="white"/>
<path d="M29.8212 8.62628C29.6722 8.77901 29.6333 8.87862 29.6333 9.09776C29.6333 9.90128 30.793 10.0208 30.9614 9.23721C31.0975 8.58643 30.2876 8.15479 29.8212 8.62628Z" fill="white"/>
<path d="M8.09856 13.4408C7.12676 13.8592 6.55664 14.7291 6.55664 15.8049C6.55664 16.9072 7.17211 17.8103 8.16983 18.1955C8.70756 18.4014 9.55626 18.3681 10.081 18.1158C10.5605 17.89 11.0658 17.3721 11.2861 16.8806C11.4415 16.5486 11.461 16.4224 11.461 15.8049C11.461 15.1873 11.4415 15.0611 11.2861 14.7291C11.0658 14.2377 10.5605 13.7197 10.081 13.4939C9.77653 13.3478 9.60161 13.3146 9.09627 13.2947C8.56502 13.2814 8.42897 13.3014 8.09856 13.4408ZM9.53034 14.7822C10.243 15.1342 10.3402 16.2099 9.70527 16.708C9.32303 17.0135 8.68164 17.0002 8.31884 16.6881C7.79406 16.2431 7.76815 15.433 8.26701 14.9615C8.5715 14.6627 9.12219 14.5896 9.53034 14.7822Z" fill="white"/>
<path d="M14.2403 13.4008C13.2685 13.7528 12.5947 14.7356 12.5947 15.8048C12.5947 16.9071 13.3333 17.9364 14.331 18.2352C14.9011 18.4079 15.6462 18.3415 16.158 18.0825C18.0174 17.1462 18.0174 14.47 16.158 13.527C15.7952 13.3411 15.6656 13.3145 15.1538 13.2946C14.7197 13.2813 14.4865 13.3079 14.2403 13.4008ZM15.5684 14.7755C16.0219 15.0079 16.2811 15.5923 16.158 16.0704C16.0219 16.595 15.6008 16.9337 15.089 16.9337C14.2079 16.9337 13.6767 16.004 14.1172 15.227C14.2144 15.061 14.3828 14.8883 14.5254 14.8087C14.8104 14.6559 15.3158 14.636 15.5684 14.7755Z" fill="white"/>
<path d="M20.3691 13.3742C19.935 13.5203 19.6111 13.7395 19.2806 14.1047C18.8336 14.616 18.6587 15.0742 18.6587 15.8047C18.6587 16.5352 18.8336 16.9934 19.2806 17.5047C19.7989 18.0758 20.3431 18.3281 21.1141 18.3281C22.1377 18.3281 22.9346 17.8102 23.3752 16.8672C23.5566 16.4754 23.576 16.3758 23.576 15.8047C23.576 15.2336 23.5566 15.134 23.3752 14.7422C23.0642 14.0715 22.52 13.5801 21.8656 13.3742C21.5093 13.268 20.6865 13.2613 20.3691 13.3742ZM21.6583 14.8152C22.0276 15.0277 22.2155 15.3598 22.2155 15.8047C22.2155 16.4621 21.749 16.9336 21.1076 16.9336C20.7319 16.9336 20.4598 16.7809 20.2006 16.4289C20.0451 16.223 20.0127 16.1168 20.0127 15.8047C20.0127 15.4926 20.0451 15.3863 20.2006 15.1805C20.2978 15.041 20.4727 14.875 20.5893 14.802C20.8614 14.6293 21.3473 14.6359 21.6583 14.8152Z" fill="white"/>
<path d="M26.2387 13.4408C25.2669 13.8592 24.6968 14.7291 24.6968 15.8049C24.6968 16.9072 25.3122 17.8103 26.31 18.1955C26.8477 18.4014 27.6964 18.3681 28.2212 18.1158C28.7006 17.89 29.2059 17.3721 29.4262 16.8806C29.5817 16.5486 29.6011 16.4224 29.6011 15.8049C29.6011 15.1873 29.5817 15.0611 29.4262 14.7291C29.2059 14.2377 28.7006 13.7197 28.2212 13.4939C27.9167 13.3478 27.7417 13.3146 27.2364 13.2947C26.7052 13.2814 26.5691 13.3014 26.2387 13.4408ZM27.6705 14.7822C28.3831 15.1342 28.4803 16.2099 27.8454 16.708C27.4632 17.0135 26.8218 17.0002 26.459 16.6881C25.9342 16.2431 25.9083 15.433 26.4071 14.9615C26.7116 14.6627 27.2623 14.5896 27.6705 14.7822Z" fill="white"/>
<path d="M14.2403 20.3071C13.2685 20.659 12.5947 21.6419 12.5947 22.711C12.5947 23.8133 13.3333 24.8426 14.331 25.1415C14.9011 25.3141 15.6462 25.2477 16.158 24.9887C18.0174 24.0524 18.0174 21.3762 16.158 20.4333C15.7952 20.2473 15.6656 20.2208 15.1538 20.2008C14.7197 20.1876 14.4865 20.2141 14.2403 20.3071ZM15.5684 21.6817C16.0219 21.9141 16.2811 22.4985 16.158 22.9766C16.0219 23.5012 15.6008 23.8399 15.089 23.8399C14.2079 23.8399 13.6767 22.9102 14.1172 22.1333C14.2144 21.9673 14.3828 21.7946 14.5254 21.7149C14.8104 21.5622 15.3158 21.5423 15.5684 21.6817Z" fill="white"/>
<path d="M20.3691 20.2805C19.935 20.4266 19.6111 20.6457 19.2806 21.0109C18.8336 21.5223 18.6587 21.9805 18.6587 22.7109C18.6587 23.4414 18.8336 23.8996 19.2806 24.4109C19.7989 24.982 20.3431 25.2344 21.1141 25.2344C22.1377 25.2344 22.9346 24.7164 23.3752 23.7734C23.5566 23.3816 23.576 23.282 23.576 22.7109C23.576 22.1398 23.5566 22.0402 23.3752 21.6484C23.0642 20.9777 22.52 20.4863 21.8656 20.2805C21.5093 20.1742 20.6865 20.1676 20.3691 20.2805ZM21.6583 21.7215C22.0276 21.934 22.2155 22.266 22.2155 22.7109C22.2155 23.3684 21.749 23.8398 21.1076 23.8398C20.7319 23.8398 20.4598 23.6871 20.2006 23.3352C20.0451 23.1293 20.0127 23.023 20.0127 22.7109C20.0127 22.3988 20.0451 22.2926 20.2006 22.0867C20.2978 21.9473 20.4727 21.7813 20.5893 21.7082C20.8614 21.5355 21.3473 21.5422 21.6583 21.7215Z" fill="white"/>
<path d="M26.2387 20.3471C25.2669 20.7654 24.6968 21.6353 24.6968 22.7111C24.6968 23.8135 25.3122 24.7166 26.31 25.1017C26.8477 25.3076 27.6964 25.2744 28.2212 25.0221C28.7006 24.7963 29.2059 24.2783 29.4262 23.7869C29.5817 23.4549 29.6011 23.3287 29.6011 22.7111C29.6011 22.0935 29.5817 21.9674 29.4262 21.6353C29.2059 21.1439 28.7006 20.626 28.2212 20.4002C27.9167 20.2541 27.7417 20.2209 27.2364 20.201C26.7052 20.1877 26.5691 20.2076 26.2387 20.3471ZM27.6705 21.6885C28.3831 22.0404 28.4803 23.1162 27.8454 23.6142C27.4632 23.9197 26.8218 23.9064 26.459 23.5943C25.9342 23.1494 25.9083 22.3392 26.4071 21.8678C26.7116 21.5689 27.2623 21.4959 27.6705 21.6885Z" fill="white"/>
<path d="M18.8657 29.2387C18.4899 29.5973 18.6195 30.2348 19.0925 30.3942C19.6561 30.5868 20.142 30.0489 19.9152 29.4844C19.7468 29.0727 19.1767 28.9399 18.8657 29.2387Z" fill="white"/>
</g>
<defs>
<clipPath id="clip0_1011_18960">
<rect width="33.1707" height="34" fill="white" transform="translate(0.414551)"/>
</clipPath>
</defs>
</svg>
