<svg width="34" height="34" viewBox="0 0 34 34" fill="none" xmlns="http://www.w3.org/2000/svg">
<g clip-path="url(#clip0_1011_18894)">
<path d="M14.5695 0.159569C12.418 0.717381 10.7578 2.45723 10.3129 4.62207L10.2 5.17324L7.93555 5.19316C5.90352 5.21309 5.65781 5.22637 5.45859 5.33262C5.09336 5.53184 4.71484 5.91699 4.52891 6.26894C4.37617 6.56113 4.34961 6.6873 4.34961 7.17207C4.34961 7.65684 4.37617 7.78301 4.52891 8.0752C4.82109 8.63301 5.36563 9.05137 5.90352 9.1377L6.17578 9.18418V13.4607V17.7373L3.41328 22.2596C1.89258 24.7498 0.564453 26.9545 0.458203 27.1604C0.139453 27.8045 0 28.4354 0 29.2256C0 30.6201 0.431641 31.6494 1.42109 32.6389C1.9125 33.1303 2.13164 33.2896 2.58984 33.5154C3.49297 33.9537 3.825 34.0002 6.02969 34.0002H7.94883L8.12148 33.8342C8.40703 33.5486 8.40703 33.1303 8.12813 32.8447C7.96875 32.6854 7.96211 32.6854 6.08945 32.6521C4.09727 32.6189 3.87148 32.5857 3.1875 32.2404C2.46367 31.8752 1.76641 31.0252 1.5207 30.1951C1.33477 29.6041 1.36797 28.6412 1.58047 28.09C1.66016 27.8908 2.96172 25.7061 4.46914 23.2424L7.20508 18.76L10.625 18.7467L14.0449 18.7334L16.7676 23.1959C18.2617 25.6529 19.5566 27.8377 19.6496 28.0568C19.8887 28.6346 19.9219 29.5709 19.7293 30.1951C19.4836 31.0252 18.7996 31.8686 18.0891 32.2271C17.3719 32.5924 17.166 32.6189 15.1605 32.6521L13.2812 32.6854L13.1152 32.858C12.8695 33.0971 12.8762 33.5818 13.1285 33.8275L13.3078 34.0068L15.4395 33.9869C17.4449 33.9604 17.591 33.9537 17.9961 33.8076C20.1676 33.0506 21.4957 30.9521 21.2434 28.6744C21.1305 27.6717 20.9578 27.3396 17.943 22.4189L15.1406 17.8369V13.5006V9.16426H15.2934C15.5723 9.16426 16.1035 8.85215 16.409 8.51348C17.1063 7.74316 17.1063 6.60762 16.4156 5.8373C15.8578 5.21309 15.8578 5.21309 13.5934 5.19316L11.6145 5.17324L11.6609 4.96074C11.8402 4.11738 12.2852 3.32051 12.9227 2.68965C13.4605 2.15176 13.932 1.85293 14.6094 1.62051C15.2668 1.38808 15.9508 1.32832 18.0094 1.32832H19.7824L19.6695 1.57402C19.5965 1.75332 19.5633 2.01894 19.5633 2.45723C19.5566 3.00176 19.5832 3.14121 19.7359 3.4666C19.9684 3.97129 20.4266 4.44941 20.898 4.68848C21.2566 4.86777 21.3363 4.88105 22.0137 4.88105C22.6512 4.88105 22.784 4.86113 23.0629 4.72168C23.5609 4.47598 24.0059 4.03105 24.2516 3.53965C24.4375 3.16113 24.4641 3.0416 24.4641 2.55019C24.4707 1.91269 24.4441 1.92598 25.0219 2.30449C25.7789 2.80918 26.5027 3.67246 26.9012 4.55566C27.2266 5.27285 27.3594 5.96348 27.3594 6.95293V7.83613H25.5531C23.7801 7.83613 23.7336 7.84277 23.4016 7.99551C22.9234 8.21465 22.5449 8.57988 22.3324 9.01816C22.1797 9.33691 22.1531 9.48301 22.1531 9.96113C22.1531 10.4393 22.1797 10.5854 22.3324 10.9041C22.432 11.11 22.6379 11.3889 22.784 11.5217C23.043 11.7541 23.6473 12.0861 23.8266 12.0861C23.8863 12.0861 23.9062 13.9322 23.9062 21.0975C23.9129 28.6014 23.9262 30.2018 24.0059 30.6467C24.225 31.8951 25.1016 33.0439 26.2371 33.5885C26.9543 33.9338 27.4391 34.0268 28.3355 33.9803C29.2121 33.9404 29.7035 33.7811 30.3875 33.3229C30.9918 32.9178 31.3969 32.4596 31.7422 31.8021C32.2336 30.8592 32.207 31.49 32.207 21.2635C32.207 15.433 32.2336 12.0861 32.2734 12.0861C32.3066 12.0861 32.4992 12.0264 32.7051 11.9467C34.4316 11.3025 34.4316 8.61973 32.7051 7.97559C32.3664 7.84941 32.1938 7.83613 30.5469 7.83613H28.7539V6.91973C28.7539 5.9502 28.7008 5.50527 28.475 4.74824C27.9305 2.84902 26.3234 1.1291 24.4508 0.425194C23.3285 0.00683594 23.2488 0.00019455 19.0121 0.00019455C15.207 0.00683594 15.1672 0.00683594 14.5695 0.159569ZM22.5117 1.49434C22.618 1.54746 22.7906 1.70684 22.8902 1.83965C23.043 2.03887 23.0762 2.14512 23.0762 2.45723C23.0762 2.76933 23.043 2.87559 22.8902 3.0748C22.6512 3.38691 22.3723 3.53301 22.0137 3.53301C21.6551 3.53301 21.3762 3.38691 21.1371 3.0748C20.9844 2.87559 20.9512 2.7627 20.9512 2.46387C20.9512 2.03887 21.1238 1.74004 21.4758 1.5209C21.7281 1.36816 22.2395 1.35488 22.5117 1.49434ZM15.2535 6.68066C15.6254 6.95957 15.6254 7.38457 15.2535 7.66348C15.0676 7.80293 15.0145 7.80293 10.8707 7.82285C8.55977 7.83613 6.54102 7.82285 6.38164 7.80293C5.61133 7.69004 5.47852 6.79355 6.1957 6.58105C6.32188 6.54121 8.20781 6.52129 10.7379 6.52793C15.0211 6.54121 15.0676 6.54121 15.2535 6.68066ZM13.7461 13.2482V17.3322H10.6582H7.57031V13.2482V9.16426H10.6582H13.7461V13.2482ZM32.0211 9.23066C32.3598 9.33027 32.6055 9.63574 32.6055 9.97441C32.6055 10.3396 32.2867 10.6584 31.8684 10.7248C31.709 10.7447 29.8895 10.758 27.8242 10.7447C24.318 10.7248 24.0523 10.7182 23.8797 10.6053C23.3219 10.24 23.4746 9.3834 24.1188 9.23066C24.4574 9.15098 31.7289 9.15098 32.0211 9.23066ZM30.8125 17.0334V21.9807H28.0566H25.3008V17.0334V12.0861H28.0566H30.8125V17.0334ZM30.7992 26.9811L30.7793 30.5803L30.5602 31.0318C30.2746 31.6096 29.7832 32.101 29.2254 32.3666C28.8203 32.5592 28.734 32.5725 28.0566 32.5725C27.3992 32.5725 27.293 32.5525 26.9609 32.3932C26.1641 32.0014 25.593 31.2908 25.407 30.4807C25.3207 30.0955 25.3008 29.4779 25.3008 26.7021V23.3752H28.0566H30.8191L30.7992 26.9811Z" fill="white"/>
<path d="M10.1535 14.2708C10.0008 14.4302 9.96094 14.5231 9.96094 14.7556C9.96094 15.1142 10.0871 15.3067 10.3926 15.4063C10.5719 15.4661 10.6848 15.4661 10.8574 15.4063C11.1629 15.3067 11.309 15.081 11.3023 14.7224C11.2957 14.1313 10.5785 13.8524 10.1535 14.2708Z" fill="white"/>
<path d="M11.0501 21.1437C10.1005 21.4492 9.5028 22.3523 9.57584 23.3684C9.63561 24.1719 10.034 24.7695 10.7446 25.1148C11.1364 25.3074 11.2493 25.334 11.7208 25.334C12.1657 25.334 12.3118 25.3008 12.6239 25.148C13.0622 24.9355 13.5005 24.4906 13.6997 24.0523C13.9122 23.5809 13.8989 22.7973 13.6731 22.3125C13.3145 21.5488 12.6571 21.1105 11.8204 21.0707C11.5215 21.0574 11.2094 21.0906 11.0501 21.1437ZM12.2255 22.6844C12.5907 23.0363 12.5176 23.5676 12.0661 23.8398C11.8071 23.9992 11.6743 24.0059 11.3954 23.873C11.0036 23.6871 10.8575 23.2355 11.0567 22.8438C11.2758 22.4121 11.8602 22.3324 12.2255 22.6844Z" fill="white"/>
<path d="M6.43497 25.3871C6.26895 25.4336 5.99669 25.5531 5.83067 25.6528C4.34317 26.5227 4.31661 28.7938 5.77755 29.6703C6.26895 29.9625 6.57442 30.0356 7.20528 30.0024C7.6502 29.9824 7.80294 29.936 8.15489 29.75C9.88145 28.8336 9.78848 26.3434 8.00215 25.5266C7.56387 25.3274 6.87325 25.261 6.43497 25.3871ZM7.39786 26.7883C7.72989 26.9278 7.98887 27.3063 7.98887 27.6516C7.98887 28.7938 6.42169 28.9864 6.10958 27.8906C5.99669 27.4989 6.26895 26.961 6.66739 26.7883C6.93301 26.6754 7.12559 26.6754 7.39786 26.7883Z" fill="white"/>
<path d="M13.268 27.9306C13.0289 28.0568 12.9492 28.2162 12.9492 28.5549C12.9492 29.3318 14.0648 29.4713 14.2707 28.7209C14.4367 28.1099 13.8191 27.6252 13.268 27.9306Z" fill="white"/>
<path d="M10.1336 32.8445C9.99414 32.984 9.96094 33.0836 9.96094 33.3359C9.96094 33.7742 10.1867 34 10.625 34C11.1031 34 11.3953 33.648 11.3023 33.1699C11.2094 32.6852 10.4988 32.4859 10.1336 32.8445Z" fill="white"/>
</g>
<defs>
<clipPath id="clip0_1011_18894">
<rect width="34" height="34" fill="white"/>
</clipPath>
</defs>
</svg>
