<svg width="34" height="34" viewBox="0 0 34 34" fill="none" xmlns="http://www.w3.org/2000/svg">
<g clip-path="url(#clip0_1011_18906)">
<path d="M13.0488 3.71856C11.6012 3.89786 10.4656 5.00684 10.2199 6.47442L10.1402 6.95254L9.53594 6.99239C8.6793 7.03887 8.24102 7.21817 7.72969 7.7295C7.1918 8.26739 7.03906 8.67246 6.9793 9.66192L6.93945 10.3857L6.68047 10.4389C5.9832 10.585 5.15313 11.2689 4.82773 11.9729C4.74141 12.1588 4.26328 13.5201 3.77852 14.9877L2.88867 17.6639H2.3375C1.99219 17.6639 1.71992 17.6971 1.60703 17.7568C1.47422 17.8232 1.23516 18.1951 0.710547 19.158L0 20.4596V23.9658V27.4721L0.172656 27.6447C0.345313 27.8174 0.358594 27.824 1.50742 27.8373L2.66953 27.8572L2.81563 28.2557C3.26719 29.5107 4.38945 30.2877 5.75078 30.2877C6.67383 30.2877 7.37773 30.0088 7.99531 29.3912C8.34727 29.0393 8.83203 28.2025 8.83203 27.9502C8.83203 27.8307 9.05117 27.824 16.1699 27.824C23.1559 27.824 23.5078 27.8307 23.5078 27.9436C23.5078 28.01 23.6141 28.2756 23.7402 28.5412C24.4441 30.0088 26.1773 30.6729 27.7512 30.0818C28.5148 29.7963 29.2719 29.0127 29.5375 28.2225L29.6637 27.8572L30.6199 27.8174C31.6227 27.7775 31.8816 27.7178 32.4328 27.3924C32.8246 27.16 33.3625 26.6154 33.5949 26.2037C33.9934 25.5064 34 25.4201 34 22.2127V19.2775L33.8273 19.0982C33.575 18.8525 33.0969 18.8525 32.8512 19.0982L32.6785 19.2643L32.6586 22.0998C32.6387 24.8955 32.6387 24.942 32.4859 25.2674C32.2867 25.699 31.9215 26.0775 31.5098 26.2701C31.2176 26.4096 31.0781 26.4295 30.4074 26.4295H29.6371L29.5574 26.1439C29.1523 24.7627 27.5785 23.7932 26.1242 24.0322C24.9422 24.2182 23.9594 25.0217 23.6008 26.0775L23.4813 26.4295H17.518H11.5547L11.568 16.4818L11.5879 6.54082L11.7738 6.16231C11.9863 5.73731 12.3051 5.4252 12.7434 5.21934L13.0488 5.07989H22.0801H31.1113L31.4766 5.25254C31.9414 5.47168 32.2469 5.77715 32.466 6.242L32.6387 6.60723L32.6719 10.2795L32.7051 13.9584L32.891 14.1178C33.1633 14.3502 33.5484 14.3369 33.8074 14.0779L34.0066 13.8854L33.9867 10.0139L33.9668 6.14239L33.8141 5.75723C33.4621 4.89395 32.6652 4.14356 31.7555 3.83809L31.3105 3.68536L22.3789 3.67871C17.4648 3.67208 13.268 3.692 13.0488 3.71856ZM10.1602 9.36309V10.3592H9.26367H8.36719V9.86114C8.36719 8.83848 8.79883 8.37364 9.74844 8.367H10.1602V9.36309ZM10.1602 14.7088V17.6639H7.27148C5.68438 17.6639 4.38281 17.6572 4.38281 17.6439C4.38281 17.5643 6.04961 12.6701 6.1293 12.5107C6.25547 12.265 6.5875 11.9729 6.87305 11.8467C7.01914 11.7803 7.49063 11.7604 8.61953 11.7537H10.1602V14.7088ZM10.1602 22.7439V26.4295H9.49609C9.01133 26.4295 8.83203 26.4096 8.83203 26.3432C8.83203 26.1904 8.42031 25.4002 8.19453 25.1279C7.03906 23.7135 4.8543 23.6205 3.54609 24.9287C3.16094 25.3139 2.72266 26.0576 2.72266 26.3232C2.72266 26.4162 2.62305 26.4295 2.02539 26.4295H1.32812V24.9354V23.4412H2.01875C2.82227 23.4412 3.0082 23.3881 3.1543 23.1158C3.30703 22.8104 3.28047 22.5447 3.06133 22.299L2.86875 22.0799L2.09844 22.06L1.32812 22.0334V21.5022C1.32812 20.9643 1.32812 20.9643 1.76641 20.1607C2.01211 19.7225 2.25117 19.2908 2.3043 19.2045L2.39062 19.0584H6.27539H10.1602V22.7439ZM6.5543 25.6061C6.94609 25.792 7.19844 26.0643 7.39102 26.4893C7.59023 26.9408 7.53047 27.6381 7.24492 28.0764C6.74688 28.8533 5.83047 29.1189 5.01367 28.7205C3.93125 28.1959 3.68555 26.8279 4.50898 25.9447C5.02695 25.3803 5.83047 25.2475 6.5543 25.6061ZM27.293 25.5662C27.698 25.7721 27.9371 26.0178 28.1297 26.4029C28.6941 27.5584 27.8574 28.8998 26.5758 28.8998C25.8852 28.8998 25.2477 28.4881 24.9621 27.8639C24.7695 27.4322 24.7895 26.7947 25.0219 26.3631C25.4602 25.5197 26.4895 25.1611 27.293 25.5662Z" fill="white"/>
<path d="M20.3867 9.29007C20.068 9.38968 19.809 9.55569 19.5699 9.82132C19.1582 10.2729 19.1051 10.4721 19.0719 11.6276L19.0453 12.6635L18.0359 12.6967C16.9469 12.7299 16.7211 12.7897 16.2762 13.1416C16.1434 13.2479 15.9441 13.4936 15.8313 13.6928L15.6387 14.0448V15.7713C15.6387 17.4381 15.6453 17.5112 15.7914 17.7768C15.9773 18.1354 16.3094 18.4674 16.6414 18.6334C16.8605 18.7397 17.073 18.7662 17.9695 18.7795L19.0453 18.7994L19.0719 19.8752C19.0984 20.8846 19.1051 20.9709 19.2711 21.2897C19.4902 21.708 19.902 22.0733 20.307 22.2061C20.6855 22.3389 23.4348 22.3588 23.8398 22.2393C24.2582 22.1131 24.7098 21.7213 24.9289 21.2963C25.1148 20.9311 25.1281 20.8647 25.1547 19.8553L25.1879 18.7928H26.1906C27.1004 18.7928 27.2266 18.7795 27.5254 18.6334C27.7113 18.5537 27.9703 18.3545 28.1098 18.1951C28.5746 17.6838 28.5879 17.6307 28.5879 15.7713C28.5879 14.1643 28.5813 14.0979 28.4352 13.7991C28.2426 13.4139 27.7313 12.9424 27.3859 12.8229C27.2398 12.7764 26.6887 12.7233 26.1574 12.7034L25.1879 12.6635L25.1547 11.6541C25.1281 10.7178 25.1082 10.6116 24.9422 10.2662C24.8426 10.067 24.6434 9.79476 24.4906 9.66858C24.0258 9.27015 23.8066 9.2303 22.0867 9.23694C21.2434 9.23694 20.4797 9.26351 20.3867 9.29007ZM23.5078 10.6912C23.727 10.8041 23.7734 11.1295 23.7734 12.451V13.7194L23.9594 13.8987L24.1387 14.0713L25.5199 14.0912L26.9078 14.1112L27.0672 14.2971C27.2266 14.483 27.2266 14.5096 27.2266 15.7647C27.2266 16.96 27.2199 17.0596 27.0871 17.2256L26.9543 17.3983H25.7391C24.3313 17.3983 24.1652 17.4182 23.9395 17.6506C23.7734 17.8166 23.7734 17.8166 23.7734 19.0916C23.7734 20.4131 23.727 20.7385 23.5078 20.8514C23.4348 20.8912 22.8039 20.9178 22.0801 20.9178C20.327 20.9178 20.4531 21.0506 20.4531 19.2311V17.8631L20.2605 17.6506L20.068 17.4315L18.6801 17.4116C16.8473 17.3784 17 17.5244 17 15.778C17.0066 14.3436 17.0199 14.2772 17.3586 14.1444C17.4582 14.1112 18.0891 14.078 18.7996 14.078H20.068L20.2605 13.8854L20.4531 13.6928V12.3315C20.4531 11.0565 20.4598 10.9635 20.5926 10.7975L20.7254 10.6248H22.0535C22.7973 10.6248 23.4348 10.6514 23.5078 10.6912Z" fill="white"/>
<path d="M32.8512 16.1234C32.7117 16.2695 32.6719 16.3758 32.6719 16.6148C32.6719 17.0398 32.8977 17.2656 33.3359 17.2656C33.5883 17.2656 33.6879 17.2324 33.8273 17.093C33.9668 16.9535 34 16.8539 34 16.6016C34 16.1633 33.7742 15.9375 33.3426 15.9375C33.0836 15.9375 32.9973 15.9707 32.8512 16.1234Z" fill="white"/>
</g>
<defs>
<clipPath id="clip0_1011_18906">
<rect width="34" height="34" fill="white"/>
</clipPath>
</defs>
</svg>
