<svg width="34" height="34" viewBox="0 0 34 34" fill="none" xmlns="http://www.w3.org/2000/svg">
<path d="M7.21172 0.172657C7.03906 0.351952 7.03906 0.351952 7.03906 1.42109C7.03906 2.35078 7.05898 2.53008 7.17852 2.78906C7.38438 3.24726 7.6168 3.50625 8.00195 3.72539L8.36055 3.92461L8.38711 6.52773C8.40703 8.87852 8.42695 9.19062 8.55313 9.72852C9.19062 12.4777 10.791 14.802 13.0355 16.2563C13.8324 16.7676 13.8523 17.2258 13.102 17.6973C10.8309 19.1383 9.18398 21.5156 8.55313 24.2582C8.42695 24.8094 8.40703 25.1148 8.38711 27.4723L8.36055 30.0754L8.00195 30.2746C7.6168 30.4937 7.38438 30.7527 7.17852 31.2109C7.05898 31.4699 7.03906 31.6492 7.03906 32.5789C7.03906 33.648 7.03906 33.648 7.21172 33.8273L7.39102 34H17H26.609L26.7883 33.8273C26.9609 33.648 26.9609 33.648 26.9609 32.5789C26.9609 31.6492 26.941 31.4699 26.8215 31.2109C26.6156 30.7527 26.3832 30.4937 25.998 30.2746L25.6395 30.0754L25.6129 27.4723C25.593 25.1148 25.573 24.8094 25.4469 24.2582C25.0418 22.4984 24.2449 20.918 23.0828 19.5766C22.5848 18.9988 21.6352 18.182 20.9645 17.7437C20.141 17.2125 20.141 16.7875 20.9645 16.2563C23.209 14.802 24.8094 12.4777 25.4469 9.72852C25.573 9.19062 25.593 8.87852 25.6129 6.52773L25.6395 3.92461L25.998 3.72539C26.3832 3.50625 26.6156 3.24726 26.8215 2.78906C26.941 2.53008 26.9609 2.35078 26.9609 1.42109C26.9609 0.351952 26.9609 0.351952 26.7883 0.172657L26.609 0H17H7.39102L7.21172 0.172657ZM25.6195 1.74648C25.5996 1.9789 25.5465 2.22461 25.5 2.3043C25.2875 2.63633 25.7059 2.62305 17.1461 2.64297C11.6941 2.64961 9.07109 2.63633 8.8918 2.58984C8.55313 2.49687 8.42695 2.29102 8.38047 1.75977L8.34727 1.32812H17H25.6527L25.6195 1.74648ZM24.3047 5.59141C24.3047 8.41367 24.1453 9.62226 23.6008 10.9437C22.9633 12.5109 21.8344 13.9187 20.4398 14.8816C20.1078 15.1141 19.7359 15.393 19.6098 15.4992C18.7598 16.223 18.7598 17.777 19.6098 18.5008C19.7359 18.607 20.1145 18.8859 20.4598 19.125C22.0137 20.2074 23.2621 21.8941 23.8266 23.6805C24.1918 24.8227 24.2449 25.3141 24.2848 27.7711L24.3246 30.0156H17H9.67539L9.71523 27.7711C9.74844 25.4469 9.8082 24.8691 10.1004 23.8863C10.6648 21.9871 11.9266 20.2473 13.5535 19.125C14.3969 18.5406 14.7621 18.1687 14.9082 17.7371C15.134 17.0465 15.0078 16.2098 14.6027 15.7184C14.4898 15.5855 14.1445 15.2934 13.8258 15.0809C12.0062 13.8324 10.8043 12.2719 10.1668 10.3062C9.81484 9.24375 9.75508 8.66602 9.71523 6.22227L9.67539 3.98438H16.9934H24.3047V5.59141ZM25.1215 31.4168C25.4469 31.5031 25.573 31.7156 25.6195 32.2402L25.6527 32.6719H17H8.34727L8.38047 32.2402C8.42695 31.7289 8.55313 31.5031 8.85195 31.4168C9.15742 31.3305 24.7961 31.3238 25.1215 31.4168Z" fill="white"/>
<path d="M11.1961 5.88359L11.0234 6.06289V7.16523C11.0234 8.0418 11.05 8.38047 11.1562 8.82539C11.5945 10.6449 13.1086 12.5707 15.1738 13.9453C15.466 14.1379 15.8445 14.4301 16.0238 14.5961L16.3359 14.9016V16.6746V18.441L16.5086 18.6203C16.648 18.7598 16.7477 18.793 17 18.793C17.2523 18.793 17.352 18.7598 17.4914 18.6203L17.6641 18.441V16.6746V14.9016L17.9828 14.6027C18.1555 14.4301 18.627 14.0781 19.0254 13.8059C19.5367 13.4672 20.0082 13.0688 20.5859 12.4844C21.7215 11.3488 22.2859 10.4855 22.7242 9.21055C22.9301 8.61953 22.9367 8.55313 22.9633 7.33789L22.9898 6.06953L22.8105 5.89023C22.5383 5.62461 22.1465 5.63789 21.6551 5.94336C20.3469 6.73359 18.6934 7.17188 17 7.17188C15.3066 7.17188 13.6531 6.73359 12.3449 5.94336C11.8602 5.64453 11.4617 5.62461 11.1961 5.88359ZM14.025 8.16797C14.9281 8.44024 15.891 8.56641 17 8.56641C18.4941 8.56641 19.7094 8.34063 21.0375 7.80938L21.582 7.59023V7.86914C21.582 8.48008 21.0773 9.68203 20.4797 10.4922C19.8488 11.3555 18.8859 12.2387 17.8965 12.8695C17.6441 13.0289 17.3387 13.2547 17.2258 13.3609L17.0133 13.5602L16.7941 13.3609C16.668 13.2613 16.3293 13.0156 16.0371 12.8164C15.2535 12.2984 14.7688 11.8934 14.191 11.2891C13.1484 10.2 12.418 8.78555 12.418 7.84922V7.58359L12.9027 7.78281C13.1617 7.88906 13.673 8.06172 14.025 8.16797Z" fill="white"/>
<path d="M16.5086 20.2937C16.3691 20.4332 16.3359 20.5328 16.3359 20.7852C16.3359 21.0375 16.3691 21.1371 16.5086 21.2766C16.648 21.416 16.7477 21.4492 17 21.4492C17.2523 21.4492 17.352 21.416 17.4914 21.2766C17.6309 21.1371 17.6641 21.0375 17.6641 20.7852C17.6641 20.5328 17.6309 20.4332 17.4914 20.2937C17.352 20.1543 17.2523 20.1211 17 20.1211C16.7477 20.1211 16.648 20.1543 16.5086 20.2937Z" fill="white"/>
<path d="M16.7344 22.7574C16.6813 22.7773 16.4488 22.9832 16.223 23.2156C15.7117 23.7336 15.1074 24.0922 13.6199 24.7496C12.2719 25.3406 11.7539 25.666 11.4484 26.1176C11.1363 26.5625 11.0234 27.0074 11.0234 27.7246C11.0234 28.2957 11.0367 28.3488 11.1961 28.5148L11.3754 28.6875H17H22.6246L22.8039 28.5148C22.9633 28.3488 22.9766 28.2957 22.9766 27.7246C22.9766 27.0074 22.8637 26.5625 22.5582 26.1242C22.2461 25.6727 21.7746 25.3672 20.3867 24.7496C18.7996 24.0391 18.2551 23.7203 17.757 23.1891C17.4184 22.8371 17.3055 22.7641 17.093 22.7441C16.9469 22.7242 16.7875 22.7309 16.7344 22.7574ZM17.4449 24.8094C17.943 25.148 19.0453 25.7125 20.1809 26.2039C20.9645 26.5359 21.4625 26.9078 21.5488 27.2066L21.5887 27.3594H17H12.4113L12.4512 27.2066C12.5375 26.9012 13.0422 26.5293 13.8191 26.2039C14.8949 25.7457 16.2098 25.0684 16.6148 24.7629C16.8074 24.6234 16.9734 24.5039 16.9801 24.5039C16.9934 24.5039 17.1992 24.6434 17.4449 24.8094Z" fill="white"/>
</svg>
