<svg width="34" height="34" viewBox="0 0 34 34" fill="none" xmlns="http://www.w3.org/2000/svg">
<g clip-path="url(#clip0_1011_18943)">
<path d="M24.3448 3.05461C23.3487 3.1675 21.9874 3.58586 21.6686 3.8714C21.4627 4.05734 21.4096 4.38273 21.5491 4.66828C21.735 5.06007 22.1334 5.1464 22.678 4.91398C23.6077 4.51554 24.9557 4.32296 26.0182 4.43585C31.417 5.00031 34.3655 10.9304 31.5432 15.5257C31.1049 16.2296 30.4143 16.98 27.8311 19.5566L25.6995 21.6816L20.5397 16.5218L15.3733 11.3554L16.8209 9.90773C18.2288 8.49328 18.262 8.45343 18.262 8.18781C18.262 7.6632 17.7772 7.33117 17.3124 7.53039C17.1928 7.58351 15.1542 9.5757 12.5112 12.2253C7.73657 17.0198 7.56392 17.2191 7.0061 18.3214C6.54126 19.2511 6.10962 20.7386 6.10962 21.396C6.10962 21.5222 6.0897 21.6417 6.06977 21.6616C6.04985 21.6816 5.79087 21.6019 5.4854 21.4757C4.48267 21.064 3.88501 20.9577 2.65649 20.9511C1.38813 20.9511 0.651024 21.0773 0.405321 21.3429C0.166259 21.5952 0.0600088 22.1265 0.0201651 23.2288C-0.0329599 24.7097 0.159618 25.6859 0.737353 26.8546C1.14907 27.678 1.44126 28.0765 2.15181 28.7937C3.28071 29.9159 4.36977 30.5136 5.9436 30.8523C6.65415 31.005 8.14165 31.005 8.84556 30.8523C9.3104 30.7527 9.41001 30.7527 9.84165 30.839C10.6186 30.9917 11.3956 31.0249 12.0862 30.9386C12.8698 30.8323 12.9959 30.8323 13.992 30.9386C16.2299 31.1777 18.5409 30.4538 20.3471 28.9464C21.3299 28.123 31.862 17.5179 32.3334 16.8804C33.1104 15.8179 33.6749 14.4898 33.9006 13.1882C34.0334 12.4245 34.0334 10.9503 33.9006 10.1866C33.2897 6.70031 30.567 3.89132 27.1073 3.19406C26.3436 3.03469 25.0752 2.97492 24.3448 3.05461ZM22.067 25.3007C19.2846 28.0632 18.8995 28.3952 17.8436 28.8866C17.3124 29.139 16.2432 29.4843 16.0042 29.4843C15.9178 29.4843 16.0971 29.2652 16.5354 28.8335C17.6776 27.698 18.3549 26.403 18.6272 24.8491C18.8397 23.6405 18.6737 21.7214 18.3284 21.3495C18.0694 21.0706 17.3522 20.9511 16.0374 20.9577C15.0413 20.9644 14.8288 20.9843 14.2643 21.137C12.2323 21.6816 10.4791 23.023 9.59595 24.7163C9.48306 24.9288 9.38345 25.1015 9.36353 25.1015C9.3436 25.1015 9.23071 24.9222 9.11118 24.703C8.81235 24.1585 8.18149 23.3351 7.76977 22.9499L7.41782 22.6245L7.45767 21.987C7.48423 21.6351 7.53735 21.1769 7.5772 20.9644C7.74321 20.028 8.23462 18.8925 8.81235 18.0691C8.97837 17.83 10.2999 16.4421 11.7475 14.9878L14.3772 12.3515L19.5436 17.5112L24.71 22.6777L22.067 25.3007ZM4.1772 22.5116C5.89712 23.003 7.23852 24.1054 8.01548 25.6659C8.40728 26.4429 8.63306 27.3593 8.63306 28.1495V28.5878L7.33813 27.2929L6.04321 25.998H5.73774C5.47876 25.998 5.40571 26.0312 5.2397 26.2171C5.03384 26.4495 4.98735 26.7218 5.12017 26.9808C5.16001 27.0605 5.75102 27.6913 6.43501 28.3819L7.67017 29.6304L7.10571 29.5839C4.28345 29.3648 2.05884 27.4589 1.49438 24.7694C1.39477 24.2913 1.36157 23.0827 1.43462 22.6312C1.48774 22.3257 1.54087 22.3191 2.78931 22.3456C3.45337 22.3655 3.81196 22.4054 4.1772 22.5116ZM17.2459 22.4054C17.2659 22.4253 17.2991 22.8105 17.319 23.2554C17.3389 23.853 17.319 24.2316 17.2327 24.6698C16.7479 27.253 14.6428 29.2187 12.0131 29.5507C10.9307 29.6835 10.9042 29.7765 12.3319 28.3421C13.0292 27.6382 13.6202 26.9874 13.6467 26.9077C13.7862 26.4429 13.4542 25.998 12.976 25.998C12.6838 25.998 12.6772 26.0046 11.3956 27.2862C10.6917 27.9902 10.094 28.5413 10.0674 28.5015C10.001 28.3952 10.1471 27.2398 10.2866 26.7284C10.9042 24.5171 12.6041 22.9433 14.9483 22.412C15.3733 22.3124 17.153 22.3058 17.2459 22.4054Z" fill="white"/>
<path d="M19.2113 5.5383C19.052 5.67776 19.0254 5.7508 19.0254 6.03635C19.0254 6.41486 19.1582 6.6008 19.4902 6.69377C19.975 6.83322 20.3535 6.54104 20.3535 6.02971C20.3535 5.59807 20.1277 5.37893 19.6895 5.37893C19.477 5.37893 19.3441 5.42541 19.2113 5.5383Z" fill="white"/>
</g>
<defs>
<clipPath id="clip0_1011_18943">
<rect width="34" height="34" fill="white"/>
</clipPath>
</defs>
</svg>
