<svg width="17" height="26" viewBox="0 0 17 26" fill="none" xmlns="http://www.w3.org/2000/svg">
<path fill-rule="evenodd" clip-rule="evenodd" d="M12.9455 11.0028C12.3645 11.6023 11.6728 12.0782 10.9103 12.4031C10.1478 12.7279 9.32977 12.8952 8.5035 12.8952C7.67724 12.8952 6.85918 12.7279 6.0967 12.4031C5.33422 12.0782 4.64246 11.6023 4.0615 11.0028C3.18565 10.1005 2.58994 8.95479 2.34886 7.70889C2.10778 6.46299 2.23204 5.17221 2.70609 3.99799C3.18014 2.82377 3.98295 1.81823 5.01411 1.10712C6.04526 0.396024 7.25899 0.010928 8.5035 0C9.75041 0.0086266 10.967 0.392908 12.0007 1.10461C13.0343 1.81631 13.8389 2.82371 14.3134 4.00036C14.7879 5.17701 14.9112 6.47048 14.6679 7.71839C14.4245 8.96631 13.8253 10.1131 12.9455 11.0147V11.0028ZM8.49179 3.5161C7.73177 3.5161 7.00289 3.82417 6.46548 4.37255C5.92808 4.92092 5.62616 5.66468 5.62616 6.4402C5.62616 7.21572 5.92808 7.95948 6.46548 8.50785C7.00289 9.05623 7.73177 9.3643 8.49179 9.3643C9.25179 9.3643 9.98068 9.05623 10.5181 8.50785C11.0555 7.95948 11.3574 7.21572 11.3574 6.4402C11.3574 5.66468 11.0555 4.92092 10.5181 4.37255C9.98068 3.82417 9.25179 3.5161 8.49179 3.5161ZM15.1021 12.9163L16.9421 15.4995C17.0359 15.6311 17.0125 15.8105 16.8953 15.9062C15.3712 17.1742 13.5832 18.0701 11.668 18.5253L15.2193 25.5575C15.2437 25.6031 15.2561 25.6544 15.2552 25.7064C15.2543 25.7583 15.2401 25.8091 15.2141 25.8538C15.188 25.8985 15.151 25.9355 15.1067 25.9611C15.0624 25.9867 15.0123 26.0001 14.9614 26H11.1523C11.0351 26 10.9296 25.9282 10.8827 25.8206L8.5035 20.0202L6.11256 25.8206C6.08968 25.8741 6.05197 25.9196 6.00407 25.9514C5.95617 25.9833 5.90018 26.0002 5.84299 26H2.03388C1.81119 26 1.68227 25.7608 1.77603 25.5575L5.33901 18.5253C3.46376 18.0708 1.65883 17.2097 0.111745 15.9062C0.0528892 15.8589 0.0140179 15.7904 0.00311887 15.7148C-0.00778018 15.6391 0.0101206 15.5621 0.0531432 15.4995L1.90496 12.9282C1.92919 12.8947 1.95976 12.8665 1.99488 12.8453C2.02999 12.8241 2.06893 12.8103 2.10938 12.8047C2.14982 12.7991 2.19096 12.8019 2.23034 12.8128C2.26971 12.8238 2.30653 12.8427 2.33861 12.8684C4.0327 14.4316 6.22017 15.3228 8.5035 15.3799C10.789 15.3799 12.9221 14.3993 14.6684 12.8684C14.7856 12.7488 14.9966 12.7728 15.1021 12.9163Z" fill="white"/>
</svg>
