<svg width="34" height="34" viewBox="0 0 34 34" fill="none" xmlns="http://www.w3.org/2000/svg">
<g clip-path="url(#clip0_987_14589)">
<path d="M17 0C13.6377 0 10.3509 0.997033 7.55531 2.86502C4.75968 4.733 2.58075 7.38804 1.29406 10.4944C0.00736589 13.6007 -0.329291 17.0189 0.326658 20.3165C0.982607 23.6142 2.6017 26.6433 4.97919 29.0208C7.35668 31.3983 10.3858 33.0174 13.6835 33.6733C16.9811 34.3293 20.3993 33.9926 23.5056 32.706C26.612 31.4193 29.267 29.2403 31.135 26.4447C33.003 23.6491 34 20.3623 34 17C34 12.4913 32.2089 8.1673 29.0208 4.97918C25.8327 1.79107 21.5087 0 17 0ZM17.0213 6.375C18.0848 6.37844 19.1234 6.69713 20.0059 7.29078C20.8883 7.88443 21.5749 8.72638 21.9789 9.7102C22.3829 10.694 22.4861 11.7755 22.2756 12.818C22.065 13.8605 21.5501 14.8171 20.7959 15.567C20.0417 16.3169 19.0821 16.8263 18.0384 17.0309C16.9947 17.2355 15.9138 17.126 14.9324 16.7164C13.9509 16.3067 13.1129 15.6153 12.5243 14.7295C11.9357 13.8436 11.623 12.8032 11.6257 11.7397C11.6277 11.0331 11.7689 10.3339 12.0411 9.68195C12.3134 9.02998 12.7114 8.43802 13.2124 7.93986C13.7134 7.44171 14.3077 7.04712 14.9612 6.77862C15.6147 6.51012 16.3147 6.37297 17.0213 6.375ZM23.0447 19.2428C22.3868 19.907 21.5925 20.4205 20.7168 20.7477C19.8639 21.0542 18.9762 21.2534 18.0741 21.3408C18.2093 21.4876 18.2673 21.561 18.36 21.646C19.5828 22.8747 20.8115 24.0994 22.0305 25.3339C22.2247 25.5104 22.3564 25.7452 22.4058 26.0029C22.4553 26.2607 22.4198 26.5275 22.3048 26.7634C22.187 27.0215 21.9961 27.2394 21.7558 27.3901C21.5154 27.5409 21.2361 27.6178 20.9525 27.6115C20.6208 27.5779 20.3139 27.4206 20.0928 27.171C19.1694 26.2418 18.2286 25.33 17.3246 24.3834C17.0618 24.1072 16.9382 24.1593 16.7025 24.3989C15.7733 25.3648 14.8286 26.2959 13.8801 27.2328C13.7041 27.4283 13.468 27.5595 13.2091 27.6057C12.9502 27.6519 12.6833 27.6104 12.4506 27.4878C12.1981 27.3704 11.9849 27.1825 11.8368 26.9467C11.6888 26.7108 11.6121 26.4372 11.616 26.1588C11.6444 25.8139 11.805 25.4935 12.0642 25.2643C13.2761 24.055 14.4848 22.8444 15.6902 21.6325C15.7714 21.5514 15.8448 21.4664 15.9626 21.3427C14.3148 21.1708 12.8292 20.7632 11.5581 19.7702C11.3964 19.6495 11.241 19.5205 11.0925 19.3839C10.5361 18.8507 10.4801 18.2383 10.9206 17.6066C11.2973 17.0676 11.929 16.9227 12.5877 17.2318C12.712 17.2955 12.8308 17.3692 12.9432 17.452C14.1213 18.2521 15.5098 18.686 16.9338 18.6991C18.3579 18.7121 19.7541 18.3038 20.9467 17.5255C21.174 17.3395 21.437 17.2021 21.7194 17.1217C21.9819 17.045 22.2625 17.0586 22.5164 17.1601C22.7703 17.2617 22.9828 17.4454 23.12 17.6819C23.4774 18.248 23.4735 18.8024 23.0447 19.2428ZM17.0135 14.3843C17.5351 14.3816 18.0441 14.224 18.476 13.9316C18.9079 13.6392 19.2432 13.2251 19.4395 12.7418C19.6357 12.2585 19.6839 11.7279 19.5781 11.2171C19.4723 10.7064 19.2172 10.2386 18.8451 9.87305C18.4731 9.5075 18.0008 9.2607 17.4883 9.16393C16.9758 9.06716 16.4461 9.12479 15.9663 9.32951C15.4866 9.53424 15.0785 9.87682 14.7937 10.3138C14.509 10.7508 14.3604 11.2625 14.3669 11.7841C14.369 12.1289 14.4391 12.4699 14.5734 12.7875C14.7077 13.1051 14.9035 13.393 15.1494 13.6347C15.3954 13.8763 15.6867 14.067 16.0066 14.1956C16.3265 14.3243 16.6687 14.3884 17.0135 14.3843Z" fill="black"/>
</g>
<defs>
<clipPath id="clip0_987_14589">
<rect width="34" height="34" fill="white"/>
</clipPath>
</defs>
</svg>
