<svg width="34" height="34" viewBox="0 0 34 34" fill="none" xmlns="http://www.w3.org/2000/svg">
<g clip-path="url(#clip0_987_14581)">
<path fill-rule="evenodd" clip-rule="evenodd" d="M17 34C26.3888 34 34 26.3888 34 17C34 7.61116 26.3888 0 17 0C7.61116 0 0 7.61116 0 17C0 26.3888 7.61116 34 17 34ZM11.6299 19.169L6.77978 16.7518C6.29964 16.513 6.33187 15.8147 6.83101 15.6197L25.4248 8.36813C25.8727 8.18798 26.3544 8.58299 26.2578 9.06726L23.0241 25.1818C22.9398 25.5975 22.4737 25.8074 22.1101 25.5983L16.9254 22.6457L14.8288 25.4331C14.4726 25.9058 13.7132 25.6554 13.7132 25.0604V19.4203C13.7132 19.2426 13.7892 19.074 13.9223 18.9558L16.5353 16.6403L12.2182 19.15C12.0389 19.255 11.8174 19.2616 11.6299 19.169Z" fill="black"/>
</g>
<rect x="0.5" y="0.5" width="33" height="33" rx="16.5" stroke="black"/>
<defs>
<clipPath id="clip0_987_14581">
<rect width="34" height="34" rx="17" fill="white"/>
</clipPath>
</defs>
</svg>
