<svg width="34" height="34" viewBox="0 0 34 34" fill="none" xmlns="http://www.w3.org/2000/svg">
<path fill-rule="evenodd" clip-rule="evenodd" d="M17 34C26.3888 34 34 26.3888 34 17C34 7.61116 26.3888 0 17 0C7.61116 0 0 7.61116 0 17C0 26.3888 7.61116 34 17 34ZM19.0927 21.9028C19.1516 22.6102 19.2374 23.6405 17.1154 23.6405C11.0465 23.6405 7.4375 14.4781 7.4375 12.8477C7.4375 12.1218 7.91243 11.6883 8.7077 11.6883H10.6688C11.5796 11.6883 11.9031 12.2501 12.1167 12.8565C12.8785 15.0981 13.9559 16.852 14.5615 17.5014C14.5043 16.5786 14.5307 15.9272 14.5509 15.4274C14.5856 14.5695 14.6023 14.1582 14.1471 13.5872C13.3232 12.5561 14.0842 11.6875 14.8794 11.6875H17.9617C19.1724 11.6875 19.1443 12.7704 19.1142 13.9317L19.11 14.1012C19.0957 14.7283 19.0773 15.5722 19.1044 16.6775C19.9921 15.8973 21.1763 13.6932 21.5978 12.6214C21.8496 12.0182 22.3477 11.6875 23.0043 11.6875H24.9654C25.4347 11.6875 25.7822 11.8333 26.0005 12.1218C26.1455 12.3146 26.2858 12.6557 26.1328 13.1816C26.1328 13.184 26.1312 13.188 26.1312 13.188C25.8483 14.3403 23.9263 17.2201 23.4226 17.8855H23.4242C23.4043 17.9174 23.3661 17.9788 23.3422 18.025C23.3792 18.0834 23.5468 18.2577 23.7876 18.5079C24.5774 19.329 26.1545 20.9684 26.4898 22.0213C26.6571 22.5918 26.5041 22.9584 26.3479 23.1672C26.1862 23.3831 25.8626 23.6405 25.2411 23.6405H23.28C22.49 23.6405 22.1005 23.2046 21.4143 22.4368C21.175 22.169 20.8997 21.8609 20.5587 21.5168C19.7045 20.6865 19.2909 20.4769 19.1156 20.4275C19.1029 20.6456 19.106 21.0032 19.1091 21.3759V21.3759V21.376L19.1092 21.3854C19.0594 21.5027 19.0748 21.6879 19.0927 21.9028V21.9028Z" fill="black"/>
</svg>
