<svg width="24" height="15" viewBox="0 0 24 15" fill="none" xmlns="http://www.w3.org/2000/svg">
<path d="M23.453 1.0172C23.6179 0.431231 23.453 0 22.66 0H20.0357C19.3675 0 19.06 0.370315 18.8952 0.782845C18.8952 0.782845 17.5585 4.20942 15.6695 6.43123C15.0591 7.07346 14.7785 7.27973 14.4443 7.27973C14.2794 7.27973 14.0254 7.07346 14.0254 6.48749V1.0172C14.0254 0.314053 13.8383 0 13.2859 0H9.1602C8.7414 0 8.49195 0.328099 8.49195 0.632842C8.49195 1.29843 9.43643 1.45309 9.53445 3.3281V7.39691C9.53445 8.28754 9.38303 8.45159 9.04882 8.45159C8.15775 8.45159 5.99243 5.01097 4.70933 1.07346C4.45088 0.309398 4.19693 0 3.52419 0H0.899985C0.151485 0 0 0.370315 0 0.782845C0 1.51408 0.891075 5.14693 4.14795 9.94689C6.3177 13.2235 9.3741 15 12.1542 15C13.825 15 14.03 14.6062 14.03 13.9266C14.03 10.7953 13.8785 10.5 14.7161 10.5C15.1037 10.5 15.772 10.7063 17.3314 12.286C19.1135 14.161 19.4075 15 20.4056 15H23.0298C23.7783 15 24.157 14.6062 23.9387 13.8281C23.4397 12.1922 20.0669 8.82656 19.9155 8.60159C19.5278 8.07662 19.6392 7.84218 19.9155 7.37347C19.9199 7.36874 23.1233 2.62503 23.453 1.0172Z" fill="white"/>
</svg>
