<svg width="93" height="30" viewBox="0 0 93 30" fill="none" xmlns="http://www.w3.org/2000/svg">
<path d="M88.733 11.0345H93C92.4603 6.89657 89.4271 4.72152 85.2114 4.72152C80.9445 4.72152 78.0912 6.97619 78.0912 10.8489C78.0912 15.252 81.767 16.2334 83.7206 16.6314C86.2396 17.1354 88.7073 17.1884 88.7073 19.4165C88.7073 20.9284 87.4735 21.6711 85.7256 21.6711C83.5664 21.6711 82.127 20.5571 81.767 18.5413H77.5514C77.8084 22.8914 80.8674 25.2255 85.3658 25.2255C89.5299 25.2255 92.9486 23.2627 92.9486 19.0187C92.9486 14.4563 89.0158 13.634 86.2654 13.2096C84.3888 12.9179 82.3325 12.6526 82.3325 10.6101C82.3325 9.17777 83.3864 8.30247 85.16 8.30247C87.2165 8.30247 88.4502 9.49617 88.733 11.0345Z" fill="#403F41"/>
<path d="M75.2123 5.3847H71.1766V24.6154H75.2123V5.3847Z" fill="#403F41"/>
<path d="M58.9925 17.9046H64.2621C63.4395 19.9737 61.5887 20.9549 59.4552 20.9549C55.7024 20.9549 53.9545 17.9576 53.9545 14.9868C53.9545 11.9894 55.5995 8.93906 59.4295 8.93906C61.7687 8.93906 63.5165 10.0531 64.1849 12.0425L68.529 12.0425C67.7836 7.55983 63.9793 4.98688 59.481 4.98688C53.9287 4.98688 49.7645 8.88598 49.7645 15.0399C49.7645 21.2733 54.2885 24.9603 59.4552 24.9603C64.5448 24.9603 68.529 21.5386 68.529 16.1805V14.6154H58.9925V17.9046Z" fill="#403F41"/>
<path d="M40.5365 4.98686C35.9096 4.98686 32.4909 7.98413 32.5166 12.9709H36.6808C36.6293 10.7958 37.966 8.80645 40.3308 8.80645C42.3873 8.80645 43.5954 10.2919 43.5954 11.9894C43.5954 13.687 42.3872 14.642 40.1509 15.6765C37.092 17.0823 34.9072 17.9842 32.6708 18.78V24.6155H48.248V20.6897H37.5541C37.5541 20.6897 37.5897 20.6782 37.6072 20.6728C39.4261 20.104 40.7926 19.4861 42.413 18.7534C45.8831 17.1619 47.8624 15.1724 47.8624 11.7773C47.8624 7.61276 44.8806 4.98686 40.5365 4.98686Z" fill="#403F41"/>
<path d="M21.5663 17.8516C16.3225 17.8781 15.4743 21.1407 15.1916 23.8993L15.0631 25.1194H14.0091L13.8806 23.8993C13.5979 21.1407 12.7239 17.8781 7.66002 17.8516C6.81178 16.0478 6.45191 14.5889 6.45191 12.9443C6.45191 8.83301 9.71645 4.98674 14.5489 4.98674C19.3814 4.98674 22.5945 8.80634 22.5945 12.971C22.5945 14.5889 22.4403 16.0478 21.5663 17.8516ZM14.4976 0C6.5291 0 0 6.73746 0 14.9867C0 23.2627 6.5291 30 14.4976 30C22.5431 30 29.0464 23.2627 29.0464 14.9867C29.0464 6.73748 22.5431 0 14.4976 0Z" fill="#29B24A"/>
</svg>
