<svg width="105" height="30" viewBox="0 0 105 30" fill="none" xmlns="http://www.w3.org/2000/svg">
<path d="M14.9498 12.2727V18.0818H22.9956C22.6423 19.95 21.5821 21.5318 19.9919 22.5955L24.8439 26.3728C27.6708 23.7547 29.3017 19.9092 29.3017 15.341C29.3017 14.2774 29.2066 13.2546 29.0299 12.2729L14.9498 12.2727Z" fill="#4285F4"/>
<path d="M6.57143 17.8551L5.47714 18.6955L1.60366 21.7227C4.06361 26.6181 9.10546 30 14.9495 30C18.9859 30 22.37 28.6636 24.8436 26.3728L19.9917 22.5955C18.6598 23.4955 16.9609 24.041 14.9495 24.041C11.0625 24.041 7.76004 21.4092 6.57754 17.8637L6.57143 17.8551Z" fill="#34A853"/>
<path d="M1.60361 8.27722C0.584348 10.2953 0 12.5726 0 14.9998C0 17.4271 0.584348 19.7044 1.60361 21.7225C1.60361 21.736 6.57797 17.8497 6.57797 17.8497C6.27897 16.9497 6.10224 15.9953 6.10224 14.9997C6.10224 14.0041 6.27897 13.0496 6.57797 12.1496L1.60361 8.27722Z" fill="#FBBC05"/>
<path d="M14.9498 5.9727C17.1516 5.9727 19.1086 6.73632 20.6716 8.20906L24.9527 3.91367C22.3568 1.48645 18.9864 0 14.9498 0C9.10577 0 4.06356 3.36813 1.60361 8.27722L6.57787 12.15C7.76021 8.60449 11.0628 5.9727 14.9498 5.9727Z" fill="#EA4335"/>
<path d="M46.9202 21.7032C45.578 21.7032 44.3422 21.3765 43.2126 20.7232C42.0831 20.0699 41.1861 19.1699 40.5217 18.0232C39.8572 16.8766 39.525 15.6099 39.525 14.2233C39.525 12.8366 39.8572 11.57 40.5217 10.4233C41.1861 9.27667 42.0831 8.37669 43.2126 7.72336C44.3422 7.07004 45.578 6.74338 46.9202 6.74338C47.97 6.74338 48.9534 6.93004 49.8703 7.30337C50.8005 7.6767 51.5646 8.20336 52.1626 8.88335L50.9467 10.1033C50.4949 9.54334 49.9168 9.11668 49.2125 8.82335C48.5082 8.51669 47.7507 8.36335 46.9401 8.36335C45.9302 8.36335 44.9867 8.61002 44.1096 9.10334C43.2458 9.58334 42.5482 10.27 42.0166 11.1633C41.4984 12.0433 41.2393 13.0633 41.2393 14.2233C41.2393 15.3833 41.4984 16.4099 42.0166 17.3032C42.5482 18.1832 43.2525 18.8699 44.1296 19.3632C45.0066 19.8432 45.9435 20.0832 46.9401 20.0832C47.8969 20.0832 48.6942 19.9365 49.3321 19.6432C49.9832 19.3365 50.5414 18.9365 51.0065 18.4432C51.352 18.0699 51.6311 17.6232 51.8437 17.1032C52.0563 16.5699 52.1892 15.9832 52.2423 15.3433H46.9601V13.7633H53.8171C53.8835 14.1366 53.9167 14.4833 53.9167 14.8033C53.9167 15.6832 53.7772 16.5432 53.4981 17.3832C53.2191 18.2099 52.7739 18.9365 52.1626 19.5632C50.847 20.9898 49.0995 21.7032 46.9202 21.7032Z" fill="#5F6368"/>
<path d="M60.6859 21.7032C59.6892 21.7032 58.7922 21.4632 57.9949 20.9832C57.1976 20.5032 56.573 19.8499 56.1212 19.0232C55.6827 18.1965 55.4634 17.2832 55.4634 16.2832C55.4634 15.2833 55.6827 14.3699 56.1212 13.5433C56.573 12.7166 57.1976 12.0633 57.9949 11.5833C58.7922 11.1033 59.6892 10.8633 60.6859 10.8633C61.6825 10.8633 62.5795 11.1033 63.3768 11.5833C64.1742 12.0633 64.7921 12.7166 65.2306 13.5433C65.6824 14.3699 65.9083 15.2833 65.9083 16.2832C65.9083 17.2832 65.6824 18.1965 65.2306 19.0232C64.7921 19.8499 64.1742 20.5032 63.3768 20.9832C62.5795 21.4632 61.6825 21.7032 60.6859 21.7032ZM60.6859 20.1632C61.3104 20.1632 61.8885 20.0098 62.4201 19.7032C62.9649 19.3832 63.3968 18.9299 63.7157 18.3432C64.0479 17.7565 64.214 17.0699 64.214 16.2832C64.214 15.4966 64.0479 14.8099 63.7157 14.2233C63.3968 13.6366 62.9649 13.1899 62.4201 12.8833C61.8885 12.5633 61.3104 12.4033 60.6859 12.4033C60.0613 12.4033 59.4766 12.5633 58.9318 12.8833C58.3869 13.1899 57.9484 13.6366 57.6162 14.2233C57.2972 14.8099 57.1378 15.4966 57.1378 16.2832C57.1378 17.0699 57.2972 17.7565 57.6162 18.3432C57.9484 18.9299 58.3869 19.3832 58.9318 19.7032C59.4766 20.0098 60.0613 20.1632 60.6859 20.1632Z" fill="#5F6368"/>
<path d="M72.5601 21.7032C71.5634 21.7032 70.6665 21.4632 69.8691 20.9832C69.0718 20.5032 68.4472 19.8499 67.9954 19.0232C67.5569 18.1965 67.3376 17.2832 67.3376 16.2832C67.3376 15.2833 67.5569 14.3699 67.9954 13.5433C68.4472 12.7166 69.0718 12.0633 69.8691 11.5833C70.6665 11.1033 71.5634 10.8633 72.5601 10.8633C73.5568 10.8633 74.4537 11.1033 75.2511 11.5833C76.0484 12.0633 76.6663 12.7166 77.1049 13.5433C77.5567 14.3699 77.7826 15.2833 77.7826 16.2832C77.7826 17.2832 77.5567 18.1965 77.1049 19.0232C76.6663 19.8499 76.0484 20.5032 75.2511 20.9832C74.4537 21.4632 73.5568 21.7032 72.5601 21.7032ZM72.5601 20.1632C73.1847 20.1632 73.7627 20.0098 74.2943 19.7032C74.8391 19.3832 75.271 18.9299 75.5899 18.3432C75.9222 17.7565 76.0883 17.0699 76.0883 16.2832C76.0883 15.4966 75.9222 14.8099 75.5899 14.2233C75.271 13.6366 74.8391 13.1899 74.2943 12.8833C73.7627 12.5633 73.1847 12.4033 72.5601 12.4033C71.9355 12.4033 71.3508 12.5633 70.806 12.8833C70.2611 13.1899 69.8226 13.6366 69.4904 14.2233C69.1715 14.8099 69.012 15.4966 69.012 16.2832C69.012 17.0699 69.1715 17.7565 69.4904 18.3432C69.8226 18.9299 70.2611 19.3832 70.806 19.7032C71.3508 20.0098 71.9355 20.1632 72.5601 20.1632Z" fill="#5F6368"/>
<path d="M84.2151 26.0231C83.0191 26.0231 82.0291 25.7431 81.245 25.1831C80.4743 24.6231 79.956 23.9498 79.6902 23.1631L81.2251 22.5031C81.451 23.0898 81.8231 23.5631 82.3413 23.9231C82.8729 24.2965 83.4975 24.4831 84.2151 24.4831C85.2649 24.4831 86.0755 24.1765 86.6469 23.5631C87.2316 22.9498 87.5239 22.0832 87.5239 20.9632V19.8232H87.4442C87.112 20.3432 86.6403 20.7698 86.029 21.1032C85.431 21.4232 84.7466 21.5832 83.9759 21.5832C83.0988 21.5832 82.2948 21.3565 81.5639 20.9032C80.8464 20.4498 80.2749 19.8165 79.8497 19.0032C79.4245 18.1899 79.2118 17.2632 79.2118 16.2232C79.2118 15.1966 79.4245 14.2766 79.8497 13.4633C80.2749 12.6366 80.8464 11.9966 81.5639 11.5433C82.2948 11.09 83.0988 10.8633 83.9759 10.8633C84.7466 10.8633 85.431 11.03 86.029 11.3633C86.6403 11.6833 87.112 12.11 87.4442 12.6433H87.5239V11.1833H89.1385V20.9832C89.1385 22.6231 88.6867 23.8698 87.7831 24.7231C86.8794 25.5898 85.6901 26.0231 84.2151 26.0231ZM84.2151 20.0432C84.8263 20.0432 85.3778 19.8899 85.8695 19.5832C86.3745 19.2765 86.7731 18.8365 87.0655 18.2632C87.3711 17.6899 87.5239 17.0099 87.5239 16.2232C87.5239 15.4233 87.3711 14.7366 87.0655 14.1633C86.7731 13.5899 86.3745 13.1566 85.8695 12.8633C85.3778 12.5566 84.8263 12.4033 84.2151 12.4033C83.6038 12.4033 83.0456 12.5566 82.5407 12.8633C82.0357 13.17 81.6304 13.6099 81.3248 14.1833C81.0324 14.7566 80.8862 15.4366 80.8862 16.2232C80.8862 17.0099 81.0324 17.6966 81.3248 18.2832C81.6304 18.8565 82.0357 19.2965 82.5407 19.6032C83.0456 19.8965 83.6038 20.0432 84.2151 20.0432Z" fill="#5F6368"/>
<path d="M91.6437 7.06337H93.338V21.3832H91.6437V7.06337Z" fill="#5F6368"/>
<path d="M100.276 21.7032C99.3058 21.7032 98.4354 21.4698 97.6646 21.0032C96.8939 20.5365 96.2892 19.8965 95.8507 19.0832C95.4255 18.2565 95.2128 17.3299 95.2128 16.3032C95.2128 15.3166 95.4122 14.4099 95.8108 13.5833C96.2228 12.7566 96.8008 12.0966 97.545 11.6033C98.2892 11.11 99.153 10.8633 100.136 10.8633C101.133 10.8633 101.997 11.09 102.728 11.5433C103.459 11.9833 104.017 12.5966 104.402 13.3833C104.801 14.1699 105 15.0699 105 16.0832C105 16.2832 104.98 16.4566 104.94 16.6032H96.9072C96.947 17.3766 97.1331 18.0299 97.4653 18.5632C97.7975 19.0965 98.2161 19.4965 98.7211 19.7632C99.2393 20.0299 99.7775 20.1632 100.336 20.1632C101.638 20.1632 102.641 19.5499 103.346 18.3232L104.781 19.0232C104.342 19.8499 103.744 20.5032 102.987 20.9832C102.243 21.4632 101.339 21.7032 100.276 21.7032ZM103.206 15.2033C103.179 14.7766 103.06 14.3499 102.847 13.9233C102.635 13.4966 102.296 13.1366 101.831 12.8433C101.379 12.55 100.807 12.4033 100.116 12.4033C99.3191 12.4033 98.6413 12.6633 98.0832 13.1833C97.5384 13.6899 97.1796 14.3633 97.0068 15.2033H103.206Z" fill="#5F6368"/>
</svg>
