<svg width="18" height="18" viewBox="0 0 18 18" fill="none" xmlns="http://www.w3.org/2000/svg">
<path d="M8.1868 0.618179C8.44276 -0.206059 9.55724 -0.20606 9.8132 0.618178L11.3516 5.57222C11.4661 5.94083 11.7944 6.1904 12.1648 6.1904H17.1433C17.9716 6.1904 18.316 7.2994 17.6459 7.80881L13.6182 10.8706C13.3185 11.0984 13.1931 11.5022 13.3076 11.8708L14.846 16.8249C15.102 17.6491 14.2004 18.3345 13.5303 17.8251L9.50259 14.7633C9.2029 14.5355 8.7971 14.5355 8.49742 14.7633L4.46974 17.8251C3.79963 18.3345 2.898 17.6491 3.15396 16.8249L4.69239 11.8708C4.80686 11.5022 4.68146 11.0984 4.38178 10.8706L0.354102 7.80881C-0.31601 7.2994 0.0283816 6.1904 0.856686 6.1904H5.83517C6.2056 6.1904 6.5339 5.94083 6.64837 5.57222L8.1868 0.618179Z" fill="#FFCC00"/>
</svg>
