<svg width="104" height="30" viewBox="0 0 104 30" fill="none" xmlns="http://www.w3.org/2000/svg">
<path fill-rule="evenodd" clip-rule="evenodd" d="M12.6406 3.48415H10.6359C6.96067 3.48415 5.03953 5.33116 5.03953 8.0737C5.03953 11.18 6.37597 12.6213 9.11848 14.4823L11.3737 15.9935L4.84463 25.7323H0L5.86088 17.0289C2.49192 14.6222 0.598618 12.2854 0.598618 8.32556C0.598618 3.35821 4.05111 0 10.6081 0H17.1232V25.7323H12.6406V3.48415Z" fill="#E63F0C"/>
<path fill-rule="evenodd" clip-rule="evenodd" d="M49.0871 22.264H42.8643C44.0893 19.4515 44.4235 14.3722 44.4235 11.1539V10.5942H49.101V22.264H49.0871ZM53.5002 7.12402H40.6369V8.71918C40.6369 13.2668 40.3445 19.1576 38.7853 22.264H37.4071V30.0018H41.4861V25.7481H51.3841V30.0018H55.4631V22.264H53.5002V7.12402Z" fill="#000003"/>
<path fill-rule="evenodd" clip-rule="evenodd" d="M31.1415 14.4841H25.2528V7.12402H20.8397V25.7481H25.2528V17.9682H31.1415V25.7481H35.5546V7.12402H31.1415V14.4841Z" fill="#000003"/>
<path fill-rule="evenodd" clip-rule="evenodd" d="M99.4393 10.2273C101.152 10.2273 102.808 10.815 103.699 11.3747V7.63869C102.766 7.12097 101.138 6.74316 98.952 6.74316C93.3139 6.74316 90.3904 10.773 90.3904 16.44C90.3904 22.6667 93.2443 26.1088 99.1469 26.1088C101.193 26.1088 102.627 25.745 103.713 24.9615V21.3654C102.599 22.1489 101.263 22.6247 99.4114 22.6247C96.2652 22.6247 94.9566 20.176 94.9566 16.3281C94.9566 12.2982 96.5575 10.2273 99.4393 10.2273Z" fill="#000003"/>
<path fill-rule="evenodd" clip-rule="evenodd" d="M89.8073 7.12402H85.3525L79.1296 15.7154V7.12402H74.7166V25.7481H79.1296V16.597L85.6587 25.7481H90.6565L83.5705 15.7154L89.8073 7.12402Z" fill="#000003"/>
<path fill-rule="evenodd" clip-rule="evenodd" d="M67.2531 14.7469H61.0999C61.2113 11.7805 62.2832 10.2273 64.3992 10.2273C66.5849 10.2273 67.2531 12.0463 67.2531 14.3691V14.7469ZM64.4828 6.74316C59.1091 6.74316 56.5476 10.857 56.5476 16.482C56.5476 22.9605 59.7356 26.1088 65.3737 26.1088C68.1858 26.1088 70.274 25.3672 71.5687 24.4857V20.8896C70.1905 21.8131 67.8935 22.6247 65.7496 22.6247C62.5199 22.6247 61.2948 21.1135 61.1138 17.9932H71.7497V15.6564C71.7497 9.19186 68.8958 6.74316 64.4828 6.74316Z" fill="#000003"/>
</svg>
