<svg width="120" height="30" viewBox="0 0 120 30" fill="none" xmlns="http://www.w3.org/2000/svg">
<path d="M1.05373 0.993188H26.0423C26.6243 0.993188 27.096 1.4807 27.096 2.08208V7.16C27.096 7.83639 26.812 8.47681 26.3175 8.92L12.3437 21H26.0423C26.6243 21 27.096 21.4786 27.096 22.08V27.9096C27.096 28.511 26.6243 28.9985 26.0423 28.9985H1.05373C0.471773 28.9985 0 28.511 0 27.9096V22.84C0 22.1636 0.284034 21.5232 0.778505 21.08L14.7523 9H1.05373C0.471773 9 0 8.50138 0 7.9V2.08208C0 1.4807 0.471773 0.993188 1.05373 0.993188ZM44.5149 0C47.4043 0 49.9802 0.671421 52.1307 1.8984C54.2812 3.12537 56.0062 4.9079 57.1935 7.13013C58.3809 9.35235 59.0306 12.0143 59.0306 15C59.0306 17.9857 58.3809 20.6477 57.1935 22.8699C56.0062 25.0921 54.2812 26.8746 52.1307 28.1016C49.9802 29.3286 47.4043 30 44.5149 30C41.6256 30 39.0496 29.3286 36.8991 28.1016C34.7486 26.8746 33.0236 25.0921 31.8363 22.8699C30.6489 20.6477 29.9992 17.9857 29.9992 15C29.9992 12.0143 30.6489 9.35235 31.8363 7.13013C33.0236 4.9079 34.7486 3.12537 36.8991 1.8984C39.0496 0.671421 41.6256 0 44.5149 0ZM44.5149 8C43.1328 8 41.9194 8.3017 40.9158 8.86266C39.9123 9.42361 39.1186 10.2438 38.5757 11.2809C38.0329 12.3179 37.7409 13.5718 37.7409 15C37.7409 16.4282 38.0329 17.6821 38.5757 18.7191C39.1186 19.7562 39.9123 20.5764 40.9158 21.1373C41.9194 21.6983 43.1328 22 44.5149 22C45.897 22 47.1104 21.6983 48.114 21.1373C49.1175 20.5764 49.9113 19.7562 50.4541 18.7191C50.997 17.6821 51.2889 16.4282 51.2889 15C51.2889 13.5718 50.997 12.3179 50.4541 11.2809C49.9113 10.2438 49.1175 9.42361 48.114 8.86266C47.1104 8.3017 45.897 8 44.5149 8ZM75.4818 0C78.3711 0 80.9471 0.671421 83.0976 1.8984C85.2481 3.12537 86.9731 4.9079 88.1604 7.13013C89.3478 9.35235 89.9975 12.0143 89.9975 15C89.9975 17.9857 89.3478 20.6477 88.1604 22.8699C86.9731 25.0921 85.2481 26.8746 83.0976 28.1016C80.9471 29.3286 78.3711 30 75.4818 30C72.5925 30 70.0165 29.3286 67.866 28.1016C65.7155 26.8746 63.9905 25.0921 62.8032 22.8699C61.6158 20.6477 60.9661 17.9857 60.9661 15C60.9661 12.0143 61.6158 9.35235 62.8032 7.13013C63.9905 4.9079 65.7155 3.12537 67.866 1.8984C70.0165 0.671421 72.5925 0 75.4818 0ZM75.4818 8C74.0997 8 72.8863 8.3017 71.8827 8.86266C70.8792 9.42361 70.0854 10.2438 69.5426 11.2809C68.9997 12.3179 68.7078 13.5718 68.7078 15C68.7078 16.4282 68.9997 17.6821 69.5426 18.7191C70.0854 19.7562 70.8792 20.5764 71.8827 21.1373C72.8863 21.6983 74.0997 22 75.4818 22C76.8639 22 78.0773 21.6983 79.0809 21.1373C80.0844 20.5764 80.8782 19.7562 81.421 18.7191C81.9639 17.6821 82.2558 16.4282 82.2558 15C82.2558 13.5718 81.9639 12.3179 81.421 11.2809C80.8782 10.2438 80.0844 9.42361 79.0809 8.86266C78.0773 8.3017 76.8639 8 75.4818 8ZM120 2.08554V27.9092C120 28.5106 119.528 28.9981 118.946 28.9981H114.036C113.381 28.9981 112.761 28.7046 112.332 28.1937L100.642 13.7555V27.9092C100.642 28.5106 100.16 28.9981 99.5779 28.9981H93.9512C93.3692 28.9981 92.8974 28.5106 92.8974 27.9092V2.08554C92.8974 1.48413 93.3692 0.996594 93.9512 0.996594H98.8618C99.5165 0.996594 100.136 1.29018 100.565 1.80127L112.255 16.2445V2.08554C112.255 1.48413 112.718 0.996594 113.3 0.996594H118.946C119.528 0.996594 120 1.48413 120 2.08554Z" fill="url(#paint0_linear_1669_842)"/>
<defs>
<linearGradient id="paint0_linear_1669_842" x1="9281.18" y1="1500" x2="2617.35" y2="1500" gradientUnits="userSpaceOnUse">
<stop stop-color="#6339F5"/>
<stop offset="1" stop-color="#3D3F55"/>
</linearGradient>
</defs>
</svg>
